<?xml version="1.0" encoding="UTF-8"?>
<svg width="24px" height="24px" viewBox="0 0 24 24" version="1.1" xmlns="http://www.w3.org/2000/svg" xmlns:xlink="http://www.w3.org/1999/xlink">
    <title>7DDD07B3-FA1A-4081-8BC8-766E020576C3</title>
    <g id="★-Icons" stroke="none" stroke-width="1" fill-rule="evenodd">
        <g id="Product-Icons-Sticker-Sheet" transform="translate(-204.000000, -933.000000)" fill-rule="nonzero">
            <g id="row-8" transform="translate(72.000000, 933.000000)">
                <g id="Virtru-icons/24/Attention-solid-24" transform="translate(132.000000, 0.000000)">
                    <path d="M12,1 C18.0751322,1 23,5.92486775 23,12 C23,18.0751322 18.0751322,23 12,23 C5.92486775,23 1,18.0751322 1,12 C1,5.92486775 5.92486775,1 12,1 Z M11.9832001,15.1005109 C11.1528129,15.1005109 10.4796511,15.7736727 10.4796511,16.6040598 C10.4796511,17.4344469 11.1528129,18.1076087 11.9832001,18.1076087 C12.8135872,18.1076087 13.486749,17.4344469 13.486749,16.6040598 C13.486749,15.7736727 12.8135872,15.1005109 11.9832001,15.1005109 Z M11.9832001,6.10760873 C11.3188903,6.10760873 10.7803609,6.64613816 10.7803609,7.31044787 L10.7803609,7.31044787 L10.7803609,12.1426544 C10.7803609,12.8069641 11.3188903,13.3454936 11.9832001,13.3454936 C12.6475098,13.3454936 13.1860392,12.8069641 13.1860392,12.1426544 L13.1860392,12.1426544 L13.1860392,7.31044787 C13.1860392,6.64613816 12.6475098,6.10760873 11.9832001,6.10760873 Z" id="Icon"></path>
                </g>
            </g>
        </g>
    </g>
</svg>
