<?xml version="1.0" encoding="UTF-8"?>
<svg width="30px" height="30px" viewBox="0 0 30 30" version="1.1" xmlns="http://www.w3.org/2000/svg" xmlns:xlink="http://www.w3.org/1999/xlink">
    <title>1E7876AD-048F-487B-A4DD-A32732A85F87</title>
    <defs>
        <path d="M27.0837646,6.13994409 L28.6943065,8.15312149 L14.9984105,19.1098383 L1.30251458,8.15312149 L2.9130565,6.13994409 L14.9984105,15.8082273 L27.0837646,6.13994409 Z M4.68591054,7.29920705 C4.21129084,7.29920705 3.82653554,7.68396234 3.82653554,8.15858205 L3.82653554,21.9085821 C3.82653554,22.3832018 4.21129084,22.7679571 4.68591054,22.7679571 L25.3109105,22.7679571 C25.7855302,22.7679571 26.1702855,22.3832018 26.1702855,21.9085821 L26.1702855,8.15858205 C26.1702855,7.68396234 25.7855302,7.29920705 25.3109105,7.29920705 L4.68591054,7.29920705 Z M4.68591054,4.72108205 L25.3109105,4.72108205 C27.2093894,4.72108205 28.7484105,6.26010322 28.7484105,8.15858205 L28.7484105,21.9085821 C28.7484105,23.8070609 27.2093894,25.3460821 25.3109105,25.3460821 L4.68591054,25.3460821 C2.78743172,25.3460821 1.24841054,23.8070609 1.24841054,21.9085821 L1.24841054,8.15858205 C1.24841054,6.26010322 2.78743172,4.72108205 4.68591054,4.72108205 Z" id="path-1"></path>
    </defs>
    <g id="Modals" stroke="none" stroke-width="1" fill="none" fill-rule="evenodd">
        <g id="V2-Email-&amp;-Files---Email-Modal-Validation" transform="translate(-159.000000, -170.000000)">
            <g id="Group" transform="translate(99.000000, 66.000000)">
                <g id="modal-metadata" transform="translate(60.000000, 100.000000)">
                    <g id="Email-24" transform="translate(0.000000, 4.000000)">
                        <mask id="mask-2" fill="white">
                            <use xlink:href="#path-1"></use>
                        </mask>
                        <use id="Icon" fill="#2D323B" fill-rule="nonzero" xlink:href="#path-1"></use>
                    </g>
                </g>
            </g>
        </g>
    </g>
</svg>