<?xml version="1.0" encoding="UTF-8"?>
<svg width="16px" height="15px" viewBox="0 0 16 15" version="1.1" xmlns="http://www.w3.org/2000/svg" xmlns:xlink="http://www.w3.org/1999/xlink">
    <title>7C6E3F31-2C84-46FD-8C5A-9B3D4C5483A9</title>
    <defs>
        <path d="M7.00177723,0.576071453 C8.89993353,0.576071453 10.2020226,2.0950315 10.2020226,4.07794659 L10.2012083,4.67007145 L11.0804583,4.67038596 C11.8858736,4.67038596 12.5387917,5.32330404 12.5387917,6.1287193 L12.5387917,11.9655952 C12.5387917,12.7710105 11.8858736,13.4239285 11.0804583,13.4239285 L2.91954168,13.4239285 C2.11412642,13.4239285 1.46120834,12.7710105 1.46120834,11.9655952 L1.46120834,6.1287193 C1.46120834,5.32330404 2.11412642,4.67038596 2.91954168,4.67038596 L3.78420834,4.67007145 L3.78512446,4.07794659 C3.78512446,2.09829723 5.10183521,0.576071453 7.00177723,0.576071453 Z M8.42051634,7 C8.13723605,7 7.90753911,7.22583512 7.90753911,7.50429082 C7.90753911,8.68373457 7.14232342,9.27283737 6.56997004,9.54850728 L6.56997004,7.09471703 L5.54407856,7.09471703 L5.54407856,10.8736172 L6.15622592,10.7550042 C7.1168855,10.5687893 8.93349357,9.64984831 8.93349357,7.50429082 C8.93349357,7.22583512 8.7038596,7 8.42051634,7 Z M7.00177723,1.74273812 C5.78679565,1.74273812 4.95179113,2.70807193 4.95179113,4.07794659 L4.95120834,4.67007145 L9.03520834,4.67007145 L9.03535589,4.07794659 C9.03535589,2.70289625 8.21228529,1.74273812 7.00177723,1.74273812 Z" id="path-1"></path>
    </defs>
    <g id="Modals" stroke="none" stroke-width="1" fill="none" fill-rule="evenodd">
        <g id="V2-Email-&amp;-Files---Attachments-Modal-Recipients" transform="translate(-164.000000, -177.000000)">
            <g id="Group" transform="translate(99.000000, 70.000000)">
                <g id="modal-metadata" transform="translate(60.000000, 96.000000)">
                    <g id="Virtru-icons/24/Email-24" transform="translate(0.000000, 4.000000)">
                        <g id="Virtru-icons/Document-Icon/parts/small/icon" transform="translate(5.000000, 7.000000)">
                            <g id="Encrypted-solid-24" transform="translate(0.700000, 0.000000)">
                                <mask id="mask-2" fill="white">
                                    <use xlink:href="#path-1"></use>
                                </mask>
                                <use id="Icon" fill="#FFFFFF" fill-rule="nonzero" xlink:href="#path-1"></use>
                            </g>
                        </g>
                    </g>
                </g>
            </g>
        </g>
    </g>
</svg>