<?xml version="1.0" encoding="UTF-8"?>
<svg width="26px" height="30px" viewBox="0 0 26 30" version="1.1" xmlns="http://www.w3.org/2000/svg" xmlns:xlink="http://www.w3.org/1999/xlink">
    <title>7A52795A-240A-4014-BDC7-AB19CB30C606</title>
    <defs>
        <linearGradient x1="23.965115%" y1="100%" x2="84.7222222%" y2="0%" id="linearGradient-1">
            <stop stop-color="#969DA9" offset="0%"></stop>
            <stop stop-color="#646A78" offset="100%"></stop>
        </linearGradient>
        <path d="M15,0 L21.3232233,0 C23.2562199,0 25,1.74378007 25,3.6767767 L25,10 L15,0 Z" id="path-2"></path>
        <filter x="-20.0%" y="-30.0%" width="140.0%" height="140.0%" filterUnits="objectBoundingBox" id="filter-3">
            <feOffset dx="0" dy="-1" in="SourceAlpha" result="shadowOffsetOuter1"></feOffset>
            <feGaussianBlur stdDeviation="0.5" in="shadowOffsetOuter1" result="shadowBlurOuter1"></feGaussianBlur>
            <feColorMatrix values="0 0 0 0 0   0 0 0 0 0   0 0 0 0 0  0 0 0 0.0967221467 0" type="matrix" in="shadowBlurOuter1"></feColorMatrix>
        </filter>
    </defs>
    <g id="File-Icons" stroke="none" stroke-width="1" fill="none" fill-rule="evenodd">
        <g id="Individual-Chips" transform="translate(-306.000000, -407.000000)">
            <g id="Virtru-icons/Document-Icon/Model-Copy-52" transform="translate(306.000000, 407.000000)">
                <path d="M15,0 L25,10 L25,26.5 C25,28.4329966 23.4329966,30 21.5,30 L3.5,30 C1.56700338,30 0,28.4329966 0,26.5 L0,3.5 C0,1.56700338 1.56700338,0 3.5,0 L15,0 Z" id="page" fill="url(#linearGradient-1)"></path>
                <g id="curl" transform="translate(20.000000, 5.000000) scale(-1, -1) translate(-20.000000, -5.000000) ">
                    <use fill="black" fill-opacity="1" filter="url(#filter-3)" xlink:href="#path-2"></use>
                    <use fill="#393C44" fill-rule="evenodd" xlink:href="#path-2"></use>
                </g>
                <g id="Virtru-icons/Document-Icon/parts/small/icon" transform="translate(6.000000, 7.000000)" fill="#FFFFFF">
                    <g id="Lock-Icon" transform="translate(0.700000, 0.000000)" fill-rule="nonzero">
                        <path d="M6.00177723,0.576071453 C7.89993353,0.576071453 9.20202255,2.0950315 9.20202255,4.07794659 L9.20120834,4.67007145 L10.0804583,4.67038596 C10.8858736,4.67038596 11.5387917,5.32330404 11.5387917,6.1287193 L11.5387917,11.9655952 C11.5387917,12.7710105 10.8858736,13.4239285 10.0804583,13.4239285 L1.91954168,13.4239285 C1.11412642,13.4239285 0.461208344,12.7710105 0.461208344,11.9655952 L0.461208344,6.1287193 C0.461208344,5.32330404 1.11412642,4.67038596 1.91954168,4.67038596 L2.78420834,4.67007145 L2.78512446,4.07794659 C2.78512446,2.09829723 4.10183521,0.576071453 6.00177723,0.576071453 Z M7.42051634,7 C7.13723605,7 6.90753911,7.22583512 6.90753911,7.50429082 C6.90753911,8.68373457 6.14232342,9.27283737 5.56997004,9.54850728 L5.56997004,7.09471703 L4.54407856,7.09471703 L4.54407856,10.8736172 L5.15622592,10.7550042 C6.1168855,10.5687893 7.93349357,9.64984831 7.93349357,7.50429082 C7.93349357,7.22583512 7.7038596,7 7.42051634,7 Z M6.00177723,1.74273812 C4.78679565,1.74273812 3.95179113,2.70807193 3.95179113,4.07794659 L3.95120834,4.67007145 L8.03520834,4.67007145 L8.03535589,4.07794659 C8.03535589,2.70289625 7.21228529,1.74273812 6.00177723,1.74273812 Z" id="Icon"></path>
                    </g>
                    <text id="File-Format" font-family="OpenSans-Bold, Open Sans" font-size="6" font-weight="bold">
                        <tspan x="1.02441406" y="20">TXT</tspan>
                    </text>
                </g>
            </g>
        </g>
    </g>
</svg>