<svg xmlns="http://www.w3.org/2000/svg" width="16" height="16" viewBox="0 0 19 19">
  <path fill-rule="evenodd" d="M7.87135888,13.7320643 L15.9840349,5.6193882 L14.7164293,4.30952905 L7.87135888,11.1545995 L4.66009128,7.94333187 L3.39248564,9.2109375 L7.87135888,13.7320643 Z M3.3079786,2.87290933 C5.08263536,1.09825257 7.20937466,0.2109375 9.68826029,0.2109375 C12.1671459,0.2109375 14.286843,1.09121039 16.0474152,2.85178257 C17.8079874,4.61235475 18.6882603,6.73205187 18.6882603,9.2109375 C18.6882603,11.6898231 17.8079874,13.8095202 16.0474152,15.5700924 C14.286843,17.3306646 12.1671459,18.2109375 9.68826029,18.2109375 C7.20937466,18.2109375 5.08967755,17.3306646 3.32910536,15.5700924 C1.56853318,13.8095202 0.688260292,11.6898231 0.688260292,9.2109375 C0.688260292,6.73205187 1.561491,4.61939694 3.3079786,2.87290933 Z"/>
</svg>
