<?xml version="1.0" encoding="UTF-8"?>
<svg width="18px" height="18px" viewBox="0 0 18 18" version="1.1" xmlns="http://www.w3.org/2000/svg" xmlns:xlink="http://www.w3.org/1999/xlink">
    <title>35DC4DED-E4AC-48A5-B620-A6D74B0386D1</title>
    <defs>
        <path d="M9.061004,0.7 C9.41228703,0.7 9.75859575,0.721297571 10.0987094,0.762671923 L10.6750156,3.17911581 C11.4396799,3.38341953 12.1464654,3.72940722 12.7655265,4.1872331 L15.0144904,3.13130985 C15.5083618,3.61548968 15.9434294,4.15943013 16.3079891,4.75142713 L14.7781336,6.70917136 C15.0828476,7.40626694 15.2638026,8.16982795 15.2932228,8.97207876 L17.5219551,10.0729066 C17.4506921,10.7757511 17.2938483,11.4533046 17.0620073,12.0949834 L14.5760726,12.1190397 C14.2097354,12.8108617 13.7170351,13.4254843 13.1287193,13.9321597 L13.6590464,16.3605481 C13.080465,16.7330904 12.4537773,17.037377 11.7903627,17.2620287 L10.2213723,15.3334464 C9.84540275,15.4041927 9.45752484,15.4411984 9.06100377,15.4411984 C8.66448271,15.4411984 8.2766048,15.4041927 7.90063523,15.3334464 L6.33164528,17.2620287 C5.6682307,17.037377 5.041543,16.7330904 4.4629616,16.3605481 L4.99328824,13.9321597 C4.40497242,13.4254843 3.91227212,12.8108617 3.54593496,12.1190397 L1.06000067,12.0949834 C0.828159733,11.4533046 0.671315942,10.7757511 0.600052945,10.0729066 L2.82878471,8.97207876 C2.858205,8.16982795 3.03915995,7.40626694 3.34387395,6.70917136 L1.81401891,4.75142713 C2.17882689,4.15902687 2.61423891,3.61474866 3.10852698,3.13032049 L5.3574957,4.1864829 C5.97631436,3.72902926 6.6827454,3.38330792 7.4469919,3.17911581 L8.02430293,0.762549813 C8.36409397,0.721255667 8.71006672,0.7 9.061004,0.7 Z M9.12142243,6.89739813 C7.83789926,6.89739813 6.79739813,7.93789926 6.79739813,9.22142243 C6.79739813,10.5049456 7.83789926,11.5454467 9.12142243,11.5454467 C10.4049456,11.5454467 11.4454467,10.5049456 11.4454467,9.22142243 C11.4454467,7.93789926 10.4049456,6.89739813 9.12142243,6.89739813 Z" id="path-1"></path>
    </defs>
    <g id="Round-2" stroke="none" stroke-width="1" fill="none" fill-rule="evenodd">
        <g id="Dash-User-Files" transform="translate(-1187.000000, -256.000000)">
            <g id="1" transform="translate(249.000000, 230.000000)">
                <g id="Buttons/Icon/.Secondary/.Enabled" transform="translate(930.000000, 18.000000)">
                    <g id="Security-settings-solid-18" transform="translate(8.000000, 8.000000)">
                        <mask id="mask-2" fill="white">
                            <use xlink:href="#path-1"></use>
                        </mask>
                        <use id="Icon" fill="#174EB6" fill-rule="nonzero" xlink:href="#path-1"></use>
                    </g>
                </g>
            </g>
        </g>
    </g>
</svg>