<?xml version="1.0" encoding="utf-8"?>
<!-- Generator: Adobe Illustrator 24.1.2, SVG Export Plug-In . SVG Version: 6.00 Build 0)  -->
<svg version="1.1" id="logos" xmlns="http://www.w3.org/2000/svg" xmlns:xlink="http://www.w3.org/1999/xlink" x="0px" y="0px"
	 viewBox="0 0 1240 475" style="enable-background:new 0 0 1240 475;" xml:space="preserve">
<style type="text/css">
	.st0{fill:#FFFFFF;}
</style>
<g>
	<g>
		<path class="st0" d="M717,315.7c-10.5,0-19.1-8.5-19.1-19.1V187.5c0-10.5,8.5-19.1,19.1-19.1c10.5,0,19.1,8.5,19.1,19.1v109.1
			C736.1,307.1,727.6,315.7,717,315.7z"/>
		<path class="st0" d="M794.4,188.1"/>
		<path class="st0" d="M794.4,315.7c-10.5,0-19.1-8.5-19.1-19.1V179l11.5-5c3.8-1.6,38.1-15.7,68.1-4.4c9.9,3.7,14.8,14.7,11.1,24.6
			c-3.7,9.9-14.7,14.8-24.6,11.1c-8.4-3.2-19.4-1.9-28,0.1v91.1C813.5,307.1,804.9,315.7,794.4,315.7z"/>
		<path class="st0" d="M948.1,168.4h-20.3v-11.8c0-10.5-8.5-19.1-19.1-19.1c-10.5,0-19.1,8.5-19.1,19.1v140
			c0,10.5,8.5,19.1,19.1,19.1c10.5,0,19.1-8.5,19.1-19.1v-90h20.3c10.5,0,19.1-8.5,19.1-19.1C967.2,177,958.6,168.4,948.1,168.4z"/>
		<circle class="st0" cx="717.3" cy="129.4" r="19.1"/>
		<path class="st0" d="M1009.8,189.7"/>
		<path class="st0" d="M1009.8,315.7L1009.8,315.7c-10.5,0-19.1-8.5-19.1-19.1l0-117.6l12.1-4.7c3.8-1.5,37.9-14.2,67.5-3
			c9.9,3.7,14.8,14.7,11.1,24.6c-3.7,9.9-14.7,14.8-24.6,11.1c-8.4-3.2-19.3-2.3-28-0.6l0,90.2
			C1028.8,307.1,1020.3,315.7,1009.8,315.7z"/>
		<path class="st0" d="M1162.7,315.7c-31.6,0-57.3-25.7-57.3-57.3v-70.8c0-10.5,8.5-19.1,19.1-19.1s19.1,8.5,19.1,19.1v70.8
			c0,10.6,8.6,19.2,19.2,19.2c10.6,0,19.2-8.6,19.2-19.2v-70.8c0-10.5,8.5-19.1,19.1-19.1s19.1,8.5,19.1,19.1v70.8
			C1220,290,1194.3,315.7,1162.7,315.7z"/>
		<path class="st0" d="M541.3,319V173.9h38.2v92.7v1.3c21.8-11.1,51.2-34.5,51.2-80.3c0-10.5,8.5-19.1,19.1-19.1
			c10.5,0,19.1,8.5,19.1,19.1c0,82-68.4,117.3-104.3,126.7C564.4,314.2,549.6,317.9,541.3,319z"/>
	</g>
	<path class="st0" d="M189,319V173.9h38.2v92.7v1.3c21.8-11.1,51.2-34.5,51.2-80.3c0-10.5,8.5-19.1,19.1-19.1
		c10.5,0,19.1,8.5,19.1,19.1c0,82-68.4,117.3-104.3,126.7C212.1,314.2,197.3,317.9,189,319z"/>
	<g>
		<path class="st0" d="M307.6,76c-21-8.9-44.1-13.8-68.3-13.8C142.5,62.2,64,140.7,64,237.5s78.5,175.3,175.3,175.3
			c96.8,0,175.3-78.5,175.3-175.3c0-41.7-14.6-80-38.9-110.1c15.5-2.9,27.7-15.1,30.1-30.8c4,4.5,7.8,9.3,11.4,14.4
			c26.4,37.2,40.4,80.8,40.4,126.4c0,120.6-98.1,218.8-218.8,218.8C118.1,456.2,20,358.1,20,237.4c0-120.6,98.1-218.6,218.8-218.6
			c7.1,0,14.8,0.3,22.5,1c10.7,1.4,19.2,2.9,26.6,4.8c12.2,2.7,24.3,6.6,35.6,11.4c9.2,3.7,18.6,12.3,16.4,27.1
			C339.9,63,336.4,86,307.6,76z"/>
	</g>
</g>
</svg>
