<svg xmlns="http://www.w3.org/2000/svg" width="16" height="16" viewBox="0 0 18 18">
  <g fill="none" fill-rule="evenodd">
    <path fill="#FFF" fill-rule="nonzero" d="M2.71122995,2 C2.31842849,2 2,2.31842849 2,2.71122995 L2,15.2887701 C2,15.6815715 2.31842849,16 2.71122995,16 L15.2887701,16 C15.6815715,16 16,15.6815715 16,15.2887701 L16,2.71122995 C16,2.31842849 15.6815715,2 15.2887701,2 L2.71122995,2 Z"/>
    <path fill="currentColor" fill-rule="nonzero" d="M15.1818182,0.5 C16.4621146,0.5 17.5,1.53788535 17.5,2.81818182 L17.5,15.1818182 C17.5,16.4621146 16.4621146,17.5 15.1818182,17.5 L2.81818182,17.5 C1.53788535,17.5 0.5,16.4621146 0.5,15.1818182 L0.5,2.81818182 C0.5,1.53788535 1.53788535,0.5 2.81818182,0.5 L15.1818182,0.5 Z M15.1818182,2.11904762 L2.81818182,2.11904762 C2.43206066,2.11904762 2.11904762,2.43206066 2.11904762,2.81818182 L2.11904762,15.1818182 C2.11904762,15.5679393 2.43206066,15.8809524 2.81818182,15.8809524 L15.1818182,15.8809524 C15.5679393,15.8809524 15.8809524,15.5679393 15.8809524,15.1818182 L15.8809524,2.81818182 C15.8809524,2.43206066 15.5679393,2.11904762 15.1818182,2.11904762 Z M12.3867531,8.15 C12.8561951,8.15 13.2367531,8.53055796 13.2367531,9 C13.2367531,9.46944204 12.8561951,9.85 12.3867531,9.85 L5.61324691,9.85 C5.14380487,9.85 4.76324691,9.46944204 4.76324691,9 C4.76324691,8.53055796 5.14380487,8.15 5.61324691,8.15 L12.3867531,8.15 Z"/>
  </g>
</svg>
