<svg xmlns="http://www.w3.org/2000/svg" width="16" height="16" viewBox="0 0 18 18">
  <g fill="none" fill-rule="evenodd">
    <path fill="#FFF" fill-rule="nonzero" d="M2.71122995,2 C2.31842849,2 2,2.31842849 2,2.71122995 L2,15.2887701 C2,15.6815715 2.31842849,16 2.71122995,16 L15.2887701,16 C15.6815715,16 16,15.6815715 16,15.2887701 L16,2.71122995 C16,2.31842849 15.6815715,2 15.2887701,2 L2.71122995,2 Z"/>
    <path fill="currentColor" fill-rule="nonzero" d="M15.1818182,0.5 C16.4621146,0.5 17.5,1.53788535 17.5,2.81818182 L17.5,15.1818182 C17.5,16.4621146 16.4621146,17.5 15.1818182,17.5 L2.81818182,17.5 C1.53788535,17.5 0.5,16.4621146 0.5,15.1818182 L0.5,2.81818182 C0.5,1.53788535 1.53788535,0.5 2.81818182,0.5 L15.1818182,0.5 Z M15.1818182,2.11904762 L2.81818182,2.11904762 C2.43206066,2.11904762 2.11904762,2.43206066 2.11904762,2.81818182 L2.11904762,15.1818182 C2.11904762,15.5679393 2.43206066,15.8809524 2.81818182,15.8809524 L15.1818182,15.8809524 C15.5679393,15.8809524 15.8809524,15.5679393 15.8809524,15.1818182 L15.8809524,2.81818182 C15.8809524,2.43206066 15.5679393,2.11904762 15.1818182,2.11904762 Z M13.8437653,5.72015741 C14.2002296,6.07662177 14.2002296,6.65456469 13.8437653,7.01102905 L8.08671071,12.7690757 C7.86663271,12.9891537 7.56213328,13.0733574 7.27745454,13.021687 C6.99297803,13.0735549 6.68802201,12.989412 6.46768571,12.7690757 L4.16858215,10.4117518 C3.81211779,10.0552874 3.81211779,9.47734449 4.16858215,9.12088013 C4.52504651,8.76441577 5.10298943,8.76441577 5.45945379,9.12088013 L7.283,10.99 L12.5528936,5.72015741 C12.909358,5.36369305 13.4873009,5.36369305 13.8437653,5.72015741 Z M7.28158365,11.2808981 L8.42902511,12.4283396 L7.28158365,13.5757811 L6.13414219,12.4283396 L7.28158365,11.2808981 Z"/>
  </g>
</svg>
