<svg xmlns="http://www.w3.org/2000/svg" width="20" height="20" viewBox="0 0 24 24">
  <g fill="none" fill-rule="evenodd">
    <path class="checkbox-svg-fill-preset" fill="#C6CBD4" fill-rule="nonzero" d="M4.72727273,2 L19.2727273,2 C20.7789584,2 22,3.22104159 22,4.72727273 L22,19.2727273 C22,20.7789584 20.7789584,22 19.2727273,22 L4.72727273,22 C3.22104159,22 2,20.7789584 2,19.2727273 L2,4.72727273 C2,3.22104159 3.22104159,2 4.72727273,2 Z"/>
    <path class="checkbox-stroke-preset" fill="#515864" fill-rule="nonzero" d="M16.1894435,7.73370965 C16.6088133,7.31433981 17.2887462,7.31433981 17.708116,7.73370965 C18.1274859,8.15307948 18.1274859,8.83301233 17.708116,9.25238216 L10.9351107,16.0265547 C10.5157408,16.4459245 9.83580799,16.4459245 9.41643815,16.0265547 C8.99706832,15.6071848 8.99706832,14.927252 9.41643815,14.5078822 L16.1894435,7.73370965 Z M6.32554767,13.2532324 C5.90617783,12.8338626 5.90617783,12.1539297 6.32554767,11.7345599 C6.7449175,11.3151901 7.42485035,11.3151901 7.84422019,11.7345599 L10.5490479,14.5078822 C10.9684177,14.927252 10.9684177,15.6071848 10.5490479,16.0265547 C10.1296781,16.4459245 9.44974521,16.4459245 9.03037538,16.0265547 L6.32554767,13.2532324 Z M9.98790237,14.2757576 L11.3378335,15.6256887 L9.98790237,16.9756198 L8.63797124,15.6256887 L9.98790237,14.2757576 Z"/>
  </g>
</svg>
