<svg xmlns="http://www.w3.org/2000/svg" width="20" height="20" viewBox="0 0 24 24">
  <g fill="none" fill-rule="evenodd">
    <path fill="#FFF" fill-rule="nonzero" d="M3.9144385,3 C3.40940806,3 3,3.40940806 3,3.9144385 L3,20.0855615 C3,20.5905919 3.40940806,21 3.9144385,21 L20.0855615,21 C20.5905919,21 21,20.5905919 21,20.0855615 L21,3.9144385 C21,3.40940806 20.5905919,3 20.0855615,3 L3.9144385,3 Z"/>
    <path fill="currentColor" fill-rule="nonzero" d="M19.2727273,2 C20.7789584,2 22,3.22104159 22,4.72727273 L22,19.2727273 C22,20.7789584 20.7789584,22 19.2727273,22 L4.72727273,22 C3.22104159,22 2,20.7789584 2,19.2727273 L2,4.72727273 C2,3.22104159 3.22104159,2 4.72727273,2 L19.2727273,2 Z M19.2727273,3.9047619 L4.72727273,3.9047619 C4.27301254,3.9047619 3.9047619,4.27301254 3.9047619,4.72727273 L3.9047619,19.2727273 C3.9047619,19.7269875 4.27301254,20.0952381 4.72727273,20.0952381 L19.2727273,20.0952381 C19.7269875,20.0952381 20.0952381,19.7269875 20.0952381,19.2727273 L20.0952381,4.72727273 C20.0952381,4.27301254 19.7269875,3.9047619 19.2727273,3.9047619 Z M9.9783337,14.5548447 L11.3925473,15.9690583 L9.9783337,17.3832718 L8.56412014,15.9690583 L9.9783337,14.5548447 Z M9.97317436,16.7313416 C9.63817168,16.7922447 9.27979972,16.6931997 9.02080671,16.4342067 L6.315979,13.6608844 C5.89660917,13.2415146 5.89660917,12.5615818 6.315979,12.1422119 C6.73534884,11.7228421 7.41528169,11.7228421 7.83465152,12.1422119 L9.98020622,14.3420986 L16.1798748,8.14136166 C16.5992447,7.72199182 17.2791775,7.72199182 17.6985474,8.14136166 C18.1179172,8.5607315 18.1179172,9.24066434 17.6985474,9.66003418 L10.925542,16.4342067 C10.666549,16.6931997 10.308177,16.7922447 9.97317436,16.7313416 L9.97317436,16.7313416 Z"/>
  </g>
</svg>
