<?xml version="1.0" encoding="UTF-8"?>
<svg width="22px" height="22px" viewBox="0 0 22 22" version="1.1" xmlns="http://www.w3.org/2000/svg" xmlns:xlink="http://www.w3.org/1999/xlink">
    <!-- Generator: sketchtool 53.2 (72643) - https://sketchapp.com -->
    <title>C1459E30-4260-4492-B345-D26DFCC26EF8</title>
    <desc>Created with sketchtool.</desc>
    <g id="Page-1" stroke="none" stroke-width="1" fill="none" fill-rule="evenodd">
        <g id="sr-confirm-email-link" transform="translate(-753.000000, -422.000000)">
            <g id="Button/O-Auth/Google" transform="translate(723.000000, 413.000000)">
                <g id="Auth-Group" transform="translate(27.000000, 6.000000)">
                    <g id="Super-G">
                        <path d="M14.0000003,7.55999988 C15.971667,7.55999988 17.3016671,8.41166652 18.0600004,9.12333317 L21.0233339,6.22999992 C19.2033338,4.5383333 16.8350004,3.5 14.0000003,3.5 C9.89333354,3.5 6.34666676,5.8566666 4.62000004,9.2866665 L8.01500015,11.9233331 C8.86666684,9.3916665 11.2233336,7.55999988 14.0000003,7.55999988 L14.0000003,7.55999988 Z" id="Shape" fill="#EA4335"></path>
                        <path d="M24.0800004,14.2333329 C24.0800004,13.3699996 24.0100004,12.7399996 23.8583337,12.0866663 L14,12.0866663 L14,15.983333 L19.7866669,15.983333 C19.6700002,16.9516663 19.0400002,18.4099996 17.6400001,19.3899996 L20.9533336,21.9566663 C22.936667,20.1249996 24.0800004,17.4299996 24.0800004,14.2333329 L24.0800004,14.2333329 Z" id="Shape" fill="#4285F4"></path>
                        <path d="M8.0266668,16.0766666 C7.80500013,15.4233333 7.67666679,14.7233333 7.67666679,14 C7.67666679,13.2766667 7.80500013,12.5766667 8.01500013,11.9233334 L4.62000003,9.28666671 C3.90833335,10.71 3.5,12.3083333 3.5,14 C3.5,15.6916667 3.90833335,17.29 4.62000003,18.7133333 L8.0266668,16.0766666 L8.0266668,16.0766666 Z" id="Shape" fill="#FBBC05"></path>
                        <path d="M13.9999999,24.4999994 C16.8349998,24.4999994 19.2149998,23.5666661 20.9533331,21.9566662 L17.6399998,19.3899996 C16.7533332,20.0083329 15.5633332,20.4399996 13.9999999,20.4399996 C11.2233333,20.4399996 8.86666663,18.6083329 8.02666664,16.0766664 L4.6316667,18.7133329 C6.35833334,22.1433328 9.89333328,24.4999994 13.9999999,24.4999994 L13.9999999,24.4999994 Z" id="Shape" fill="#34A853"></path>
                    </g>
                </g>
            </g>
        </g>
    </g>
</svg>