<?xml version="1.0" encoding="UTF-8"?>
<svg width="21px" height="21px" viewBox="0 0 21 21" version="1.1" xmlns="http://www.w3.org/2000/svg" xmlns:xlink="http://www.w3.org/1999/xlink">
    <!-- Generator: Sketch 54.1 (76490) - https://sketchapp.com -->
    <title>Icon</title>
    <desc>Created with Sketch.</desc>
    <g id="Symbols" stroke="none" stroke-width="1" fill="none" fill-rule="evenodd">
        <g id="Button/O-Auth/Parts/Outlook/.Enabled" transform="translate(-15.000000, -4.000000)" fill="#000000" fill-rule="nonzero">
            <g id="x-Partner/icon/Microsoft/Outlook-24" transform="translate(13.000000, 2.000000)">
                <path d="M14.361139,2 L14.361139,23 L2,20.4370789 L2,4.3659386 L14.361139,2 Z M8.32027444,8.8267193 C7.45665528,8.8267193 6.76300371,9.17272807 6.23913352,9.86290351 C5.71526333,10.5530175 5.45174526,11.4566316 5.45174526,12.5742368 C5.45174526,13.6327105 5.711787,14.4915614 6.22690429,15.1509123 C6.7428286,15.8095877 7.40879369,16.1387719 8.22771721,16.1387719 C9.06811947,16.1387719 9.74991427,15.7979825 10.2721705,15.1180614 C10.7944887,14.4381404 11.0551512,13.5422018 11.0543442,12.4309211 C11.0543442,11.3495439 10.8023105,10.4771842 10.2983671,9.81623684 C9.79523069,9.15535088 9.13596994,8.8267193 8.32027444,8.8267193 Z M8.28358677,10.1997018 C8.72216277,10.1997018 9.06787116,10.4022719 9.32064986,10.8093158 C9.57349064,11.2170965 9.6995696,11.786307 9.6995696,12.5189737 C9.6995696,13.2217368 9.56846238,13.7723421 9.30848271,14.1682105 C9.04850305,14.5641404 8.69633862,14.7623509 8.25217566,14.7623509 C7.82160762,14.7623509 7.47366445,14.5605175 7.20809783,14.1527368 C6.94259329,13.745693 6.80832013,13.1917105 6.80832013,12.4913421 C6.80832013,11.8011667 6.94259329,11.2471228 7.20809783,10.8282895 C7.47366445,10.4095175 7.83222284,10.1997018 8.28358677,10.1997018 Z M15.1415746,6.45212281 L15.1415746,6.45218421 L22.2720197,6.45218421 C22.5342962,6.45218421 22.9982618,6.8054386 22.9982618,7.29838596 L16.7513627,11.4638158 C16.7130611,11.4756667 16.6307466,11.4748684 16.5924449,11.4638158 L15.1415746,10.5588509 L15.1415746,6.45212281 Z M23,8.9579386 L23,16.5082368 C23,17.3301228 22.4666941,17.6757632 21.8686415,17.6757632 L15.1415746,17.6757632 L15.1415746,12.0941842 L16.4668005,12.9938684 C16.6534048,13.1296316 16.8788074,12.9938684 16.8788074,12.9938684 C16.6547084,13.1295702 23,8.9579386 23,8.9579386 Z" id="Outlook-Shape" fill="#1B66AA"></path>
            </g>
        </g>
    </g>
</svg>