<?xml version="1.0" encoding="UTF-8"?>
<svg width="24px" height="24px" viewBox="0 0 24 24" version="1.1" xmlns="http://www.w3.org/2000/svg" xmlns:xlink="http://www.w3.org/1999/xlink">
    <title>AttachmentIcon</title>
    <defs>
        <path d="M15.941507,8.02674042 L14.564007,6.63249042 L7.67650702,13.6092404 C6.93854941,14.3571536 6.65047348,15.4471298 6.92079465,16.4685855 C7.19111583,17.4900412 7.97876589,18.287793 8.98704467,18.5613355 C9.99532346,18.834878 11.0710494,18.5426536 11.809007,17.7947404 L20.074007,9.42236542 C21.9755628,7.4954094 21.975259,4.37150427 20.0733284,2.44492797 C18.1713978,0.51835168 15.0880629,0.518659461 13.186507,2.44561542 L4.50893559,11.2359904 L4.48993559,11.2538654 C1.8367213,13.9419904 1.8367213,18.2979904 4.48993559,20.9847404 C7.14314988,23.6714904 11.4425784,23.6714904 14.0957927,20.9847404 L14.1134356,20.9654904 L14.1147927,20.9668654 L20.0387213,14.9663654 L18.6612213,13.5721154 L12.7372927,19.5712404 L12.7196499,19.5891154 C10.830507,21.5031154 7.75793559,21.5031154 5.86879273,19.5891154 C4.95867787,18.6650076 4.449128,17.411824 4.45269302,16.1063692 C4.45625804,14.8009143 4.97264461,13.5506067 5.88779273,12.6316154 L5.88643559,12.6302404 L14.5653642,3.83986542 C15.704007,2.68486542 17.5578642,2.68486542 18.6978642,3.83986542 C19.8378642,4.99486542 19.836507,6.87174042 18.6978642,8.02536542 L10.4328642,16.3977404 C10.0485562,16.7558892 9.45390832,16.7434637 9.08450213,16.3695656 C8.71509595,15.9956676 8.70224567,15.3932079 9.05536416,15.0034904 L15.9428642,8.02536542 L15.941507,8.02674042 Z" id="AttachmentPath"></path>
    </defs>
    <g id="AttachmentModals" stroke="none" stroke-width="1" fill="none" fill-rule="evenodd">
        <g id="AttachmentV2-Email-&amp;-Files---Attachments-Modal-Recipients" transform="translate(-160.000000, -215.000000)">
            <g id="AttachmentGroup" transform="translate(99.000000, 70.000000)">
                <g id="attachment-modal-metadata" transform="translate(60.000000, 96.000000)">
                    <g id="Attachment-24" transform="translate(1.000000, 49.000000)">
                        <mask id="AttachmentMask" fill="white">
                            <use xlink:href="#AttachmentPath"></use>
                        </mask>
                        <use id="AttachmentIcon" fill="#2D323B" fill-rule="nonzero" xlink:href="#AttachmentPath"></use>
                    </g>
                </g>
            </g>
        </g>
    </g>
</svg>