<?xml version="1.0" encoding="UTF-8"?>
<svg width="25px" height="30px" viewBox="0 0 25 30" version="1.1" xmlns="http://www.w3.org/2000/svg" xmlns:xlink="http://www.w3.org/1999/xlink">
    <title>DocxIcon</title>
    <defs>
        <path d="M14,7.10542736e-15 L20.3232233,7.10542736e-15 C22.2562199,7.10542736e-15 24,1.74378007 24,3.6767767 L24,10 L14,7.10542736e-15 Z" id="DocxPath"></path>
        <filter x="-20.0%" y="-30.0%" width="140.0%" height="140.0%" filterUnits="objectBoundingBox" id="DocxFilter">
            <feOffset dx="0" dy="-1" in="SourceAlpha" result="shadowOffsetOuter1"></feOffset>
            <feGaussianBlur stdDeviation="0.5" in="shadowOffsetOuter1" result="shadowBlurOuter1"></feGaussianBlur>
            <feColorMatrix values="0 0 0 0 0   0 0 0 0 0   0 0 0 0 0  0 0 0 0.0967221467 0" type="matrix" in="shadowBlurOuter1"></feColorMatrix>
        </filter>
    </defs>
    <g id="DocxIcons" stroke="none" stroke-width="1" fill="none" fill-rule="evenodd">
        <g id="Docx-File-Type-Icons" transform="translate(-149.000000, -160.000000)">
            <g id="Docx-row-1-icons" transform="translate(74.000000, 160.000000)">
                <g id="DOCX" transform="translate(75.000000, 0.000000)">
                    <path d="M13.7928932,0.5 L23.5,10.2071068 L23.5,26.5 C23.5,27.3308348 23.178153,28.0838496 22.6551851,28.6286078 C22.1394543,29.1658275 21.4275107,29.5 20.64,29.5 L20.64,29.5 L3.36,29.5 C2.57248933,29.5 1.86054572,29.1658275 1.34481488,28.6286078 C0.821846959,28.0838496 0.5,27.3308348 0.5,26.5 L0.5,26.5 L0.5,3.5 C0.5,2.66916525 0.821846959,1.91615043 1.34481488,1.37139218 C1.86054572,0.834172547 2.57248933,0.5 3.36,0.5 L3.36,0.5 L13.7928932,0.5 Z" id="page-DOCX" stroke="#3A9EF2" fill="#FFFFFF"></path>
                    <g id="curl-DOCX" transform="translate(19.000000, 5.000000) scale(-1, -1) translate(-19.000000, -5.000000) ">
                        <use fill="black" fill-opacity="1" filter="url(#DocxFilter)" xlink:href="#DocxPath"></use>
                        <use fill="#106DBC" fill-rule="evenodd" xlink:href="#DocxPath"></use>
                    </g>
                    <path d="M3.17460937,19 C4.18502604,19 4.9578125,18.75 5.49296875,18.25 C6.028125,17.75 6.29570312,17.0299479 6.29570312,16.0898438 C6.29570312,15.2070312 6.03789062,14.5195312 5.52226562,14.0273438 C5.00664062,13.5351562 4.28268229,13.2890625 3.35039062,13.2890625 L3.35039062,13.2890625 L1.55742187,13.2890625 L1.55742187,19 L3.17460937,19 Z M3.28789062,18 L2.76835937,18 L2.76835937,14.28125 L3.41289062,14.28125 C4.49622396,14.28125 5.03789062,14.8945312 5.03789062,16.1210938 C5.03789062,17.3736979 4.45455729,18 3.28789062,18 L3.28789062,18 Z M9.84414062,19.078125 C10.7191406,19.078125 11.3910156,18.8242188 11.8597656,18.3164062 C12.3285156,17.8085938 12.5628906,17.0820312 12.5628906,16.1367188 C12.5628906,15.1888021 12.3304687,14.4622396 11.865625,13.9570312 C11.4007812,13.4518229 10.7295573,13.1992188 9.85195312,13.1992188 C8.97434896,13.1992188 8.30052083,13.4498698 7.83046875,13.9511719 C7.36041667,14.452474 7.12539062,15.1783854 7.12539062,16.1289062 C7.12539062,17.0794271 7.35976562,17.8085938 7.82851562,18.3164062 C8.29726562,18.8242188 8.96914062,19.078125 9.84414062,19.078125 Z M9.84414062,18.0625 C9.36236979,18.0625 9.00039062,17.9010417 8.75820312,17.578125 C8.51601562,17.2552083 8.39492187,16.7747396 8.39492187,16.1367188 C8.39492187,15.4986979 8.51731771,15.0175781 8.76210937,14.6933594 C9.00690104,14.3691406 9.37018229,14.2070312 9.85195312,14.2070312 C10.8128906,14.2070312 11.2933594,14.8502604 11.2933594,16.1367188 C11.2933594,17.4205729 10.8102865,18.0625 9.84414062,18.0625 Z M15.9589844,19.078125 C16.5371094,19.078125 17.0605469,18.9804688 17.5292969,18.7851562 L17.5292969,18.7851562 L17.5292969,17.7695312 C16.9589844,17.9700521 16.4733073,18.0703125 16.0722656,18.0703125 C15.1165365,18.0703125 14.6386719,17.4335938 14.6386719,16.1601562 C14.6386719,15.5481771 14.7636719,15.0709635 15.0136719,14.7285156 C15.2636719,14.3860677 15.6165365,14.2148438 16.0722656,14.2148438 C16.280599,14.2148438 16.4928385,14.2526042 16.7089844,14.328125 C16.9251302,14.4036458 17.139974,14.4921875 17.3535156,14.59375 L17.3535156,14.59375 L17.7441406,13.609375 C17.1842448,13.3411458 16.6269531,13.2070312 16.0722656,13.2070312 C15.5279948,13.2070312 15.0533854,13.3261719 14.6484375,13.5644531 C14.2434896,13.8027344 13.9329427,14.1451823 13.7167969,14.5917969 C13.500651,15.0384115 13.3925781,15.5585938 13.3925781,16.1523438 C13.3925781,17.0950521 13.6126302,17.8183594 14.0527344,18.3222656 C14.4928385,18.8261719 15.1282552,19.078125 15.9589844,19.078125 Z M19.2222656,19 L20.5503906,16.8398438 L21.8785156,19 L23.2613281,19 L21.3316406,16.1210938 L23.1246094,13.2890625 L21.8199219,13.2890625 L20.6128906,15.34375 L19.3824219,13.2890625 L18.0464844,13.2890625 L19.8199219,16.0546875 L17.9253906,19 L19.2222656,19 Z" fill="#3A9EF2" fill-rule="nonzero"></path>
                </g>
            </g>
        </g>
    </g>
</svg>