<?xml version="1.0" encoding="UTF-8"?>
<svg width="25px" height="30px" viewBox="0 0 25 30" version="1.1" xmlns="http://www.w3.org/2000/svg" xmlns:xlink="http://www.w3.org/1999/xlink">
    <title>JpegIcon</title>
    <defs>
        <path d="M14,7.10542736e-15 L20.3232233,7.10542736e-15 C22.2562199,7.10542736e-15 24,1.74378007 24,3.6767767 L24,10 L14,7.10542736e-15 Z" id="JpegPath"></path>
        <filter x="-20.0%" y="-30.0%" width="140.0%" height="140.0%" filterUnits="objectBoundingBox" id="JpegFilter">
            <feOffset dx="0" dy="-1" in="SourceAlpha" result="shadowOffsetOuter1"></feOffset>
            <feGaussianBlur stdDeviation="0.5" in="shadowOffsetOuter1" result="shadowBlurOuter1"></feGaussianBlur>
            <feColorMatrix values="0 0 0 0 0   0 0 0 0 0   0 0 0 0 0  0 0 0 0.0967221467 0" type="matrix" in="shadowBlurOuter1"></feColorMatrix>
        </filter>
    </defs>
    <g id="JpegIcons" stroke="none" stroke-width="1" fill="none" fill-rule="evenodd">
        <g id="Jpeg-File-Type-Icons" transform="translate(-599.000000, -160.000000)">
            <g id="Jpeg-row-1-icons" transform="translate(74.000000, 160.000000)">
                <g id="JPEG" transform="translate(525.000000, 0.000000)">
                    <path d="M13.7928932,0.5 L23.5,10.2071068 L23.5,26.5 C23.5,27.3308348 23.178153,28.0838496 22.6551851,28.6286078 C22.1394543,29.1658275 21.4275107,29.5 20.64,29.5 L20.64,29.5 L3.36,29.5 C2.57248933,29.5 1.86054572,29.1658275 1.34481488,28.6286078 C0.821846959,28.0838496 0.5,27.3308348 0.5,26.5 L0.5,26.5 L0.5,3.5 C0.5,2.66916525 0.821846959,1.91615043 1.34481488,1.37139218 C1.86054572,0.834172547 2.57248933,0.5 3.36,0.5 L3.36,0.5 L13.7928932,0.5 Z" id="page-JPEG" stroke="#30BEC3" fill="#FFFFFF"></path>
                    <g id="curl-JPEG" transform="translate(19.000000, 5.000000) scale(-1, -1) translate(-19.000000, -5.000000) ">
                        <use fill="black" fill-opacity="1" filter="url(#JpegFilter)" xlink:href="#JpegPath"></use>
                        <use fill="#118387" fill-rule="evenodd" xlink:href="#JpegPath"></use>
                    </g>
                    <path d="M3.3484375,20.6796875 C3.94479167,20.6796875 4.3953125,20.5052083 4.7,20.15625 C5.0046875,19.8072917 5.15703125,19.2994792 5.15703125,18.6328125 L5.15703125,18.6328125 L5.15703125,13.2890625 L3.94609375,13.2890625 L3.94609375,18.640625 C3.94609375,18.9921875 3.88880208,19.250651 3.77421875,19.4160156 C3.65963542,19.5813802 3.46953125,19.6640625 3.20390625,19.6640625 C3.03203125,19.6640625 2.84192708,19.6380208 2.63359375,19.5859375 L2.63359375,19.5859375 L2.63359375,20.59375 C2.83671875,20.6510417 3.075,20.6796875 3.3484375,20.6796875 Z M7.70546875,19 L7.70546875,16.96875 L8.225,16.96875 C8.93333333,16.96875 9.47955729,16.8059896 9.86367187,16.4804688 C10.2477865,16.1549479 10.4398437,15.6848958 10.4398437,15.0703125 C10.4398437,14.4791667 10.2595052,14.0345052 9.89882812,13.7363281 C9.53815104,13.438151 9.01145833,13.2890625 8.31875,13.2890625 L8.31875,13.2890625 L6.49453125,13.2890625 L6.49453125,19 L7.70546875,19 Z M8.10390625,15.9765625 L7.70546875,15.9765625 L7.70546875,14.28125 L8.25625,14.28125 C8.58697917,14.28125 8.82981771,14.3489583 8.98476562,14.484375 C9.13971354,14.6197917 9.2171875,14.8294271 9.2171875,15.1132812 C9.2171875,15.3945312 9.12473958,15.608724 8.93984375,15.7558594 C8.75494792,15.9029948 8.47630208,15.9765625 8.10390625,15.9765625 L8.10390625,15.9765625 Z M14.7070312,19 L14.7070312,18 L12.6289062,18 L12.6289062,16.5273438 L14.5625,16.5273438 L14.5625,15.5351562 L12.6289062,15.5351562 L12.6289062,14.28125 L14.7070312,14.28125 L14.7070312,13.2890625 L11.4179687,13.2890625 L11.4179687,19 L14.7070312,19 Z M18.2007812,19.078125 C18.5393229,19.078125 18.8707031,19.0540365 19.1949219,19.0058594 C19.5191406,18.9576823 19.8648437,18.8736979 20.2320312,18.7539062 L20.2320312,18.7539062 L20.2320312,15.7929688 L17.9664062,15.7929688 L17.9664062,16.8007812 L19.0484375,16.8007812 L19.0484375,17.9921875 C18.7880208,18.0442708 18.5315104,18.0703125 18.2789062,18.0703125 C17.7945312,18.0703125 17.4253906,17.906901 17.1714844,17.5800781 C16.9175781,17.2532552 16.790625,16.7799479 16.790625,16.1601562 C16.790625,15.5664062 16.9481771,15.09375 17.2632812,14.7421875 C17.5783854,14.390625 17.9976562,14.2148438 18.5210937,14.2148438 C18.9716146,14.2148438 19.4052083,14.3190104 19.821875,14.5273438 L19.821875,14.5273438 L20.2242187,13.5585938 C19.6799479,13.3242188 19.1148437,13.2070312 18.5289062,13.2070312 C17.5940104,13.2070312 16.8628906,13.4648438 16.3355469,13.9804688 C15.8082031,14.4960938 15.5445312,15.2148438 15.5445312,16.1367188 C15.5445312,17.0846354 15.7717448,17.811849 16.2261719,18.3183594 C16.680599,18.8248698 17.3388021,19.078125 18.2007812,19.078125 Z" fill="#30BEC3" fill-rule="nonzero"></path>
                </g>
            </g>
        </g>
    </g>
</svg>