<?xml version="1.0" encoding="UTF-8"?>
<svg width="25px" height="30px" viewBox="0 0 25 30" version="1.1" xmlns="http://www.w3.org/2000/svg" xmlns:xlink="http://www.w3.org/1999/xlink">
    <title>JpgIcon</title>
    <defs>
        <path d="M14,7.10542736e-15 L20.3232233,7.10542736e-15 C22.2562199,7.10542736e-15 24,1.74378007 24,3.6767767 L24,10 L14,7.10542736e-15 Z" id="JpgPath"></path>
        <filter x="-20.0%" y="-30.0%" width="140.0%" height="140.0%" filterUnits="objectBoundingBox" id="JpgFilter">
            <feOffset dx="0" dy="-1" in="SourceAlpha" result="shadowOffsetOuter1"></feOffset>
            <feGaussianBlur stdDeviation="0.5" in="shadowOffsetOuter1" result="shadowBlurOuter1"></feGaussianBlur>
            <feColorMatrix values="0 0 0 0 0   0 0 0 0 0   0 0 0 0 0  0 0 0 0.0967221467 0" type="matrix" in="shadowBlurOuter1"></feColorMatrix>
        </filter>
    </defs>
    <g id="JpgIcons" stroke="none" stroke-width="1" fill="none" fill-rule="evenodd">
        <g id="Jpg-File-Type-Icons" transform="translate(-524.000000, -160.000000)">
            <g id="Jpg-row-1-icons" transform="translate(74.000000, 160.000000)">
                <g id="JPG" transform="translate(450.000000, 0.000000)">
                    <path d="M13.7928932,0.5 L23.5,10.2071068 L23.5,26.5 C23.5,27.3308348 23.178153,28.0838496 22.6551851,28.6286078 C22.1394543,29.1658275 21.4275107,29.5 20.64,29.5 L20.64,29.5 L3.36,29.5 C2.57248933,29.5 1.86054572,29.1658275 1.34481488,28.6286078 C0.821846959,28.0838496 0.5,27.3308348 0.5,26.5 L0.5,26.5 L0.5,3.5 C0.5,2.66916525 0.821846959,1.91615043 1.34481488,1.37139218 C1.86054572,0.834172547 2.57248933,0.5 3.36,0.5 L3.36,0.5 L13.7928932,0.5 Z" id="page-JPG" stroke="#30BEC3" fill="#FFFFFF"></path>
                    <g id="curl-JPG" transform="translate(19.000000, 5.000000) scale(-1, -1) translate(-19.000000, -5.000000) ">
                        <use fill="black" fill-opacity="1" filter="url(#JpgFilter)" xlink:href="#JpgPath"></use>
                        <use fill="#118387" fill-rule="evenodd" xlink:href="#JpgPath"></use>
                    </g>
                    <path d="M5.53867188,20.6796875 C6.13502604,20.6796875 6.58554688,20.5052083 6.89023438,20.15625 C7.19492188,19.8072917 7.34726563,19.2994792 7.34726563,18.6328125 L7.34726563,18.6328125 L7.34726563,13.2890625 L6.13632813,13.2890625 L6.13632813,18.640625 C6.13632813,18.9921875 6.07903646,19.250651 5.96445313,19.4160156 C5.84986979,19.5813802 5.65976563,19.6640625 5.39414063,19.6640625 C5.22226563,19.6640625 5.03216146,19.6380208 4.82382813,19.5859375 L4.82382813,19.5859375 L4.82382813,20.59375 C5.02695313,20.6510417 5.26523438,20.6796875 5.53867188,20.6796875 Z M9.89570313,19 L9.89570313,16.96875 L10.4152344,16.96875 C11.1235677,16.96875 11.6697917,16.8059896 12.0539063,16.4804688 C12.4380208,16.1549479 12.6300781,15.6848958 12.6300781,15.0703125 C12.6300781,14.4791667 12.4497396,14.0345052 12.0890625,13.7363281 C11.7283854,13.438151 11.2016927,13.2890625 10.5089844,13.2890625 L10.5089844,13.2890625 L8.68476563,13.2890625 L8.68476563,19 L9.89570313,19 Z M10.2941406,15.9765625 L9.89570313,15.9765625 L9.89570313,14.28125 L10.4464844,14.28125 C10.7772135,14.28125 11.0200521,14.3489583 11.175,14.484375 C11.3299479,14.6197917 11.4074219,14.8294271 11.4074219,15.1132812 C11.4074219,15.3945312 11.314974,15.608724 11.1300781,15.7558594 C10.9451823,15.9029948 10.6665365,15.9765625 10.2941406,15.9765625 L10.2941406,15.9765625 Z M16.0105469,19.078125 C16.3490885,19.078125 16.6804688,19.0540365 17.0046875,19.0058594 C17.3289063,18.9576823 17.6746094,18.8736979 18.0417969,18.7539062 L18.0417969,18.7539062 L18.0417969,15.7929688 L15.7761719,15.7929688 L15.7761719,16.8007812 L16.8582031,16.8007812 L16.8582031,17.9921875 C16.5977865,18.0442708 16.341276,18.0703125 16.0886719,18.0703125 C15.6042969,18.0703125 15.2351563,17.906901 14.98125,17.5800781 C14.7273438,17.2532552 14.6003906,16.7799479 14.6003906,16.1601562 C14.6003906,15.5664062 14.7579427,15.09375 15.0730469,14.7421875 C15.388151,14.390625 15.8074219,14.2148438 16.3308594,14.2148438 C16.7813802,14.2148438 17.214974,14.3190104 17.6316406,14.5273438 L17.6316406,14.5273438 L18.0339844,13.5585938 C17.4897135,13.3242188 16.9246094,13.2070312 16.3386719,13.2070312 C15.403776,13.2070312 14.6726563,13.4648438 14.1453125,13.9804688 C13.6179688,14.4960938 13.3542969,15.2148438 13.3542969,16.1367188 C13.3542969,17.0846354 13.5815104,17.811849 14.0359375,18.3183594 C14.4903646,18.8248698 15.1485677,19.078125 16.0105469,19.078125 Z" fill="#30BEC3" fill-rule="nonzero"></path>
                </g>
            </g>
        </g>
    </g>
</svg>