<?xml version="1.0" encoding="UTF-8"?>
<svg width="25px" height="30px" viewBox="0 0 25 30" version="1.1" xmlns="http://www.w3.org/2000/svg" xmlns:xlink="http://www.w3.org/1999/xlink">
    <title>PdfIcon</title>
    <defs>
        <path d="M14,7.10542736e-15 L20.3232233,7.10542736e-15 C22.2562199,7.10542736e-15 24,1.74378007 24,3.6767767 L24,10 L14,7.10542736e-15 Z" id="PdfPath"></path>
        <filter x="-20.0%" y="-30.0%" width="140.0%" height="140.0%" filterUnits="objectBoundingBox" id="PdfFilter">
            <feOffset dx="0" dy="-1" in="SourceAlpha" result="shadowOffsetOuter1"></feOffset>
            <feGaussianBlur stdDeviation="0.5" in="shadowOffsetOuter1" result="shadowBlurOuter1"></feGaussianBlur>
            <feColorMatrix values="0 0 0 0 0   0 0 0 0 0   0 0 0 0 0  0 0 0 0.0967221467 0" type="matrix" in="shadowBlurOuter1"></feColorMatrix>
        </filter>
    </defs>
    <g id="PdfIcons" stroke="none" stroke-width="1" fill="none" fill-rule="evenodd">
        <g id="Pdf-File-Type-Icons" transform="translate(-74.000000, -160.000000)">
            <g id="PDF" transform="translate(74.000000, 160.000000)">
                <path d="M13.7928932,0.5 L23.5,10.2071068 L23.5,26.5 C23.5,27.3308348 23.178153,28.0838496 22.6551851,28.6286078 C22.1394543,29.1658275 21.4275107,29.5 20.64,29.5 L20.64,29.5 L3.36,29.5 C2.57248933,29.5 1.86054572,29.1658275 1.34481488,28.6286078 C0.821846959,28.0838496 0.5,27.3308348 0.5,26.5 L0.5,26.5 L0.5,3.5 C0.5,2.66916525 0.821846959,1.91615043 1.34481488,1.37139218 C1.86054572,0.834172547 2.57248933,0.5 3.36,0.5 L3.36,0.5 L13.7928932,0.5 Z" id="page-border-PDF" stroke="#E94856" fill="#FFFFFF"></path>
                <g id="curl-PDF" transform="translate(19.000000, 5.000000) scale(-1, -1) translate(-19.000000, -5.000000) ">
                    <use fill="black" fill-opacity="1" filter="url(#PdfFilter)" xlink:href="#PdfPath"></use>
                    <use fill="#B53843" fill-rule="evenodd" xlink:href="#PdfPath"></use>
                </g>
                <path d="M6.41171875,19 L6.41171875,16.96875 L6.93125,16.96875 C7.63958333,16.96875 8.18580729,16.8059896 8.56992188,16.4804688 C8.95403646,16.1549479 9.14609375,15.6848958 9.14609375,15.0703125 C9.14609375,14.4791667 8.96575521,14.0345052 8.60507813,13.7363281 C8.24440104,13.438151 7.71770833,13.2890625 7.025,13.2890625 L7.025,13.2890625 L5.20078125,13.2890625 L5.20078125,19 L6.41171875,19 Z M6.81015625,15.9765625 L6.41171875,15.9765625 L6.41171875,14.28125 L6.9625,14.28125 C7.29322917,14.28125 7.53606771,14.3489583 7.69101563,14.484375 C7.84596354,14.6197917 7.9234375,14.8294271 7.9234375,15.1132812 C7.9234375,15.3945312 7.83098958,15.608724 7.64609375,15.7558594 C7.46119792,15.9029948 7.18255208,15.9765625 6.81015625,15.9765625 L6.81015625,15.9765625 Z M11.7414063,19 C12.7518229,19 13.5246094,18.75 14.0597656,18.25 C14.5949219,17.75 14.8625,17.0299479 14.8625,16.0898438 C14.8625,15.2070312 14.6046875,14.5195312 14.0890625,14.0273438 C13.5734375,13.5351562 12.8494792,13.2890625 11.9171875,13.2890625 L11.9171875,13.2890625 L10.1242188,13.2890625 L10.1242188,19 L11.7414063,19 Z M11.8546875,18 L11.3351563,18 L11.3351563,14.28125 L11.9796875,14.28125 C13.0630208,14.28125 13.6046875,14.8945312 13.6046875,16.1210938 C13.6046875,17.3736979 13.0213542,18 11.8546875,18 L11.8546875,18 Z M17.1375,19 L17.1375,16.7421875 L19.075,16.7421875 L19.075,15.7539062 L17.1375,15.7539062 L17.1375,14.28125 L19.2195313,14.28125 L19.2195313,13.2890625 L15.9460938,13.2890625 L15.9460938,19 L17.1375,19 Z" fill="#E94856" fill-rule="nonzero"></path>
            </g>
        </g>
    </g>
</svg>