<?xml version="1.0" encoding="UTF-8"?>
<svg width="25px" height="30px" viewBox="0 0 25 30" version="1.1" xmlns="http://www.w3.org/2000/svg" xmlns:xlink="http://www.w3.org/1999/xlink">
    <title>PFPPptxIcon</title>
    <defs>
        <linearGradient x1="26.00625%" y1="100%" x2="82%" y2="0%" id="PptxLinearGradient">
            <stop stop-color="#969DA9" offset="0%"></stop>
            <stop stop-color="#646A78" offset="100%"></stop>
        </linearGradient>
        <path d="M14,7.10542736e-15 L20.3232233,7.10542736e-15 C22.2562199,7.10542736e-15 24,1.74378007 24,3.6767767 L24,10 L14,7.10542736e-15 Z" id="PptxPath1"></path>
        <filter x="-20.0%" y="-30.0%" width="140.0%" height="140.0%" filterUnits="objectBoundingBox" id="PptxFilter1">
            <feOffset dx="0" dy="-1" in="SourceAlpha" result="shadowOffsetOuter1"></feOffset>
            <feGaussianBlur stdDeviation="0.5" in="shadowOffsetOuter1" result="shadowBlurOuter1"></feGaussianBlur>
            <feColorMatrix values="0 0 0 0 0   0 0 0 0 0   0 0 0 0 0  0 0 0 0.0967221467 0" type="matrix" in="shadowBlurOuter1"></feColorMatrix>
        </filter>
        <path d="M7.00177723,0.576071453 C8.89993353,0.576071453 10.2020226,2.0950315 10.2020226,4.07794659 L10.2012083,4.67007145 L11.0804583,4.67038596 C11.8858736,4.67038596 12.5387917,5.32330404 12.5387917,6.1287193 L12.5387917,11.9655952 C12.5387917,12.7710105 11.8858736,13.4239285 11.0804583,13.4239285 L2.91954168,13.4239285 C2.11412642,13.4239285 1.46120834,12.7710105 1.46120834,11.9655952 L1.46120834,6.1287193 C1.46120834,5.32330404 2.11412642,4.67038596 2.91954168,4.67038596 L3.78420834,4.67007145 L3.78512446,4.07794659 C3.78512446,2.09829723 5.10183521,0.576071453 7.00177723,0.576071453 Z M8.42051634,7 C8.13723605,7 7.90753911,7.22583512 7.90753911,7.50429082 C7.90753911,8.68373457 7.14232342,9.27283737 6.56997004,9.54850728 L6.56997004,7.09471703 L5.54407856,7.09471703 L5.54407856,10.8736172 L6.15622592,10.7550042 C7.1168855,10.5687893 8.93349357,9.64984831 8.93349357,7.50429082 C8.93349357,7.22583512 8.7038596,7 8.42051634,7 Z M7.00177723,1.74273812 C5.78679565,1.74273812 4.95179113,2.70807193 4.95179113,4.07794659 L4.95120834,4.67007145 L9.03520834,4.67007145 L9.03535589,4.07794659 C9.03535589,2.70289625 8.21228529,1.74273812 7.00177723,1.74273812 Z" id="PptxPath2"></path>
    </defs>
    <g id="PFP-Pptx-Icons" stroke="none" stroke-width="1" fill="none" fill-rule="evenodd">
        <g id="PFP-Pptx-File-Type-Icons" transform="translate(-301.000000, -300.000000)">
            <g id="PFP-Pptx-row-2-icons" transform="translate(74.000000, 300.000000)">
                <g id="PFP-PPTX" transform="translate(227.000000, 0.000000)">
                    <path d="M14,0 L24,10 L24,26.5 C24,28.4329966 22.4956768,30 20.64,30 L3.36,30 C1.50432324,30 0,28.4329966 0,26.5 L0,3.5 C0,1.56700338 1.50432324,0 3.36,0 L14,0 Z" id="page-PFP-PPTX" fill="url(#PptxLinearGradient)"></path>
                    <g id="curl-PFP-PPTX" transform="translate(19.000000, 5.000000) scale(-1, -1) translate(-19.000000, -5.000000) ">
                        <use fill="black" fill-opacity="1" filter="url(#PptxFilter1)" xlink:href="#PptxPath1"></use>
                        <use fill="#393C44" fill-rule="evenodd" xlink:href="#PptxPath1"></use>
                    </g>
                    <g id="PFP-Pptx-Encrypted-solid-24" transform="translate(5.000000, 7.000000)">
                        <mask id="PFP-Pptx-mask-5" fill="white">
                            <use xlink:href="#PptxPath2"></use>
                        </mask>
                        <use id="PFP-Pptx-Icon" fill="#FFFFFF" fill-rule="nonzero" xlink:href="#PptxPath2"></use>
                    </g>
                    <path d="M5.94140625,27 L5.94140625,25.4765625 L6.33105469,25.4765625 C6.86230469,25.4765625 7.27197266,25.3544922 7.56005859,25.1103516 C7.84814453,24.8662109 7.9921875,24.5136719 7.9921875,24.0527344 C7.9921875,23.609375 7.85693359,23.2758789 7.58642578,23.0522461 C7.31591797,22.8286133 6.92089844,22.7167969 6.40136719,22.7167969 L6.40136719,22.7167969 L5.03320312,22.7167969 L5.03320312,27 L5.94140625,27 Z M6.24023438,24.7324219 L5.94140625,24.7324219 L5.94140625,23.4609375 L6.35449219,23.4609375 C6.60253906,23.4609375 6.78466797,23.5117188 6.90087891,23.6132812 C7.01708984,23.7148438 7.07519531,23.8720703 7.07519531,24.0849609 C7.07519531,24.2958984 7.00585938,24.456543 6.8671875,24.5668945 C6.72851562,24.6772461 6.51953125,24.7324219 6.24023438,24.7324219 L6.24023438,24.7324219 Z M9.70898438,27 L9.70898438,25.4765625 L10.0986328,25.4765625 C10.6298828,25.4765625 11.0395508,25.3544922 11.3276367,25.1103516 C11.6157227,24.8662109 11.7597656,24.5136719 11.7597656,24.0527344 C11.7597656,23.609375 11.6245117,23.2758789 11.3540039,23.0522461 C11.0834961,22.8286133 10.6884766,22.7167969 10.1689453,22.7167969 L10.1689453,22.7167969 L8.80078125,22.7167969 L8.80078125,27 L9.70898438,27 Z M10.0078125,24.7324219 L9.70898438,24.7324219 L9.70898438,23.4609375 L10.1220703,23.4609375 C10.3701172,23.4609375 10.5522461,23.5117188 10.668457,23.6132812 C10.784668,23.7148438 10.8427734,23.8720703 10.8427734,24.0849609 C10.8427734,24.2958984 10.7734375,24.456543 10.6347656,24.5668945 C10.4960938,24.6772461 10.2871094,24.7324219 10.0078125,24.7324219 L10.0078125,24.7324219 Z M14.2207031,27 L14.2207031,23.4726562 L15.3837891,23.4726562 L15.3837891,22.7167969 L12.1494141,22.7167969 L12.1494141,23.4726562 L13.3125,23.4726562 L13.3125,27 L14.2207031,27 Z M16.4765625,27 L17.4726562,25.3798828 L18.46875,27 L19.5058594,27 L18.0585938,24.8408203 L19.4033203,22.7167969 L18.4248047,22.7167969 L17.5195312,24.2578125 L16.5966797,22.7167969 L15.5947266,22.7167969 L16.9248047,24.7910156 L15.5039062,27 L16.4765625,27 Z" fill="#FFFFFF" fill-rule="nonzero"></path>
                </g>
            </g>
        </g>
    </g>
</svg>