<?xml version="1.0" encoding="UTF-8"?>
<svg width="25px" height="30px" viewBox="0 0 25 30" version="1.1" xmlns="http://www.w3.org/2000/svg" xmlns:xlink="http://www.w3.org/1999/xlink">
    <title>PFPJpegIcon</title>
    <defs>
        <linearGradient x1="26.00625%" y1="100%" x2="82%" y2="0%" id="JpegLinearGradient">
            <stop stop-color="#969DA9" offset="0%"></stop>
            <stop stop-color="#646A78" offset="100%"></stop>
        </linearGradient>
        <path d="M14,7.10542736e-15 L20.3232233,7.10542736e-15 C22.2562199,7.10542736e-15 24,1.74378007 24,3.6767767 L24,10 L14,7.10542736e-15 Z" id="JpegPath1"></path>
        <filter x="-20.0%" y="-30.0%" width="140.0%" height="140.0%" filterUnits="objectBoundingBox" id="JpegFilter1">
            <feOffset dx="0" dy="-1" in="SourceAlpha" result="shadowOffsetOuter1"></feOffset>
            <feGaussianBlur stdDeviation="0.5" in="shadowOffsetOuter1" result="shadowBlurOuter1"></feGaussianBlur>
            <feColorMatrix values="0 0 0 0 0   0 0 0 0 0   0 0 0 0 0  0 0 0 0.0967221467 0" type="matrix" in="shadowBlurOuter1"></feColorMatrix>
        </filter>
        <path d="M7.00177723,0.576071453 C8.89993353,0.576071453 10.2020226,2.0950315 10.2020226,4.07794659 L10.2012083,4.67007145 L11.0804583,4.67038596 C11.8858736,4.67038596 12.5387917,5.32330404 12.5387917,6.1287193 L12.5387917,11.9655952 C12.5387917,12.7710105 11.8858736,13.4239285 11.0804583,13.4239285 L2.91954168,13.4239285 C2.11412642,13.4239285 1.46120834,12.7710105 1.46120834,11.9655952 L1.46120834,6.1287193 C1.46120834,5.32330404 2.11412642,4.67038596 2.91954168,4.67038596 L3.78420834,4.67007145 L3.78512446,4.07794659 C3.78512446,2.09829723 5.10183521,0.576071453 7.00177723,0.576071453 Z M8.42051634,7 C8.13723605,7 7.90753911,7.22583512 7.90753911,7.50429082 C7.90753911,8.68373457 7.14232342,9.27283737 6.56997004,9.54850728 L6.56997004,7.09471703 L5.54407856,7.09471703 L5.54407856,10.8736172 L6.15622592,10.7550042 C7.1168855,10.5687893 8.93349357,9.64984831 8.93349357,7.50429082 C8.93349357,7.22583512 8.7038596,7 8.42051634,7 Z M7.00177723,1.74273812 C5.78679565,1.74273812 4.95179113,2.70807193 4.95179113,4.07794659 L4.95120834,4.67007145 L9.03520834,4.67007145 L9.03535589,4.07794659 C9.03535589,2.70289625 8.21228529,1.74273812 7.00177723,1.74273812 Z" id="JpegPath2"></path>
    </defs>
    <g id="PFP-Jpeg-Icons" stroke="none" stroke-width="1" fill="none" fill-rule="evenodd">
        <g id="PFP-Jpeg-File-Type-Icons" transform="translate(-599.000000, -300.000000)">
            <g id="PFP-Jpeg-row-2-icons" transform="translate(74.000000, 300.000000)">
                <g id="PFP-JPEG" transform="translate(525.000000, 0.000000)">
                    <path d="M14,0 L24,10 L24,26.5 C24,28.4329966 22.4956768,30 20.64,30 L3.36,30 C1.50432324,30 0,28.4329966 0,26.5 L0,3.5 C0,1.56700338 1.50432324,0 3.36,0 L14,0 Z" id="page-PFP-JPEG" fill="url(#JpegLinearGradient)"></path>
                    <g id="curl-PFP-JPEG" transform="translate(19.000000, 5.000000) scale(-1, -1) translate(-19.000000, -5.000000) ">
                        <use fill="black" fill-opacity="1" filter="url(#JpegFilter1)" xlink:href="#JpegPath1"></use>
                        <use fill="#393C44" fill-rule="evenodd" xlink:href="#JpegPath1"></use>
                    </g>
                    <g id="PFP-Jpeg-Encrypted-solid-24" transform="translate(5.000000, 7.000000)">
                        <mask id="PFP-Jpeg-mask-5" fill="white">
                            <use xlink:href="#JpegPath2"></use>
                        </mask>
                        <use id="PFP-Jpeg-Icon" fill="#FFFFFF" fill-rule="nonzero" xlink:href="#JpegPath2"></use>
                    </g>
                    <path d="M5.36132812,28.2597656 C5.80859375,28.2597656 6.14648438,28.1289062 6.375,27.8671875 C6.60351562,27.6054688 6.71777344,27.2246094 6.71777344,26.7246094 L6.71777344,26.7246094 L6.71777344,22.7167969 L5.80957031,22.7167969 L5.80957031,26.7304688 C5.80957031,26.9941406 5.76660156,27.1879883 5.68066406,27.3120117 C5.59472656,27.4360352 5.45214844,27.4980469 5.25292969,27.4980469 C5.12402344,27.4980469 4.98144531,27.4785156 4.82519531,27.4394531 L4.82519531,27.4394531 L4.82519531,28.1953125 C4.97753906,28.2382812 5.15625,28.2597656 5.36132812,28.2597656 Z M8.70410156,27 L8.70410156,25.4765625 L9.09375,25.4765625 C9.625,25.4765625 10.034668,25.3544922 10.3227539,25.1103516 C10.6108398,24.8662109 10.7548828,24.5136719 10.7548828,24.0527344 C10.7548828,23.609375 10.6196289,23.2758789 10.3491211,23.0522461 C10.0786133,22.8286133 9.68359375,22.7167969 9.1640625,22.7167969 L9.1640625,22.7167969 L7.79589844,22.7167969 L7.79589844,27 L8.70410156,27 Z M9.00292969,24.7324219 L8.70410156,24.7324219 L8.70410156,23.4609375 L9.1171875,23.4609375 C9.36523438,23.4609375 9.54736328,23.5117188 9.66357422,23.6132812 C9.77978516,23.7148438 9.83789062,23.8720703 9.83789062,24.0849609 C9.83789062,24.2958984 9.76855469,24.456543 9.62988281,24.5668945 C9.49121094,24.6772461 9.28222656,24.7324219 9.00292969,24.7324219 L9.00292969,24.7324219 Z M14.0302734,27 L14.0302734,26.25 L12.4716797,26.25 L12.4716797,25.1455078 L13.921875,25.1455078 L13.921875,24.4013672 L12.4716797,24.4013672 L12.4716797,23.4609375 L14.0302734,23.4609375 L14.0302734,22.7167969 L11.5634766,22.7167969 L11.5634766,27 L14.0302734,27 Z M16.7255859,27.0585938 C16.9794922,27.0585938 17.2280273,27.0405273 17.4711914,27.0043945 C17.7143555,26.9682617 17.9736328,26.9052734 18.2490234,26.8154297 L18.2490234,26.8154297 L18.2490234,24.5947266 L16.5498047,24.5947266 L16.5498047,25.3505859 L17.3613281,25.3505859 L17.3613281,26.2441406 C17.1660156,26.2832031 16.9736328,26.3027344 16.7841797,26.3027344 C16.4208984,26.3027344 16.144043,26.1801758 15.9536133,25.9350586 C15.7631836,25.6899414 15.6679688,25.3349609 15.6679688,24.8701172 C15.6679688,24.4248047 15.7861328,24.0703125 16.0224609,23.8066406 C16.2587891,23.5429688 16.5732422,23.4111328 16.9658203,23.4111328 C17.3037109,23.4111328 17.6289062,23.4892578 17.9414062,23.6455078 L17.9414062,23.6455078 L18.2431641,22.9189453 C17.8349609,22.7431641 17.4111328,22.6552734 16.9716797,22.6552734 C16.2705078,22.6552734 15.722168,22.8486328 15.3266602,23.2353516 C14.9311523,23.6220703 14.7333984,24.1611328 14.7333984,24.8525391 C14.7333984,25.5634766 14.9038086,26.1088867 15.2446289,26.4887695 C15.5854492,26.8686523 16.0791016,27.0585938 16.7255859,27.0585938 Z" fill="#FFFFFF" fill-rule="nonzero"></path>
                </g>
            </g>
        </g>
    </g>
</svg>