<?xml version="1.0" encoding="UTF-8"?>
<svg width="25px" height="30px" viewBox="0 0 25 30" version="1.1" xmlns="http://www.w3.org/2000/svg" xmlns:xlink="http://www.w3.org/1999/xlink">
    <title>PFPDocxIcon</title>
    <defs>
        <linearGradient x1="26.00625%" y1="100%" x2="82%" y2="0%" id="DocxLinearGradient">
            <stop stop-color="#969DA9" offset="0%"></stop>
            <stop stop-color="#646A78" offset="100%"></stop>
        </linearGradient>
        <path d="M14,7.10542736e-15 L20.3232233,7.10542736e-15 C22.2562199,7.10542736e-15 24,1.74378007 24,3.6767767 L24,10 L14,7.10542736e-15 Z" id="DocxPath1"></path>
        <filter x="-20.0%" y="-30.0%" width="140.0%" height="140.0%" filterUnits="objectBoundingBox" id="DocxFilter1">
            <feOffset dx="0" dy="-1" in="SourceAlpha" result="shadowOffsetOuter1"></feOffset>
            <feGaussianBlur stdDeviation="0.5" in="shadowOffsetOuter1" result="shadowBlurOuter1"></feGaussianBlur>
            <feColorMatrix values="0 0 0 0 0   0 0 0 0 0   0 0 0 0 0  0 0 0 0.0967221467 0" type="matrix" in="shadowBlurOuter1"></feColorMatrix>
        </filter>
        <path d="M7.00177723,0.576071453 C8.89993353,0.576071453 10.2020226,2.0950315 10.2020226,4.07794659 L10.2012083,4.67007145 L11.0804583,4.67038596 C11.8858736,4.67038596 12.5387917,5.32330404 12.5387917,6.1287193 L12.5387917,11.9655952 C12.5387917,12.7710105 11.8858736,13.4239285 11.0804583,13.4239285 L2.91954168,13.4239285 C2.11412642,13.4239285 1.46120834,12.7710105 1.46120834,11.9655952 L1.46120834,6.1287193 C1.46120834,5.32330404 2.11412642,4.67038596 2.91954168,4.67038596 L3.78420834,4.67007145 L3.78512446,4.07794659 C3.78512446,2.09829723 5.10183521,0.576071453 7.00177723,0.576071453 Z M8.42051634,7 C8.13723605,7 7.90753911,7.22583512 7.90753911,7.50429082 C7.90753911,8.68373457 7.14232342,9.27283737 6.56997004,9.54850728 L6.56997004,7.09471703 L5.54407856,7.09471703 L5.54407856,10.8736172 L6.15622592,10.7550042 C7.1168855,10.5687893 8.93349357,9.64984831 8.93349357,7.50429082 C8.93349357,7.22583512 8.7038596,7 8.42051634,7 Z M7.00177723,1.74273812 C5.78679565,1.74273812 4.95179113,2.70807193 4.95179113,4.07794659 L4.95120834,4.67007145 L9.03520834,4.67007145 L9.03535589,4.07794659 C9.03535589,2.70289625 8.21228529,1.74273812 7.00177723,1.74273812 Z" id="DocxPath2"></path>
    </defs>
    <g id="PFP-Docx-Icons" stroke="none" stroke-width="1" fill="none" fill-rule="evenodd">
        <g id="PFP-Docx-File-Type-Icons" transform="translate(-151.000000, -300.000000)">
            <g id="PFP-Docx-row-2-icons" transform="translate(74.000000, 300.000000)">
                <g id="PFP-DOCX" transform="translate(77.000000, 0.000000)">
                    <path d="M14,0 L24,10 L24,26.5 C24,28.4329966 22.4956768,30 20.64,30 L3.36,30 C1.50432324,30 0,28.4329966 0,26.5 L0,3.5 C0,1.56700338 1.50432324,0 3.36,0 L14,0 Z" id="page-PFP-DOCX" fill="url(#DocxLinearGradient)"></path>
                    <g id="curl-PFP-DOCX" transform="translate(19.000000, 5.000000) scale(-1, -1) translate(-19.000000, -5.000000) ">
                        <use fill="black" fill-opacity="1" filter="url(#DocxFilter1)" xlink:href="#DocxPath1"></use>
                        <use fill="#393C44" fill-rule="evenodd" xlink:href="#DocxPath1"></use>
                    </g>
                    <g id="PFP-Docx-Encrypted-solid-24" transform="translate(5.000000, 7.000000)">
                        <mask id="PFP-Docx-mask-5" fill="white">
                            <use xlink:href="#DocxPath2"></use>
                        </mask>
                        <use id="PFP-Docx-Icon" fill="#FFFFFF" fill-rule="nonzero" xlink:href="#DocxPath2"></use>
                    </g>
                    <path d="M5.23095703,27 C5.98876953,27 6.56835938,26.8125 6.96972656,26.4375 C7.37109375,26.0625 7.57177734,25.5224609 7.57177734,24.8173828 C7.57177734,24.1552734 7.37841797,23.6396484 6.99169922,23.2705078 C6.60498047,22.9013672 6.06201172,22.7167969 5.36279297,22.7167969 L5.36279297,22.7167969 L4.01806641,22.7167969 L4.01806641,27 L5.23095703,27 Z M5.31591797,26.25 L4.92626953,26.25 L4.92626953,23.4609375 L5.40966797,23.4609375 C6.22216797,23.4609375 6.62841797,23.9208984 6.62841797,24.8408203 C6.62841797,25.7802734 6.19091797,26.25 5.31591797,26.25 L5.31591797,26.25 Z M10.3081055,27.0585938 C10.9643555,27.0585938 11.4682617,26.8681641 11.8198242,26.4873047 C12.1713867,26.1064453 12.347168,25.5615234 12.347168,24.8525391 C12.347168,24.1416016 12.1728516,23.5966797 11.8242188,23.2177734 C11.4755859,22.8388672 10.972168,22.6494141 10.3139648,22.6494141 C9.65576172,22.6494141 9.15039062,22.8374023 8.79785156,23.2133789 C8.4453125,23.5893555 8.26904297,24.1337891 8.26904297,24.8466797 C8.26904297,25.5595703 8.44482422,26.1064453 8.79638672,26.4873047 C9.14794922,26.8681641 9.65185547,27.0585938 10.3081055,27.0585938 Z M10.3081055,26.296875 C9.94677734,26.296875 9.67529297,26.1757812 9.49365234,25.9335938 C9.31201172,25.6914062 9.22119141,25.3310547 9.22119141,24.8525391 C9.22119141,24.3740234 9.31298828,24.0131836 9.49658203,23.7700195 C9.68017578,23.5268555 9.95263672,23.4052734 10.3139648,23.4052734 C11.034668,23.4052734 11.3950195,23.8876953 11.3950195,24.8525391 C11.3950195,25.8154297 11.0327148,26.296875 10.3081055,26.296875 Z M14.9692383,27.0585938 C15.402832,27.0585938 15.7954102,26.9853516 16.1469727,26.8388672 L16.1469727,26.8388672 L16.1469727,26.0771484 C15.7192383,26.2275391 15.3549805,26.3027344 15.0541992,26.3027344 C14.3374023,26.3027344 13.9790039,25.8251953 13.9790039,24.8701172 C13.9790039,24.4111328 14.0727539,24.0532227 14.2602539,23.7963867 C14.4477539,23.5395508 14.7124023,23.4111328 15.0541992,23.4111328 C15.2104492,23.4111328 15.3696289,23.4394531 15.5317383,23.4960938 C15.6938477,23.5527344 15.8549805,23.6191406 16.0151367,23.6953125 L16.0151367,23.6953125 L16.3081055,22.9570312 C15.8881836,22.7558594 15.4702148,22.6552734 15.0541992,22.6552734 C14.6459961,22.6552734 14.2900391,22.7446289 13.9863281,22.9233398 C13.6826172,23.1020508 13.449707,23.3588867 13.2875977,23.6938477 C13.1254883,24.0288086 13.0444336,24.4189453 13.0444336,24.8642578 C13.0444336,25.5712891 13.2094727,26.1137695 13.5395508,26.4916992 C13.8696289,26.8696289 14.3461914,27.0585938 14.9692383,27.0585938 Z M17.4916992,27 L18.487793,25.3798828 L19.4838867,27 L20.5209961,27 L19.0737305,24.8408203 L20.418457,22.7167969 L19.4399414,22.7167969 L18.534668,24.2578125 L17.6118164,22.7167969 L16.6098633,22.7167969 L17.9399414,24.7910156 L16.519043,27 L17.4916992,27 Z" fill="#FFFFFF" fill-rule="nonzero"></path>
                </g>
            </g>
        </g>
    </g>
</svg>