<?xml version="1.0" encoding="UTF-8"?>
<svg width="25px" height="30px" viewBox="0 0 25 30" version="1.1" xmlns="http://www.w3.org/2000/svg" xmlns:xlink="http://www.w3.org/1999/xlink">
    <title>PFPPdfIcon</title>
    <defs>
        <linearGradient x1="26.00625%" y1="100%" x2="82%" y2="0%" id="PdfLinearGradient">
            <stop stop-color="#969DA9" offset="0%"></stop>
            <stop stop-color="#646A78" offset="100%"></stop>
        </linearGradient>
        <path d="M14,7.10542736e-15 L20.3232233,7.10542736e-15 C22.2562199,7.10542736e-15 24,1.74378007 24,3.6767767 L24,10 L14,7.10542736e-15 Z" id="PdfPath1"></path>
        <filter x="-20.0%" y="-30.0%" width="140.0%" height="140.0%" filterUnits="objectBoundingBox" id="PdfFilter1">
            <feOffset dx="0" dy="-1" in="SourceAlpha" result="shadowOffsetOuter1"></feOffset>
            <feGaussianBlur stdDeviation="0.5" in="shadowOffsetOuter1" result="shadowBlurOuter1"></feGaussianBlur>
            <feColorMatrix values="0 0 0 0 0   0 0 0 0 0   0 0 0 0 0  0 0 0 0.0967221467 0" type="matrix" in="shadowBlurOuter1"></feColorMatrix>
        </filter>
        <path d="M7.00177723,0.576071453 C8.89993353,0.576071453 10.2020226,2.0950315 10.2020226,4.07794659 L10.2012083,4.67007145 L11.0804583,4.67038596 C11.8858736,4.67038596 12.5387917,5.32330404 12.5387917,6.1287193 L12.5387917,11.9655952 C12.5387917,12.7710105 11.8858736,13.4239285 11.0804583,13.4239285 L2.91954168,13.4239285 C2.11412642,13.4239285 1.46120834,12.7710105 1.46120834,11.9655952 L1.46120834,6.1287193 C1.46120834,5.32330404 2.11412642,4.67038596 2.91954168,4.67038596 L3.78420834,4.67007145 L3.78512446,4.07794659 C3.78512446,2.09829723 5.10183521,0.576071453 7.00177723,0.576071453 Z M8.42051634,7 C8.13723605,7 7.90753911,7.22583512 7.90753911,7.50429082 C7.90753911,8.68373457 7.14232342,9.27283737 6.56997004,9.54850728 L6.56997004,7.09471703 L5.54407856,7.09471703 L5.54407856,10.8736172 L6.15622592,10.7550042 C7.1168855,10.5687893 8.93349357,9.64984831 8.93349357,7.50429082 C8.93349357,7.22583512 8.7038596,7 8.42051634,7 Z M7.00177723,1.74273812 C5.78679565,1.74273812 4.95179113,2.70807193 4.95179113,4.07794659 L4.95120834,4.67007145 L9.03520834,4.67007145 L9.03535589,4.07794659 C9.03535589,2.70289625 8.21228529,1.74273812 7.00177723,1.74273812 Z" id="PdfPath2"></path>
    </defs>
    <g id="PFP-Pdf-Icons" stroke="none" stroke-width="1" fill="none" fill-rule="evenodd">
        <g id="PFP-Pdf-File-Type-Icons" transform="translate(-74.000000, -300.000000)">
            <g id="PFP-PDF" transform="translate(74.000000, 300.000000)">
                <path d="M14,0 L24,10 L24,26.5 C24,28.4329966 22.4956768,30 20.64,30 L3.36,30 C1.50432324,30 0,28.4329966 0,26.5 L0,3.5 C0,1.56700338 1.50432324,0 3.36,0 L14,0 Z" id="page-PFP-PDF" fill="url(#PdfLinearGradient)"></path>
                <g id="curl-PFP-PDF" transform="translate(19.000000, 5.000000) scale(-1, -1) translate(-19.000000, -5.000000) ">
                    <use fill="black" fill-opacity="1" filter="url(#PdfFilter1)" xlink:href="#PdfPath1"></use>
                    <use fill="#393C44" fill-rule="evenodd" xlink:href="#PdfPath1"></use>
                </g>
                <g id="PFP-Pdf-Encrypted-solid-24" transform="translate(5.000000, 7.000000)">
                    <mask id="PFP-Pdf-mask-5" fill="white">
                        <use xlink:href="#PdfPath2"></use>
                    </mask>
                    <use id="PFP-Pdf-Icon" fill="#FFFFFF" fill-rule="nonzero" xlink:href="#PdfPath2"></use>
                </g>
                <path d="M7.69628906,27 L7.69628906,25.4765625 L8.0859375,25.4765625 C8.6171875,25.4765625 9.02685547,25.3544922 9.31494141,25.1103516 C9.60302734,24.8662109 9.74707031,24.5136719 9.74707031,24.0527344 C9.74707031,23.609375 9.61181641,23.2758789 9.34130859,23.0522461 C9.07080078,22.8286133 8.67578125,22.7167969 8.15625,22.7167969 L8.15625,22.7167969 L6.78808594,22.7167969 L6.78808594,27 L7.69628906,27 Z M7.99511719,24.7324219 L7.69628906,24.7324219 L7.69628906,23.4609375 L8.109375,23.4609375 C8.35742188,23.4609375 8.53955078,23.5117188 8.65576172,23.6132812 C8.77197266,23.7148438 8.83007812,23.8720703 8.83007812,24.0849609 C8.83007812,24.2958984 8.76074219,24.456543 8.62207031,24.5668945 C8.48339844,24.6772461 8.27441406,24.7324219 7.99511719,24.7324219 L7.99511719,24.7324219 Z M11.7685547,27 C12.5263672,27 13.105957,26.8125 13.5073242,26.4375 C13.9086914,26.0625 14.109375,25.5224609 14.109375,24.8173828 C14.109375,24.1552734 13.9160156,23.6396484 13.5292969,23.2705078 C13.1425781,22.9013672 12.5996094,22.7167969 11.9003906,22.7167969 L11.9003906,22.7167969 L10.5556641,22.7167969 L10.5556641,27 L11.7685547,27 Z M11.8535156,26.25 L11.4638672,26.25 L11.4638672,23.4609375 L11.9472656,23.4609375 C12.7597656,23.4609375 13.1660156,23.9208984 13.1660156,24.8408203 C13.1660156,25.7802734 12.7285156,26.25 11.8535156,26.25 L11.8535156,26.25 Z M15.890625,27 L15.890625,25.3066406 L17.34375,25.3066406 L17.34375,24.5654297 L15.890625,24.5654297 L15.890625,23.4609375 L17.4521484,23.4609375 L17.4521484,22.7167969 L14.9970703,22.7167969 L14.9970703,27 L15.890625,27 Z" fill="#FFFFFF" fill-rule="nonzero"></path>
            </g>
        </g>
    </g>
</svg>