<?xml version="1.0" encoding="UTF-8"?>
<svg width="25px" height="30px" viewBox="0 0 25 30" version="1.1" xmlns="http://www.w3.org/2000/svg" xmlns:xlink="http://www.w3.org/1999/xlink">
    <title>PFPPngIcon</title>
    <defs>
        <linearGradient x1="26.00625%" y1="100%" x2="82%" y2="0%" id="PngLinearGradient">
            <stop stop-color="#969DA9" offset="0%"></stop>
            <stop stop-color="#646A78" offset="100%"></stop>
        </linearGradient>
        <path d="M14,7.10542736e-15 L20.3232233,7.10542736e-15 C22.2562199,7.10542736e-15 24,1.74378007 24,3.6767767 L24,10 L14,7.10542736e-15 Z" id="PngPath1"></path>
        <filter x="-20.0%" y="-30.0%" width="140.0%" height="140.0%" filterUnits="objectBoundingBox" id="PngFilter1">
            <feOffset dx="0" dy="-1" in="SourceAlpha" result="shadowOffsetOuter1"></feOffset>
            <feGaussianBlur stdDeviation="0.5" in="shadowOffsetOuter1" result="shadowBlurOuter1"></feGaussianBlur>
            <feColorMatrix values="0 0 0 0 0   0 0 0 0 0   0 0 0 0 0  0 0 0 0.0967221467 0" type="matrix" in="shadowBlurOuter1"></feColorMatrix>
        </filter>
        <path d="M7.00177723,0.576071453 C8.89993353,0.576071453 10.2020226,2.0950315 10.2020226,4.07794659 L10.2012083,4.67007145 L11.0804583,4.67038596 C11.8858736,4.67038596 12.5387917,5.32330404 12.5387917,6.1287193 L12.5387917,11.9655952 C12.5387917,12.7710105 11.8858736,13.4239285 11.0804583,13.4239285 L2.91954168,13.4239285 C2.11412642,13.4239285 1.46120834,12.7710105 1.46120834,11.9655952 L1.46120834,6.1287193 C1.46120834,5.32330404 2.11412642,4.67038596 2.91954168,4.67038596 L3.78420834,4.67007145 L3.78512446,4.07794659 C3.78512446,2.09829723 5.10183521,0.576071453 7.00177723,0.576071453 Z M8.42051634,7 C8.13723605,7 7.90753911,7.22583512 7.90753911,7.50429082 C7.90753911,8.68373457 7.14232342,9.27283737 6.56997004,9.54850728 L6.56997004,7.09471703 L5.54407856,7.09471703 L5.54407856,10.8736172 L6.15622592,10.7550042 C7.1168855,10.5687893 8.93349357,9.64984831 8.93349357,7.50429082 C8.93349357,7.22583512 8.7038596,7 8.42051634,7 Z M7.00177723,1.74273812 C5.78679565,1.74273812 4.95179113,2.70807193 4.95179113,4.07794659 L4.95120834,4.67007145 L9.03520834,4.67007145 L9.03535589,4.07794659 C9.03535589,2.70289625 8.21228529,1.74273812 7.00177723,1.74273812 Z" id="PngPath2"></path>
    </defs>
    <g id="PFP-Png-Icons" stroke="none" stroke-width="1" fill="none" fill-rule="evenodd">
        <g id="PFP-Png-File-Type-Icons" transform="translate(-674.000000, -300.000000)">
            <g id="PFP-Png-row-2-icons" transform="translate(74.000000, 300.000000)">
                <g id="PFP-PNG" transform="translate(600.000000, 0.000000)">
                    <path d="M14,0 L24,10 L24,26.5 C24,28.4329966 22.4956768,30 20.64,30 L3.36,30 C1.50432324,30 0,28.4329966 0,26.5 L0,3.5 C0,1.56700338 1.50432324,0 3.36,0 L14,0 Z" id="page-PFP-PNG" fill="url(#PngLinearGradient)"></path>
                    <g id="curl-PFP-PNG" transform="translate(19.000000, 5.000000) scale(-1, -1) translate(-19.000000, -5.000000) ">
                        <use fill="black" fill-opacity="1" filter="url(#PngFilter1)" xlink:href="#PngPath1"></use>
                        <use fill="#393C44" fill-rule="evenodd" xlink:href="#PngPath1"></use>
                    </g>
                    <g id="PFP-Png-Encrypted-solid-24" transform="translate(5.000000, 7.000000)">
                        <mask id="PFP-Png-mask-5" fill="white">
                            <use xlink:href="#PngPath2"></use>
                        </mask>
                        <use id="PFP-Png-Icon" fill="#FFFFFF" fill-rule="nonzero" xlink:href="#PngPath2"></use>
                    </g>
                    <path d="M6.95214844,27 L6.95214844,25.4765625 L7.34179688,25.4765625 C7.87304688,25.4765625 8.28271484,25.3544922 8.57080078,25.1103516 C8.85888672,24.8662109 9.00292969,24.5136719 9.00292969,24.0527344 C9.00292969,23.609375 8.86767578,23.2758789 8.59716797,23.0522461 C8.32666016,22.8286133 7.93164062,22.7167969 7.41210938,22.7167969 L7.41210938,22.7167969 L6.04394531,22.7167969 L6.04394531,27 L6.95214844,27 Z M7.25097656,24.7324219 L6.95214844,24.7324219 L6.95214844,23.4609375 L7.36523438,23.4609375 C7.61328125,23.4609375 7.79541016,23.5117188 7.91162109,23.6132812 C8.02783203,23.7148438 8.0859375,23.8720703 8.0859375,24.0849609 C8.0859375,24.2958984 8.01660156,24.456543 7.87792969,24.5668945 C7.73925781,24.6772461 7.53027344,24.7324219 7.25097656,24.7324219 L7.25097656,24.7324219 Z M10.6230469,27 L10.6230469,24.984375 C10.6230469,24.7402344 10.6044922,24.3320312 10.5673828,23.7597656 L10.5673828,23.7597656 L10.59375,23.7597656 L12.4570312,27 L13.6113281,27 L13.6113281,22.7167969 L12.7939453,22.7167969 L12.7939453,24.7441406 C12.7939453,24.9746094 12.8085938,25.3681641 12.8378906,25.9248047 L12.8378906,25.9248047 L12.8173828,25.9248047 L10.9570312,22.7167969 L9.81152344,22.7167969 L9.81152344,27 L10.6230469,27 Z M16.4912109,27.0585938 C16.7451172,27.0585938 16.9936523,27.0405273 17.2368164,27.0043945 C17.4799805,26.9682617 17.7392578,26.9052734 18.0146484,26.8154297 L18.0146484,26.8154297 L18.0146484,24.5947266 L16.3154297,24.5947266 L16.3154297,25.3505859 L17.1269531,25.3505859 L17.1269531,26.2441406 C16.9316406,26.2832031 16.7392578,26.3027344 16.5498047,26.3027344 C16.1865234,26.3027344 15.909668,26.1801758 15.7192383,25.9350586 C15.5288086,25.6899414 15.4335938,25.3349609 15.4335938,24.8701172 C15.4335938,24.4248047 15.5517578,24.0703125 15.7880859,23.8066406 C16.0244141,23.5429688 16.3388672,23.4111328 16.7314453,23.4111328 C17.0693359,23.4111328 17.3945312,23.4892578 17.7070312,23.6455078 L17.7070312,23.6455078 L18.0087891,22.9189453 C17.6005859,22.7431641 17.1767578,22.6552734 16.7373047,22.6552734 C16.0361328,22.6552734 15.487793,22.8486328 15.0922852,23.2353516 C14.6967773,23.6220703 14.4990234,24.1611328 14.4990234,24.8525391 C14.4990234,25.5634766 14.6694336,26.1088867 15.0102539,26.4887695 C15.3510742,26.8686523 15.8447266,27.0585938 16.4912109,27.0585938 Z" id="-PFP-PNG" fill="#FFFFFF" fill-rule="nonzero"></path>
                </g>
            </g>
        </g>
    </g>
</svg>