<?xml version="1.0" encoding="UTF-8"?>
<svg width="25px" height="30px" viewBox="0 0 25 30" version="1.1" xmlns="http://www.w3.org/2000/svg" xmlns:xlink="http://www.w3.org/1999/xlink">
    <title>PFPJpgIcon</title>
    <defs>
        <linearGradient x1="26.00625%" y1="100%" x2="82%" y2="0%" id="JpgLinearGradient">
            <stop stop-color="#969DA9" offset="0%"></stop>
            <stop stop-color="#646A78" offset="100%"></stop>
        </linearGradient>
        <path d="M14,7.10542736e-15 L20.3232233,7.10542736e-15 C22.2562199,7.10542736e-15 24,1.74378007 24,3.6767767 L24,10 L14,7.10542736e-15 Z" id="JpgPath1"></path>
        <filter x="-20.0%" y="-30.0%" width="140.0%" height="140.0%" filterUnits="objectBoundingBox" id="JpgFilter1">
            <feOffset dx="0" dy="-1" in="SourceAlpha" result="shadowOffsetOuter1"></feOffset>
            <feGaussianBlur stdDeviation="0.5" in="shadowOffsetOuter1" result="shadowBlurOuter1"></feGaussianBlur>
            <feColorMatrix values="0 0 0 0 0   0 0 0 0 0   0 0 0 0 0  0 0 0 0.0967221467 0" type="matrix" in="shadowBlurOuter1"></feColorMatrix>
        </filter>
        <path d="M7.00177723,0.576071453 C8.89993353,0.576071453 10.2020226,2.0950315 10.2020226,4.07794659 L10.2012083,4.67007145 L11.0804583,4.67038596 C11.8858736,4.67038596 12.5387917,5.32330404 12.5387917,6.1287193 L12.5387917,11.9655952 C12.5387917,12.7710105 11.8858736,13.4239285 11.0804583,13.4239285 L2.91954168,13.4239285 C2.11412642,13.4239285 1.46120834,12.7710105 1.46120834,11.9655952 L1.46120834,6.1287193 C1.46120834,5.32330404 2.11412642,4.67038596 2.91954168,4.67038596 L3.78420834,4.67007145 L3.78512446,4.07794659 C3.78512446,2.09829723 5.10183521,0.576071453 7.00177723,0.576071453 Z M8.42051634,7 C8.13723605,7 7.90753911,7.22583512 7.90753911,7.50429082 C7.90753911,8.68373457 7.14232342,9.27283737 6.56997004,9.54850728 L6.56997004,7.09471703 L5.54407856,7.09471703 L5.54407856,10.8736172 L6.15622592,10.7550042 C7.1168855,10.5687893 8.93349357,9.64984831 8.93349357,7.50429082 C8.93349357,7.22583512 8.7038596,7 8.42051634,7 Z M7.00177723,1.74273812 C5.78679565,1.74273812 4.95179113,2.70807193 4.95179113,4.07794659 L4.95120834,4.67007145 L9.03520834,4.67007145 L9.03535589,4.07794659 C9.03535589,2.70289625 8.21228529,1.74273812 7.00177723,1.74273812 Z" id="JpgPath2"></path>
    </defs>
    <g id="PFP-Jpg-Icons" stroke="none" stroke-width="1" fill="none" fill-rule="evenodd">
        <g id="PFP-Jpg-File-Type-Icons" transform="translate(-526.000000, -300.000000)">
            <g id="PFP-Jpg-row-2-icons" transform="translate(74.000000, 300.000000)">
                <g id="PFP-JPG" transform="translate(452.000000, 0.000000)">
                    <path d="M14,0 L24,10 L24,26.5 C24,28.4329966 22.4956768,30 20.64,30 L3.36,30 C1.50432324,30 0,28.4329966 0,26.5 L0,3.5 C0,1.56700338 1.50432324,0 3.36,0 L14,0 Z" id="page-PFP-JPG" fill="url(#JpgLinearGradient)"></path>
                    <g id="curl-PFP-JPG" transform="translate(19.000000, 5.000000) scale(-1, -1) translate(-19.000000, -5.000000) ">
                        <use fill="black" fill-opacity="1" filter="url(#JpgFilter1)" xlink:href="#JpgPath1"></use>
                        <use fill="#393C44" fill-rule="evenodd" xlink:href="#JpgPath1"></use>
                    </g>
                    <g id="PFP-Jpg-Encrypted-solid-24" transform="translate(5.000000, 7.000000)">
                        <mask id="PFP-Jpg-mask-5" fill="white">
                            <use xlink:href="#JpgPath2"></use>
                        </mask>
                        <use id="PFP-Jpg-Icon" fill="#FFFFFF" fill-rule="nonzero" xlink:href="#JpgPath2"></use>
                    </g>
                    <path d="M7.04150391,28.2597656 C7.48876953,28.2597656 7.82666016,28.1289062 8.05517578,27.8671875 C8.28369141,27.6054688 8.39794922,27.2246094 8.39794922,26.7246094 L8.39794922,26.7246094 L8.39794922,22.7167969 L7.48974609,22.7167969 L7.48974609,26.7304688 C7.48974609,26.9941406 7.44677734,27.1879883 7.36083984,27.3120117 C7.27490234,27.4360352 7.13232422,27.4980469 6.93310547,27.4980469 C6.80419922,27.4980469 6.66162109,27.4785156 6.50537109,27.4394531 L6.50537109,27.4394531 L6.50537109,28.1953125 C6.65771484,28.2382812 6.83642578,28.2597656 7.04150391,28.2597656 Z M10.3842773,27 L10.3842773,25.4765625 L10.7739258,25.4765625 C11.3051758,25.4765625 11.7148438,25.3544922 12.0029297,25.1103516 C12.2910156,24.8662109 12.4350586,24.5136719 12.4350586,24.0527344 C12.4350586,23.609375 12.2998047,23.2758789 12.0292969,23.0522461 C11.7587891,22.8286133 11.3637695,22.7167969 10.8442383,22.7167969 L10.8442383,22.7167969 L9.47607422,22.7167969 L9.47607422,27 L10.3842773,27 Z M10.6831055,24.7324219 L10.3842773,24.7324219 L10.3842773,23.4609375 L10.7973633,23.4609375 C11.0454102,23.4609375 11.2275391,23.5117188 11.34375,23.6132812 C11.4599609,23.7148438 11.5180664,23.8720703 11.5180664,24.0849609 C11.5180664,24.2958984 11.4487305,24.456543 11.3100586,24.5668945 C11.1713867,24.6772461 10.9624023,24.7324219 10.6831055,24.7324219 L10.6831055,24.7324219 Z M15.0454102,27.0585938 C15.2993164,27.0585938 15.5478516,27.0405273 15.7910156,27.0043945 C16.0341797,26.9682617 16.293457,26.9052734 16.5688477,26.8154297 L16.5688477,26.8154297 L16.5688477,24.5947266 L14.8696289,24.5947266 L14.8696289,25.3505859 L15.6811523,25.3505859 L15.6811523,26.2441406 C15.4858398,26.2832031 15.293457,26.3027344 15.1040039,26.3027344 C14.7407227,26.3027344 14.4638672,26.1801758 14.2734375,25.9350586 C14.0830078,25.6899414 13.987793,25.3349609 13.987793,24.8701172 C13.987793,24.4248047 14.105957,24.0703125 14.3422852,23.8066406 C14.5786133,23.5429688 14.8930664,23.4111328 15.2856445,23.4111328 C15.6235352,23.4111328 15.9487305,23.4892578 16.2612305,23.6455078 L16.2612305,23.6455078 L16.5629883,22.9189453 C16.1547852,22.7431641 15.730957,22.6552734 15.2915039,22.6552734 C14.590332,22.6552734 14.0419922,22.8486328 13.6464844,23.2353516 C13.2509766,23.6220703 13.0532227,24.1611328 13.0532227,24.8525391 C13.0532227,25.5634766 13.2236328,26.1088867 13.5644531,26.4887695 C13.9052734,26.8686523 14.3989258,27.0585938 15.0454102,27.0585938 Z" fill="#FFFFFF" fill-rule="nonzero"></path>
                </g>
            </g>
        </g>
    </g>
</svg>