<?xml version="1.0" encoding="UTF-8"?>
<svg width="25px" height="30px" viewBox="0 0 25 30" version="1.1" xmlns="http://www.w3.org/2000/svg" xmlns:xlink="http://www.w3.org/1999/xlink">
    <title>PFPXlsxIcon</title>
    <defs>
        <linearGradient x1="26.00625%" y1="100%" x2="82%" y2="0%" id="XlsxLinearGradient">
            <stop stop-color="#969DA9" offset="0%"></stop>
            <stop stop-color="#646A78" offset="100%"></stop>
        </linearGradient>
        <path d="M14,7.10542736e-15 L20.3232233,7.10542736e-15 C22.2562199,7.10542736e-15 24,1.74378007 24,3.6767767 L24,10 L14,7.10542736e-15 Z" id="XslxPath1"></path>
        <filter x="-20.0%" y="-30.0%" width="140.0%" height="140.0%" filterUnits="objectBoundingBox" id="XlsxFilter1">
            <feOffset dx="0" dy="-1" in="SourceAlpha" result="shadowOffsetOuter1"></feOffset>
            <feGaussianBlur stdDeviation="0.5" in="shadowOffsetOuter1" result="shadowBlurOuter1"></feGaussianBlur>
            <feColorMatrix values="0 0 0 0 0   0 0 0 0 0   0 0 0 0 0  0 0 0 0.0967221467 0" type="matrix" in="shadowBlurOuter1"></feColorMatrix>
        </filter>
        <path d="M7.00177723,0.576071453 C8.89993353,0.576071453 10.2020226,2.0950315 10.2020226,4.07794659 L10.2012083,4.67007145 L11.0804583,4.67038596 C11.8858736,4.67038596 12.5387917,5.32330404 12.5387917,6.1287193 L12.5387917,11.9655952 C12.5387917,12.7710105 11.8858736,13.4239285 11.0804583,13.4239285 L2.91954168,13.4239285 C2.11412642,13.4239285 1.46120834,12.7710105 1.46120834,11.9655952 L1.46120834,6.1287193 C1.46120834,5.32330404 2.11412642,4.67038596 2.91954168,4.67038596 L3.78420834,4.67007145 L3.78512446,4.07794659 C3.78512446,2.09829723 5.10183521,0.576071453 7.00177723,0.576071453 Z M8.42051634,7 C8.13723605,7 7.90753911,7.22583512 7.90753911,7.50429082 C7.90753911,8.68373457 7.14232342,9.27283737 6.56997004,9.54850728 L6.56997004,7.09471703 L5.54407856,7.09471703 L5.54407856,10.8736172 L6.15622592,10.7550042 C7.1168855,10.5687893 8.93349357,9.64984831 8.93349357,7.50429082 C8.93349357,7.22583512 8.7038596,7 8.42051634,7 Z M7.00177723,1.74273812 C5.78679565,1.74273812 4.95179113,2.70807193 4.95179113,4.07794659 L4.95120834,4.67007145 L9.03520834,4.67007145 L9.03535589,4.07794659 C9.03535589,2.70289625 8.21228529,1.74273812 7.00177723,1.74273812 Z" id="XlsxPath2"></path>
    </defs>
    <g id="PFP-Xlsx-Icons" stroke="none" stroke-width="1" fill="none" fill-rule="evenodd">
        <g id="PFP-Xlsx-File-Type-Icons" transform="translate(-226.000000, -300.000000)">
            <g id="PFP-Xlsx-row-2-icons" transform="translate(74.000000, 300.000000)">
                <g id="PFP-XLSX" transform="translate(152.000000, 0.000000)">
                    <path d="M14,0 L24,10 L24,26.5 C24,28.4329966 22.4956768,30 20.64,30 L3.36,30 C1.50432324,30 0,28.4329966 0,26.5 L0,3.5 C0,1.56700338 1.50432324,0 3.36,0 L14,0 Z" id="page-PFP-XLSX" fill="url(#XlsxLinearGradient)"></path>
                    <g id="curl-PFP-XLSX" transform="translate(19.000000, 5.000000) scale(-1, -1) translate(-19.000000, -5.000000) ">
                        <use fill="black" fill-opacity="1" filter="url(#XlsxFilter1)" xlink:href="#XslxPath1"></use>
                        <use fill="#393C44" fill-rule="evenodd" xlink:href="#XslxPath1"></use>
                    </g>
                    <g id="PFP-Xlsx-Encrypted-solid-24" transform="translate(5.000000, 7.000000)">
                        <mask id="PFP-Xlsx-mask-5" fill="white">
                            <use xlink:href="#XlsxPath2"></use>
                        </mask>
                        <use id="PFP-Xlsx-Icon" fill="#FFFFFF" fill-rule="nonzero" xlink:href="#XlsxPath2"></use>
                    </g>
                    <path d="M5.62353516,27 L6.61962891,25.3798828 L7.61572266,27 L8.65283203,27 L7.20556641,24.8408203 L8.55029297,22.7167969 L7.57177734,22.7167969 L6.66650391,24.2578125 L5.74365234,22.7167969 L4.74169922,22.7167969 L6.07177734,24.7910156 L4.65087891,27 L5.62353516,27 Z M11.8374023,27 L11.8374023,26.25 L10.1000977,26.25 L10.1000977,22.7167969 L9.19189453,22.7167969 L9.19189453,27 L11.8374023,27 Z M13.5307617,27.0585938 C14.0268555,27.0585938 14.4140625,26.9472656 14.6923828,26.7246094 C14.9707031,26.5019531 15.1098633,26.1972656 15.1098633,25.8105469 C15.1098633,25.53125 15.0356445,25.2954102 14.887207,25.1030273 C14.7387695,24.9106445 14.4643555,24.71875 14.0639648,24.5273438 C13.7612305,24.3828125 13.5693359,24.2827148 13.4882812,24.2270508 C13.4072266,24.1713867 13.3481445,24.1137695 13.3110352,24.0541992 C13.2739258,23.9946289 13.2553711,23.9248047 13.2553711,23.8447266 C13.2553711,23.7158203 13.3012695,23.6113281 13.3930664,23.53125 C13.4848633,23.4511719 13.6166992,23.4111328 13.7885742,23.4111328 C13.9331055,23.4111328 14.0800781,23.4296875 14.2294922,23.4667969 C14.3789062,23.5039062 14.5678711,23.5693359 14.7963867,23.6630859 L14.7963867,23.6630859 L15.0893555,22.9570312 C14.8686523,22.8613281 14.6572266,22.7871094 14.4550781,22.734375 C14.2529297,22.6816406 14.0405273,22.6552734 13.8178711,22.6552734 C13.3647461,22.6552734 13.0097656,22.7636719 12.7529297,22.9804688 C12.4960938,23.1972656 12.3676758,23.4951172 12.3676758,23.8740234 C12.3676758,24.0751953 12.4067383,24.2509766 12.4848633,24.4013672 C12.5629883,24.5517578 12.6674805,24.6835938 12.7983398,24.796875 C12.9291992,24.9101562 13.1254883,25.0283203 13.387207,25.1513672 C13.6665039,25.2841797 13.8515625,25.3808594 13.9423828,25.4414062 C14.0332031,25.5019531 14.1020508,25.5649414 14.1489258,25.6303711 C14.1958008,25.6958008 14.2192383,25.7705078 14.2192383,25.8544922 C14.2192383,26.0048828 14.1660156,26.1181641 14.0595703,26.1943359 C13.953125,26.2705078 13.800293,26.3085938 13.6010742,26.3085938 C13.4350586,26.3085938 13.2519531,26.2822266 13.0517578,26.2294922 C12.8515625,26.1767578 12.6069336,26.0859375 12.3178711,25.9570312 L12.3178711,25.9570312 L12.3178711,26.8007812 C12.6694336,26.9726562 13.0737305,27.0585938 13.5307617,27.0585938 Z M16.3198242,27 L17.315918,25.3798828 L18.3120117,27 L19.3491211,27 L17.9018555,24.8408203 L19.246582,22.7167969 L18.2680664,22.7167969 L17.362793,24.2578125 L16.4399414,22.7167969 L15.4379883,22.7167969 L16.7680664,24.7910156 L15.347168,27 L16.3198242,27 Z" fill="#FFFFFF" fill-rule="nonzero"></path>
                </g>
            </g>
        </g>
    </g>
</svg>