<?xml version="1.0" encoding="UTF-8"?>
<svg width="25px" height="30px" viewBox="0 0 25 30" version="1.1" xmlns="http://www.w3.org/2000/svg" xmlns:xlink="http://www.w3.org/1999/xlink">
    <title>PngIcon</title>
    <defs>
        <path d="M14,7.10542736e-15 L20.3232233,7.10542736e-15 C22.2562199,7.10542736e-15 24,1.74378007 24,3.6767767 L24,10 L14,7.10542736e-15 Z" id="PngPath"></path>
        <filter x="-20.0%" y="-30.0%" width="140.0%" height="140.0%" filterUnits="objectBoundingBox" id="PngFilter">
            <feOffset dx="0" dy="-1" in="SourceAlpha" result="shadowOffsetOuter1"></feOffset>
            <feGaussianBlur stdDeviation="0.5" in="shadowOffsetOuter1" result="shadowBlurOuter1"></feGaussianBlur>
            <feColorMatrix values="0 0 0 0 0   0 0 0 0 0   0 0 0 0 0  0 0 0 0.0967221467 0" type="matrix" in="shadowBlurOuter1"></feColorMatrix>
        </filter>
    </defs>
    <g id="PngIcons" stroke="none" stroke-width="1" fill="none" fill-rule="evenodd">
        <g id="Png-File-Type-Icons" transform="translate(-674.000000, -160.000000)">
            <g id="Png-row-1-icons" transform="translate(74.000000, 160.000000)">
                <g id="PNG" transform="translate(600.000000, 0.000000)">
                    <path d="M13.7928932,0.5 L23.5,10.2071068 L23.5,26.5 C23.5,27.3308348 23.178153,28.0838496 22.6551851,28.6286078 C22.1394543,29.1658275 21.4275107,29.5 20.64,29.5 L20.64,29.5 L3.36,29.5 C2.57248933,29.5 1.86054572,29.1658275 1.34481488,28.6286078 C0.821846959,28.0838496 0.5,27.3308348 0.5,26.5 L0.5,26.5 L0.5,3.5 C0.5,2.66916525 0.821846959,1.91615043 1.34481488,1.37139218 C1.86054572,0.834172547 2.57248933,0.5 3.36,0.5 L3.36,0.5 L13.7928932,0.5 Z" id="page-PNG" stroke="#30BEC3" fill="#FFFFFF"></path>
                    <g id="curl-PNG" transform="translate(19.000000, 5.000000) scale(-1, -1) translate(-19.000000, -5.000000) ">
                        <use fill="black" fill-opacity="1" filter="url(#PngFilter)" xlink:href="#PngPath"></use>
                        <use fill="#118387" fill-rule="evenodd" xlink:href="#PngPath"></use>
                    </g>
                    <path d="M5.41953125,19 L5.41953125,16.96875 L5.9390625,16.96875 C6.64739583,16.96875 7.19361979,16.8059896 7.57773438,16.4804688 C7.96184896,16.1549479 8.15390625,15.6848958 8.15390625,15.0703125 C8.15390625,14.4791667 7.97356771,14.0345052 7.61289063,13.7363281 C7.25221354,13.438151 6.72552083,13.2890625 6.0328125,13.2890625 L6.0328125,13.2890625 L4.20859375,13.2890625 L4.20859375,19 L5.41953125,19 Z M5.81796875,15.9765625 L5.41953125,15.9765625 L5.41953125,14.28125 L5.9703125,14.28125 C6.30104167,14.28125 6.54388021,14.3489583 6.69882813,14.484375 C6.85377604,14.6197917 6.93125,14.8294271 6.93125,15.1132812 C6.93125,15.3945312 6.83880208,15.608724 6.65390625,15.7558594 C6.46901042,15.9029948 6.19036458,15.9765625 5.81796875,15.9765625 L5.81796875,15.9765625 Z M10.2140625,19 L10.2140625,16.3125 C10.2140625,15.9869792 10.1893229,15.4427083 10.1398438,14.6796875 L10.1398438,14.6796875 L10.175,14.6796875 L12.659375,19 L14.1984375,19 L14.1984375,13.2890625 L13.1085938,13.2890625 L13.1085938,15.9921875 C13.1085938,16.2994792 13.128125,16.8242188 13.1671875,17.5664062 L13.1671875,17.5664062 L13.1398438,17.5664062 L10.659375,13.2890625 L9.13203125,13.2890625 L9.13203125,19 L10.2140625,19 Z M17.9382813,19.078125 C18.2768229,19.078125 18.6082031,19.0540365 18.9324219,19.0058594 C19.2566406,18.9576823 19.6023438,18.8736979 19.9695313,18.7539062 L19.9695313,18.7539062 L19.9695313,15.7929688 L17.7039063,15.7929688 L17.7039063,16.8007812 L18.7859375,16.8007812 L18.7859375,17.9921875 C18.5255208,18.0442708 18.2690104,18.0703125 18.0164063,18.0703125 C17.5320313,18.0703125 17.1628906,17.906901 16.9089844,17.5800781 C16.6550781,17.2532552 16.528125,16.7799479 16.528125,16.1601562 C16.528125,15.5664062 16.6856771,15.09375 17.0007813,14.7421875 C17.3158854,14.390625 17.7351563,14.2148438 18.2585938,14.2148438 C18.7091146,14.2148438 19.1427083,14.3190104 19.559375,14.5273438 L19.559375,14.5273438 L19.9617188,13.5585938 C19.4174479,13.3242188 18.8523438,13.2070312 18.2664063,13.2070312 C17.3315104,13.2070312 16.6003906,13.4648438 16.0730469,13.9804688 C15.5457031,14.4960938 15.2820313,15.2148438 15.2820313,16.1367188 C15.2820313,17.0846354 15.5092448,17.811849 15.9636719,18.3183594 C16.418099,18.8248698 17.0763021,19.078125 17.9382813,19.078125 Z" fill="#30BEC3" fill-rule="nonzero"></path>
                </g>
            </g>
        </g>
    </g>
</svg>