<?xml version="1.0" encoding="UTF-8"?>
<svg width="25px" height="30px" viewBox="0 0 25 30" version="1.1" xmlns="http://www.w3.org/2000/svg" xmlns:xlink="http://www.w3.org/1999/xlink">
    <title>PptxIcon</title>
    <defs>
        <path d="M14,7.10542736e-15 L20.3232233,7.10542736e-15 C22.2562199,7.10542736e-15 24,1.74378007 24,3.6767767 L24,10 L14,7.10542736e-15 Z" id="PptxPath"></path>
        <filter x="-20.0%" y="-30.0%" width="140.0%" height="140.0%" filterUnits="objectBoundingBox" id="PptxFilter">
            <feOffset dx="0" dy="-1" in="SourceAlpha" result="shadowOffsetOuter1"></feOffset>
            <feGaussianBlur stdDeviation="0.5" in="shadowOffsetOuter1" result="shadowBlurOuter1"></feGaussianBlur>
            <feColorMatrix values="0 0 0 0 0   0 0 0 0 0   0 0 0 0 0  0 0 0 0.0967221467 0" type="matrix" in="shadowBlurOuter1"></feColorMatrix>
        </filter>
    </defs>
    <g id="Pptx-Icons" stroke="none" stroke-width="1" fill="none" fill-rule="evenodd">
        <g id="Pptx-File-Type-Icons" transform="translate(-299.000000, -160.000000)">
            <g id="Pptx-row-1-icons" transform="translate(74.000000, 160.000000)">
                <g id="PPTX" transform="translate(225.000000, 0.000000)">
                    <path d="M13.7928932,0.5 L23.5,10.2071068 L23.5,26.5 C23.5,27.3308348 23.178153,28.0838496 22.6551851,28.6286078 C22.1394543,29.1658275 21.4275107,29.5 20.64,29.5 L20.64,29.5 L3.36,29.5 C2.57248933,29.5 1.86054572,29.1658275 1.34481488,28.6286078 C0.821846959,28.0838496 0.5,27.3308348 0.5,26.5 L0.5,26.5 L0.5,3.5 C0.5,2.66916525 0.821846959,1.91615043 1.34481488,1.37139218 C1.86054572,0.834172547 2.57248933,0.5 3.36,0.5 L3.36,0.5 L13.7928932,0.5 Z" id="page-PPTX" stroke="#F59023" fill="#FFFFFF"></path>
                    <g id="curl-PPTX" transform="translate(19.000000, 5.000000) scale(-1, -1) translate(-19.000000, -5.000000) ">
                        <use fill="black" fill-opacity="1" filter="url(#PptxFilter)" xlink:href="#PptxPath"></use>
                        <use fill="#B86104" fill-rule="evenodd" xlink:href="#PptxPath"></use>
                    </g>
                    <path d="M4.121875,19 L4.121875,16.96875 L4.64140625,16.96875 C5.34973958,16.96875 5.89596354,16.8059896 6.28007812,16.4804688 C6.66419271,16.1549479 6.85625,15.6848958 6.85625,15.0703125 C6.85625,14.4791667 6.67591146,14.0345052 6.31523437,13.7363281 C5.95455729,13.438151 5.42786458,13.2890625 4.73515625,13.2890625 L4.73515625,13.2890625 L2.9109375,13.2890625 L2.9109375,19 L4.121875,19 Z M4.5203125,15.9765625 L4.121875,15.9765625 L4.121875,14.28125 L4.67265625,14.28125 C5.00338542,14.28125 5.24622396,14.3489583 5.40117187,14.484375 C5.55611979,14.6197917 5.63359375,14.8294271 5.63359375,15.1132812 C5.63359375,15.3945312 5.54114583,15.608724 5.35625,15.7558594 C5.17135417,15.9029948 4.89270833,15.9765625 4.5203125,15.9765625 L4.5203125,15.9765625 Z M9.0453125,19 L9.0453125,16.96875 L9.56484375,16.96875 C10.2731771,16.96875 10.819401,16.8059896 11.2035156,16.4804688 C11.5876302,16.1549479 11.7796875,15.6848958 11.7796875,15.0703125 C11.7796875,14.4791667 11.599349,14.0345052 11.2386719,13.7363281 C10.8779948,13.438151 10.3513021,13.2890625 9.65859375,13.2890625 L9.65859375,13.2890625 L7.834375,13.2890625 L7.834375,19 L9.0453125,19 Z M9.44375,15.9765625 L9.0453125,15.9765625 L9.0453125,14.28125 L9.59609375,14.28125 C9.92682292,14.28125 10.1696615,14.3489583 10.3246094,14.484375 C10.4795573,14.6197917 10.5570312,14.8294271 10.5570312,15.1132812 C10.5570312,15.3945312 10.4645833,15.608724 10.2796875,15.7558594 C10.0947917,15.9029948 9.81614583,15.9765625 9.44375,15.9765625 L9.44375,15.9765625 Z M14.9609375,19 L14.9609375,14.296875 L16.5117187,14.296875 L16.5117187,13.2890625 L12.1992187,13.2890625 L12.1992187,14.296875 L13.75,14.296875 L13.75,19 L14.9609375,19 Z M17.86875,19 L19.196875,16.8398438 L20.525,19 L21.9078125,19 L19.978125,16.1210938 L21.7710937,13.2890625 L20.4664062,13.2890625 L19.259375,15.34375 L18.0289062,13.2890625 L16.6929687,13.2890625 L18.4664062,16.0546875 L16.571875,19 L17.86875,19 Z" fill="#F59023" fill-rule="nonzero"></path>
                </g>
            </g>
        </g>
    </g>
</svg>