<?xml version="1.0" encoding="UTF-8"?>
<svg width="18px" height="18px" viewBox="0 0 18 18" version="1.1" xmlns="http://www.w3.org/2000/svg" xmlns:xlink="http://www.w3.org/1999/xlink">
    <title>RevokeIcon</title>
    <defs>
        <path d="M2.53588614,10.9982815 L7.27921174,15.8263454 C7.66591953,16.2130532 8.11998348,16.399145 8.68224463,16.399145 L14.0937006,16.399145 C14.6355347,16.399145 15.0871195,16.2125397 15.4861197,15.821363 C15.8816395,15.4335985 16.0695331,14.991496 16.0695331,14.454604 L16.0695331,4.75425002 C16.0695331,4.64019722 16.0455715,4.56783676 15.9710688,4.46206461 C15.9146896,4.38202258 15.6953708,4.2606295 15.5583655,4.26042548 C15.2325805,4.2682087 15.1001075,4.34191993 15.0542644,4.41367689 C14.9543051,4.5830745 14.923879,4.66764948 14.9238604,4.75940019 L14.897272,8.45179298 L13.4668236,8.44664282 L13.4668236,2.75159631 C13.4668236,2.63620219 13.4202345,2.50477071 13.3444867,2.42648194 C13.2689391,2.33938404 13.0746979,2.26317939 12.850217,2.26317939 C12.6042868,2.26317939 12.4299251,2.32812128 12.315857,2.46357794 C12.2746642,2.50477071 12.2280751,2.63620219 12.228073,2.75332731 L12.2142898,8.44837382 L10.783825,8.44664282 L10.783825,2.09447556 C10.783825,1.9624679 10.7439539,1.84649854 10.7116889,1.81423349 C10.5366492,1.63919384 10.4622901,1.60085504 10.1904426,1.60085504 C9.90086561,1.60085504 9.76573458,1.66523426 9.61673535,1.81423349 C9.5844703,1.84649854 9.5445992,1.9624679 9.54459295,2.09148443 L9.57115809,8.44365169 L8.14070886,8.45069077 L8.11413226,3.75292317 C8.11413226,3.64103657 8.06983108,3.51826885 8.02635038,3.47478815 C7.88873425,3.33717203 7.72974466,3.25930264 7.5306681,3.25930264 C7.32430299,3.25930264 7.1424918,3.34553064 7.01323429,3.47478815 C6.96975359,3.51826885 6.92545241,3.64103657 6.92545241,3.75292317 L6.92545241,13.0298586 L3.16042994,10.5453461 C3.14239051,10.5396434 3.12243896,10.5368498 3.09774267,10.5368498 C3.05621717,10.5368498 3.04464516,10.540934 3.03125555,10.5524108 L2.83489207,10.7207224 C2.80336486,10.7494862 2.76835061,10.7816749 2.73030655,10.8168783 C2.67086221,10.8718841 2.60557387,10.9328039 2.53588614,10.9982815 Z M14.8972905,2.91839589 C15.0916861,2.86609177 15.3064883,2.83571331 15.541283,2.83016256 C16.1757791,2.83016256 16.8240445,3.18897771 17.1405472,3.63831954 C17.381315,3.98013983 17.5,4.33855119 17.5,4.75425002 L17.5,14.454604 C17.5,15.3779875 17.155944,16.1875311 16.4875487,16.8428206 C15.8226338,17.494698 15.0121421,17.8296119 14.0937006,17.8296119 L8.68224463,17.8296119 C7.74250797,17.8296119 6.9240651,17.4941845 6.26326321,16.833343 L0.5,10.9671644 L1.02038354,10.4660543 C1.29481931,10.2017828 1.55751393,9.95317729 1.75877158,9.76694713 C1.85758877,9.67550842 1.93917978,9.60134628 1.99953811,9.54819078 C2.04491215,9.50850374 2.04491215,9.50850374 2.08779467,9.47296422 C2.08745373,9.45798359 2.08728277,9.4504715 2.14651126,9.42826828 C2.41652502,9.21460884 2.74254864,9.10638283 3.09774267,9.10638283 C3.353603,9.10638283 3.59878975,9.16296439 3.82439383,9.27576643 L3.89846804,9.31852078 L5.49498547,10.3720517 L5.49498547,3.75292317 C5.49498547,3.28250962 5.67139541,2.79364129 6.00174142,2.46329528 C6.38353009,2.08150661 6.9162851,1.8288357 7.5306681,1.8288357 C7.74073251,1.8288357 7.93795792,1.85768629 8.12203375,1.91110323 C8.15844377,1.49027078 8.32053851,1.08744458 8.60524247,0.80274062 C9.00632673,0.401656362 9.49175539,0.170388095 10.1904426,0.170388095 C10.8918898,0.170388095 11.3025739,0.382132761 11.7231817,0.80274062 C11.7893209,0.868879759 11.8488431,0.941393628 11.90171,1.01902707 C12.186141,0.893727697 12.510287,0.832712448 12.850217,0.832712448 C13.464855,0.832712448 14.057273,1.06512968 14.3905346,1.45208507 C14.721072,1.78262249 14.8972905,2.27974857 14.8972905,2.75159631 L14.8972905,2.91839589 Z" id="RevokePath"></path>
    </defs>
    <g id="Revoke-Round-2" stroke="none" stroke-width="1" fill="none" fill-rule="evenodd">
        <g id="Revoke-Dash-Policy-Modal" transform="translate(-563.000000, -180.000000)">
            <g id="RevokeGroup" transform="translate(100.000000, 149.000000)">
                <g id="revoke-modal-header" transform="translate(36.000000, 22.000000)">
                    <g id="Button/Custom/Revoke/Enabled" transform="translate(415.000000, 0.000000)">
                        <g id="Revoke-18" transform="translate(12.000000, 9.000000)">
                            <mask id="RevokeMask" fill="white">
                                <use xlink:href="#RevokePath"></use>
                            </mask>
                            <use id="RevokeIcon" fill="#A70A0E" fill-rule="nonzero" xlink:href="#RevokePath"></use>
                        </g>
                    </g>
                </g>
            </g>
        </g>
    </g>
</svg>