<?xml version="1.0" encoding="UTF-8"?>
<svg width="12px" height="8px" viewBox="0 0 12 8" version="1.1" xmlns="http://www.w3.org/2000/svg" xmlns:xlink="http://www.w3.org/1999/xlink">
    <title>UnopenedIcon</title>
    <defs>
        <path d="M11,8 L1,8 L1,7 L0,7 L0,1 L1,1 L1,2 L2,2 L2,3 L3,3 L3,4 L4,4 L4,5 L5,5 L5,6 L7,6 L7,5 L8,5 L8,4 L9,4 L9,3 L10,3 L10,2 L11,2 L11,1 L12,1 L12,7 L11,7 L11,8 Z M10,0 L10,1 L9,1 L9,2 L8,2 L8,3 L7,3 L7,4 L5,4 L5,3 L4,3 L4,2 L3,2 L3,1 L2,1 L2,0 L10,0 Z" id="UnopenedPath"></path>
    </defs>
    <g id="UnopenedModal" stroke="none" stroke-width="1" fill="none" fill-rule="evenodd">
        <g id="UnopenedEmailFiles" transform="translate(-932.000000, -468.000000)">
            <g id="UnopenedGroup" transform="translate(99.000000, 70.000000)">
                <g id="UnopenedContent" transform="translate(60.000000, 205.000000)">
                    <g id="UnopenedStatus" transform="translate(773.000000, 84.000000)">
                        <g id="UnopenedIcon" transform="translate(0.000000, 109.000000)">
                            <mask id="UnopenedMask" fill="white">
                                <use xlink:href="#UnopenedPath"></use>
                            </mask>
                            <use id="UnopenedReadReceipt" fill="#D8D8D8" xlink:href="#UnopenedPath"></use>
                            <g id="UnopenedColor" mask="url(#UnopenedMask)" fill="#9C9C9C">
                                <g transform="translate(0.000000, -2.000000)" id="UnopenedRectangle">
                                    <rect x="0" y="0" width="12" height="12"></rect>
                                </g>
                            </g>
                        </g>
                    </g>
                </g>
            </g>
        </g>
    </g>
</svg>