<?xml version="1.0" encoding="UTF-8"?>
<svg width="25px" height="30px" viewBox="0 0 25 30" version="1.1" xmlns="http://www.w3.org/2000/svg" xmlns:xlink="http://www.w3.org/1999/xlink">
    <title>XlsxIcon</title>
    <defs>
        <path d="M14,7.10542736e-15 L20.3232233,7.10542736e-15 C22.2562199,7.10542736e-15 24,1.74378007 24,3.6767767 L24,10 L14,7.10542736e-15 Z" id="XlsxPath"></path>
        <filter x="-20.0%" y="-30.0%" width="140.0%" height="140.0%" filterUnits="objectBoundingBox" id="XlsxFilter">
            <feOffset dx="0" dy="-1" in="SourceAlpha" result="shadowOffsetOuter1"></feOffset>
            <feGaussianBlur stdDeviation="0.5" in="shadowOffsetOuter1" result="shadowBlurOuter1"></feGaussianBlur>
            <feColorMatrix values="0 0 0 0 0   0 0 0 0 0   0 0 0 0 0  0 0 0 0.0967221467 0" type="matrix" in="shadowBlurOuter1"></feColorMatrix>
        </filter>
    </defs>
    <g id="XlsxIcons" stroke="none" stroke-width="1" fill="none" fill-rule="evenodd">
        <g id="Xlsx-File-Type-Icons" transform="translate(-224.000000, -160.000000)">
            <g id="Xlsx-row-1-icons" transform="translate(74.000000, 160.000000)">
                <g id="XLSX" transform="translate(150.000000, 0.000000)">
                    <path d="M13.7928932,0.5 L23.5,10.2071068 L23.5,26.5 C23.5,27.3308348 23.178153,28.0838496 22.6551851,28.6286078 C22.1394543,29.1658275 21.4275107,29.5 20.64,29.5 L20.64,29.5 L3.36,29.5 C2.57248933,29.5 1.86054572,29.1658275 1.34481488,28.6286078 C0.821846959,28.0838496 0.5,27.3308348 0.5,26.5 L0.5,26.5 L0.5,3.5 C0.5,2.66916525 0.821846959,1.91615043 1.34481488,1.37139218 C1.86054572,0.834172547 2.57248933,0.5 3.36,0.5 L3.36,0.5 L13.7928932,0.5 Z" id="page-XLSX" stroke="#75B849" fill="#FFFFFF"></path>
                    <g id="curl-XLSX" transform="translate(19.000000, 5.000000) scale(-1, -1) translate(-19.000000, -5.000000) ">
                        <use fill="black" fill-opacity="1" filter="url(#XlsxFilter)" xlink:href="#XlsxPath"></use>
                        <use fill="#3F7A17" fill-rule="evenodd" xlink:href="#XlsxPath"></use>
                    </g>
                    <path d="M3.69804687,19 L5.02617187,16.8398438 L6.35429687,19 L7.73710937,19 L5.80742187,16.1210938 L7.60039062,13.2890625 L6.29570312,13.2890625 L5.08867187,15.34375 L3.85820312,13.2890625 L2.52226562,13.2890625 L4.29570312,16.0546875 L2.40117187,19 L3.69804687,19 Z M11.8832031,19 L11.8832031,18 L9.56679687,18 L9.56679687,13.2890625 L8.35585937,13.2890625 L8.35585937,19 L11.8832031,19 Z M14.0410156,19.078125 C14.702474,19.078125 15.21875,18.9296875 15.5898437,18.6328125 C15.9609375,18.3359375 16.1464844,17.9296875 16.1464844,17.4140625 C16.1464844,17.0416667 16.047526,16.7272135 15.8496094,16.4707031 C15.6516927,16.2141927 15.2858073,15.9583333 14.7519531,15.703125 C14.3483073,15.5104167 14.0924479,15.3769531 13.984375,15.3027344 C13.8763021,15.2285156 13.797526,15.1516927 13.7480469,15.0722656 C13.6985677,14.9928385 13.6738281,14.8997396 13.6738281,14.7929688 C13.6738281,14.6210938 13.735026,14.4817708 13.8574219,14.375 C13.9798177,14.2682292 14.155599,14.2148438 14.3847656,14.2148438 C14.577474,14.2148438 14.7734375,14.2395833 14.9726562,14.2890625 C15.171875,14.3385417 15.4238281,14.4257812 15.7285156,14.5507812 L15.7285156,14.5507812 L16.1191406,13.609375 C15.8248698,13.4817708 15.5429687,13.3828125 15.2734375,13.3125 C15.0039062,13.2421875 14.7207031,13.2070312 14.4238281,13.2070312 C13.8196615,13.2070312 13.3463542,13.3515625 13.0039062,13.640625 C12.6614583,13.9296875 12.4902344,14.3268229 12.4902344,14.8320312 C12.4902344,15.1002604 12.5423177,15.3346354 12.6464844,15.5351562 C12.750651,15.7356771 12.889974,15.9114583 13.0644531,16.0625 C13.2389323,16.2135417 13.500651,16.3710938 13.8496094,16.5351562 C14.2220052,16.7122396 14.46875,16.8411458 14.5898437,16.921875 C14.7109375,17.0026042 14.8027344,17.0865885 14.8652344,17.1738281 C14.9277344,17.2610677 14.9589844,17.3606771 14.9589844,17.4726562 C14.9589844,17.6731771 14.8880208,17.8242188 14.7460937,17.9257812 C14.6041667,18.0273438 14.4003906,18.078125 14.1347656,18.078125 C13.9134115,18.078125 13.6692708,18.0429688 13.4023437,17.9726562 C13.1354167,17.9023438 12.8092448,17.78125 12.4238281,17.609375 L12.4238281,17.609375 L12.4238281,18.734375 C12.8925781,18.9635417 13.4316406,19.078125 14.0410156,19.078125 Z M17.6597656,19 L18.9878906,16.8398438 L20.3160156,19 L21.6988281,19 L19.7691406,16.1210938 L21.5621094,13.2890625 L20.2574219,13.2890625 L19.0503906,15.34375 L17.8199219,13.2890625 L16.4839844,13.2890625 L18.2574219,16.0546875 L16.3628906,19 L17.6597656,19 Z" fill="#75B849" fill-rule="nonzero"></path>
                </g>
            </g>
        </g>
    </g>
</svg>