<svg xmlns="http://www.w3.org/2000/svg" width="16" height="16" viewBox="0 0 18 18">
  <g fill="none" fill-rule="evenodd">
    <path class="checkbox-svg-fill-preset" fill="#C6CBD4" fill-rule="nonzero" d="M2.81818182,0.5 L15.1818182,0.5 C16.4621146,0.5 17.5,1.53788535 17.5,2.81818182 L17.5,15.1818182 C17.5,16.4621146 16.4621146,17.5 15.1818182,17.5 L2.81818182,17.5 C1.53788535,17.5 0.5,16.4621146 0.5,15.1818182 L0.5,2.81818182 C0.5,1.53788535 1.53788535,0.5 2.81818182,0.5 Z"/>
    <path class="checkbox-stroke-preset" fill="#515864" fill-rule="nonzero" d="M12.561027,5.3736532 C12.9174913,5.01718884 13.4954343,5.01718884 13.8518986,5.3736532 C14.208363,5.73011756 14.208363,6.30806048 13.8518986,6.66452484 L8.09484407,12.4225715 C7.73837971,12.7790358 7.16043679,12.7790358 6.80397243,12.4225715 C6.44750807,12.0661071 6.44750807,11.4881642 6.80397243,11.1316998 L12.561027,5.3736532 Z M4.17671552,10.0652476 C3.82025116,9.70878319 3.82025116,9.13084027 4.17671552,8.77437591 C4.53317988,8.41791155 5.1111228,8.41791155 5.46758716,8.77437591 L7.76669071,11.1316998 C8.12315507,11.4881642 8.12315507,12.0661071 7.76669071,12.4225715 C7.41022635,12.7790358 6.83228343,12.7790358 6.47581907,12.4225715 L4.17671552,10.0652476 Z M7.28971701,10.9343939 L8.43715847,12.0818354 L7.28971701,13.2292769 L6.14227555,12.0818354 L7.28971701,10.9343939 Z"/>
  </g>
</svg>
