<svg xmlns="http://www.w3.org/2000/svg" width="20" height="20" viewBox="0 0 24 24">
  <g fill="none" fill-rule="evenodd">
    <path fill="#FFF" fill-rule="nonzero" d="M3.9144385,3 C3.40940806,3 3,3.40940806 3,3.9144385 L3,20.0855615 C3,20.5905919 3.40940806,21 3.9144385,21 L20.0855615,21 C20.5905919,21 21,20.5905919 21,20.0855615 L21,3.9144385 C21,3.40940806 20.5905919,3 20.0855615,3 L3.9144385,3 Z"/>
    <path fill="currentColor" fill-rule="nonzero" d="M19.2727273,2 C20.7789584,2 22,3.22104159 22,4.72727273 L22,19.2727273 C22,20.7789584 20.7789584,22 19.2727273,22 L4.72727273,22 C3.22104159,22 2,20.7789584 2,19.2727273 L2,4.72727273 C2,3.22104159 3.22104159,2 4.72727273,2 L19.2727273,2 Z M19.2727273,3.9047619 L4.72727273,3.9047619 C4.27301254,3.9047619 3.9047619,4.27301254 3.9047619,4.72727273 L3.9047619,19.2727273 C3.9047619,19.7269875 4.27301254,20.0952381 4.72727273,20.0952381 L19.2727273,20.0952381 C19.7269875,20.0952381 20.0952381,19.7269875 20.0952381,19.2727273 L20.0952381,4.72727273 C20.0952381,4.27301254 19.7269875,3.9047619 19.2727273,3.9047619 Z M15.9844154,11 C16.5367002,11 16.9844154,11.4477153 16.9844154,12 C16.9844154,12.5522847 16.5367002,13 15.9844154,13 L8.0155846,13 C7.46329985,13 7.0155846,12.5522847 7.0155846,12 C7.0155846,11.4477153 7.46329985,11 8.0155846,11 L15.9844154,11 Z"/>
  </g>
</svg>
