<?xml version="1.0" encoding="UTF-8"?>
<svg width="48px" height="48px" viewBox="0 0 48 48" version="1.1" xmlns="http://www.w3.org/2000/svg" xmlns:xlink="http://www.w3.org/1999/xlink">
    <title></title>
    <defs>
        <path d="M24,2 C36.1502645,2 46,11.8497355 46,24 C46,36.1502645 36.1502645,46 24,46 C11.8497355,46 2,36.1502645 2,24 C2,11.8497355 11.8497355,2 24,2 Z M24,6 C14.0588745,6 6,14.0588745 6,24 C6,33.9411255 14.0588745,42 24,42 C33.9411255,42 42,33.9411255 42,24 C42,14.0588745 33.9411255,6 24,6 Z M23.9664001,30.2010218 C25.6271744,30.2010218 26.973498,31.5473453 26.973498,33.2081196 C26.973498,34.8688939 25.6271744,36.2152175 23.9664001,36.2152175 C22.3056258,36.2152175 20.9593023,34.8688939 20.9593023,33.2081196 C20.9593023,31.5473453 22.3056258,30.2010218 23.9664001,30.2010218 Z M23.9664001,12.2152175 C25.2950195,12.2152175 26.3720784,13.2922763 26.3720784,14.6208957 L26.3720784,24.2853088 C26.3720784,25.6139283 25.2950195,26.6909871 23.9664001,26.6909871 C22.6377807,26.6909871 21.5607218,25.6139283 21.5607218,24.2853088 L21.5607218,14.6208957 C21.5607218,13.2922763 22.6377807,12.2152175 23.9664001,12.2152175 Z" id="path-1"></path>
    </defs>
    <g id="audit-stream-widget-for-home-page" stroke="none" stroke-width="1" fill="none" fill-rule="evenodd">
        <g id="0.2.3---audit-stream-widget---error" transform="translate(-427.000000, -384.000000)">
            <g id="audit-stream-widget/model/loading" transform="translate(48.000000, 288.000000)">
                <g id="items" transform="translate(0.000000, 30.000000)">
                    <g id="Attention-24" transform="translate(379.000000, 66.000000)">
                        <mask id="mask-2" fill="white">
                            <use xlink:href="#path-1"></use>
                        </mask>
                        <use id="Icon" fill="#A70A0E" fill-rule="nonzero" xlink:href="#path-1"></use>
                    </g>
                </g>
            </g>
        </g>
    </g>
</svg>