<?xml version="1.0" encoding="UTF-8"?>
<svg xmlns="http://www.w3.org/2000/svg" width="16" height="16" viewBox="1 1 18 18">
  <g>
    <path d="M12.9882812,8.48828125 L10,11.5117188 L7.01171875,8.48828125 L8.48828125,8.48828125 L8.48828125,6.23828125 L11.5117188,6.23828125 L11.5117188,8.48828125 L12.9882812,8.48828125 Z M15.2382812,12.25 L15.2382812,4.76171875 L4.7265625,4.76171875 L4.7265625,12.25 L7.75,12.25 C7.75,12.859378 7.97265402,13.3867165 8.41796875,13.8320312 C8.86328348,14.277346 9.39062195,14.5 10,14.5 C10.609378,14.5 11.1367165,14.277346 11.5820312,13.8320312 C12.027346,13.3867165 12.25,12.859378 12.25,12.25 L15.2382812,12.25 Z M15.2382812,3.25 C15.6367207,3.25 15.9882797,3.40234223 16.2929688,3.70703125 C16.5976578,4.01172027 16.75,4.36327926 16.75,4.76171875 L16.75,15.2382812 C16.75,15.6367207 16.5976578,15.9882797 16.2929688,16.2929688 C15.9882797,16.5976578 15.6367207,16.75 15.2382812,16.75 L4.7265625,16.75 C4.30468539,16.75 3.95312641,16.6035171 3.671875,16.3105469 C3.39062359,16.0175767 3.25,15.6601584 3.25,15.2382812 L3.25,4.76171875 C3.25,4.33984164 3.39062359,3.98242334 3.671875,3.68945312 C3.95312641,3.39648291 4.30468539,3.25 4.7265625,3.25 L15.2382812,3.25 Z" />
  </g>
</svg>
