<?xml version="1.0" encoding="UTF-8"?>
<svg width="14px" height="21px" viewBox="0 0 14 21" version="1.1" xmlns="http://www.w3.org/2000/svg" xmlns:xlink="http://www.w3.org/1999/xlink">
    <g id="Round-2" stroke="none" stroke-width="1" fill="none" fill-rule="evenodd">
        <g id="Sender-Click-on-Link" transform="translate(-829.000000, -430.000000)">
            <g id="Group" transform="translate(139.000000, 115.000000)">
                <g id="Security-settings" transform="translate(673.000000, 199.000000)">
                    <g id="Option-3" transform="translate(0.000000, 114.000000)">
                        <g id="Feature-Icon-Copy-2" transform="translate(17.000000, 2.000000)">
                            <path id="Icon" fill="#2D323B" d="M1.14305972,20.2195265 C0.682822433,20.2195265 0.309726392,19.8464304 0.309726392,19.3861931 L0.309726392,19.3861931 L0.309726392,15.0528598 C0.309726392,13.673028 1.18252483,12.4566812 2.59026076,11.3634395 C3.05243443,11.0045174 3.5435915,10.6836977 4.03457451,10.4033847 C4.1018446,10.3649788 4.16590076,10.3291165 4.22639306,10.2958463 L4.22639306,10.2958463 L4.22639306,9.23245102 C3.74705372,9.04299522 3.18923808,8.7621829 2.62743065,8.37369904 C1.19781783,7.38513698 0.309726392,6.03410426 0.309726392,4.30285981 L0.309726392,4.30285981 L0.309726392,1.05285981 C0.309726392,0.592622523 0.682822433,0.219526481 1.14305972,0.219526481 L1.14305972,0.219526481 L12.8097264,0.219526481 L12.8097264,0.219526481 L12.914258,0.226019331 C13.3251554,0.277441501 13.6430597,0.628025391 13.6430597,1.05285981 L13.6430597,1.05285981 L13.6430597,4.30285981 C13.6430597,6.03410426 12.7549683,7.38513698 11.3253555,8.37369904 C10.763548,8.7621829 10.2057324,9.04299522 9.72639306,9.23245102 L9.72639306,9.23245102 L9.72639306,10.2958463 C9.78688535,10.3291165 9.85094152,10.3649788 9.91821161,10.4033847 C10.4091946,10.6836977 10.9003517,11.0045174 11.3625254,11.3634395 C12.7702613,12.4566812 13.6430597,13.673028 13.6430597,15.0528598 L13.6430597,15.0528598 L13.6430597,19.3861931 C13.6430597,19.8464304 13.2699637,20.2195265 12.8097264,20.2195265 L12.8097264,20.2195265 Z M11.9757264,18.5525265 L11.9757264,15.8855265 L1.97572639,15.8855265 L1.97572639,18.5525265 L11.9757264,18.5525265 Z M11.9763931,4.30285981 L11.9757264,1.88552648 L1.97572639,1.88552648 L1.97639306,4.30285981 C1.97639306,5.34583377 2.48673749,6.18739469 3.38958706,6.86871434 L3.57535546,7.00285392 C3.95137503,7.26286745 4.35920336,7.47719426 4.76709682,7.64642665 C5.00866095,7.74665006 5.19080084,7.80782471 5.28188144,7.83301721 C5.6430016,7.93290152 5.89305972,8.26151375 5.89305972,8.63619315 L5.89305972,8.63619315 L5.89305972,10.8028598 C5.89305972,11.1262795 5.70592787,11.4204911 5.41300981,11.5576017 C5.30991492,11.6058589 5.11544919,11.705456 4.86091994,11.8507724 C4.4339342,12.0945479 4.00712252,12.3733377 3.61252536,12.6797802 C2.95023306,13.1941135 2.46803047,13.7176609 2.20508024,14.2198337 L11.7477059,14.2198337 C11.4847556,13.7176609 11.0025531,13.1941135 10.3402608,12.6797802 C9.94566359,12.3733377 9.51885192,12.0945479 9.09186618,11.8507724 C8.83733692,11.705456 8.6428712,11.6058589 8.5397763,11.5576017 C8.24685825,11.4204911 8.05972639,11.1262795 8.05972639,10.8028598 L8.05972639,10.8028598 L8.05972639,8.63619315 C8.05972639,8.26151375 8.30978451,7.93290152 8.67090468,7.83301721 C8.76198528,7.80782471 8.94412517,7.74665006 9.18568929,7.64642665 C9.59358276,7.47719426 10.0014111,7.26286745 10.3774307,7.00285392 C11.3957345,6.29870765 11.9763931,5.41536537 11.9763931,4.30285981 L11.9763931,4.30285981 Z" id="path-1" />
                        </g>
                    </g>
                </g>
            </g>
        </g>
    </g>
</svg>
