<?xml version="1.0" encoding="UTF-8"?>
<svg width="257px" height="225px" viewBox="0 0 257 225" version="1.1" xmlns="http://www.w3.org/2000/svg">
    <g id="Navigation" stroke="none" stroke-width="1" fill="none" fill-rule="evenodd">
        <g id="new-nav---loading-error" transform="translate(-612.000000, -177.000000)">
            <g id="content" transform="translate(195.000000, 60.000000)">
                <g id="Illustration/Error" transform="translate(417.600000, 117.000000)">
                    <ellipse id="shadow" fill="#607AA4" cx="137.65" cy="222" rx="118.75" ry="2.5" />
                    <g id="Attachment-Icon" transform="translate(141.900000, 0.000000)">
                        <g id="Parts/Icon/Locked/AttachmentChip-Copy">
                            <path d="M62.1963431,3 L102.5,46.1824895 L102.5,119.25 C102.5,122.79571 101.172543,126.013649 99.0013039,128.339977 C96.9024072,130.588795 94.00856,132 90.8,132 L90.8,132 L15.2,132 C11.99144,132 9.09759282,130.588795 6.99869612,128.339977 C4.82745666,126.013649 3.5,122.79571 3.5,119.25 L3.5,119.25 L3.5,15.75 C3.5,12.2042901 4.82745666,8.98635094 6.99869612,6.66002295 C9.09759282,4.41120506 11.99144,3 15.2,3 L15.2,3 L62.1963431,3 Z" id="Page" stroke="#A70A0E" stroke-width="6" fill="#FFFFFF" />
                            <path d="M63.579096,0 L90.7189421,0 C99.0155383,0 106.5,7.87153223 106.5,16.5971998 L106.10981,45.140625 L63.579096,0 Z" id="Curl" fill="#A70A0E" transform="translate(85.039548, 22.570313) scale(-1, -1) translate(-85.039548, -22.570313) " />
                        </g>
                    </g>
                    <g id="Icon" transform="translate(164.254167, 49.854167)" fill="#A70A0E">
                        <path d="M31.3958333,0 C48.7352733,0 62.7916667,14.0563934 62.7916667,31.3958333 C62.7916667,48.7352733 48.7352733,62.7916667 31.3958333,62.7916667 C14.0563934,62.7916667 0,48.7352733 0,31.3958333 C0,14.0563934 14.0563934,0 31.3958333,0 Z M31.3958333,5.70833333 C17.2090188,5.70833333 5.70833333,17.2090188 5.70833333,31.3958333 C5.70833333,45.5826478 17.2090188,57.0833333 31.3958333,57.0833333 C45.5826478,57.0833333 57.0833333,45.5826478 57.0833333,31.3958333 C57.0833333,17.2090188 45.5826478,5.70833333 31.3958333,5.70833333 Z M31.3478835,40.2452081 C33.7179468,40.2452081 35.6392627,42.1665241 35.6392627,44.5365874 C35.6392627,46.9066507 33.7179468,48.8279666 31.3478835,48.8279666 C28.9778202,48.8279666 27.0565043,46.9066507 27.0565043,44.5365874 C27.0565043,42.1665241 28.9778202,40.2452081 31.3478835,40.2452081 Z M31.3478835,14.5779666 C33.2439341,14.5779666 34.7809869,16.1150193 34.7809869,18.01107 L34.7809869,31.8029928 C34.7809869,33.6990435 33.2439341,35.2360962 31.3478835,35.2360962 C29.4518328,35.2360962 27.9147801,33.6990435 27.9147801,31.8029928 L27.9147801,18.01107 C27.9147801,16.1150193 29.4518328,14.5779666 31.3478835,14.5779666 Z" />
                    </g>
                    <g id="Person" transform="translate(0.000000, 22.878187)">
                        <g id=".People/Side/Parts/Head/Curly" transform="translate(47.190000, 0.000000)">
                            <path d="M46.0667215,10.3386054 C49.572582,16.8559962 49.1559947,33.3878983 44.6249823,34.5527379 C42.8179532,35.0172916 38.9683673,33.8792609 35.0504598,31.52392 L37.51,48.8753541 L22.99,48.8753541 L27.9884005,25.6381963 C25.2007663,22.374618 23.3140694,18.3751013 23.6293497,13.8935458 C24.5377898,0.980511665 42.560861,3.82121466 46.0667215,10.3386054 Z" id="Head" fill="#D4A181" />
                            <path d="M47.4375031,13.2649116 C47.2936755,12.4201223 46.9421697,11.4819931 46.6585461,10.6827431 C46.2928826,9.65240452 45.7395119,8.72342421 45.1305415,7.84789856 C43.9840458,6.19954188 42.6086823,4.71103519 41.0901474,3.47561576 C38.3163554,1.21900673 34.7854524,-0.0826142391 31.3132431,0.340088764 C29.560121,0.553496215 27.8582856,1.2204459 26.4097893,2.33055527 C25.101089,3.33354972 23.842269,4.81002911 22.1476531,4.91611605 C20.3037715,5.03145476 18.6135623,3.40828345 17.1347816,2.40580298 C15.4674498,1.27564811 13.6937006,0.452137956 11.7449954,0.13202678 C8.48046421,-0.404061781 5.41367259,0.695973443 3.16381072,3.36726728 C0.769652409,6.20992442 -0.970718319,10.3786683 0.60154096,14.1451659 C0.893790478,14.8453191 1.26976756,15.4355819 1.80935562,15.9247949 C2.30422022,16.3734028 3.06001854,16.8506913 3.26066466,17.5674977 C3.47378085,18.3294322 2.83715133,19.3123812 2.59028159,19.9998903 C2.23661935,20.9848952 1.94624503,22.0188317 2.04947465,23.0894669 C2.21908626,24.847714 3.32695289,26.5261903 4.49679481,27.681839 C5.68726389,28.8578415 7.1524494,29.5321926 8.7173954,29.843052 C9.76234917,30.0506 10.8302741,30.1651163 11.8922922,30.0871959 C12.4195039,30.048544 12.8847404,29.9024689 13.3955442,29.7863078 C13.892284,29.6733334 14.1699069,29.8049141 14.5913576,30.0766077 C16.5491574,31.3389601 18.6542541,31.8273506 20.9148983,31.6396425 C22.8228179,31.4811289 25.021862,31.0199797 26.5782758,29.7162 C28.306739,28.2681955 28.2723292,26.2714583 27.8655988,24.1381034 C28.2965192,24.3510996 29.488676,24.4829887 28.7762885,23.6339848 C28.4940713,23.2977345 27.9608589,23.1609111 27.5987583,22.9631288 C27.1771201,22.7328626 26.7490125,22.4352641 26.4216031,22.0596423 C25.0995889,20.5429691 26.4348232,17.4563737 28.0964356,16.947732 C30.5651331,16.1920682 31.1178475,19.6741253 32.880158,20.5748363 C33.893421,21.0927297 34.9533763,20.3848667 35.71255,19.662098 C36.7294695,18.6938491 37.4225425,17.4111428 38.020918,16.1058211 C38.5138136,15.0308685 38.9724869,13.9408046 39.4748523,12.8711974 C39.7094395,12.3717048 40.5215875,10.9596793 40.1137321,10.3949103 C41.8819495,10.0432403 43.8513756,10.7760832 45.3742234,11.7371363 C46.0036334,12.1344483 46.4834965,12.5724681 46.8192506,13.2738549 C46.8911644,13.4241448 47.0477434,13.8709024 47.2443578,13.8892003 C47.6103963,13.9233291 47.4736007,13.4771882 47.4375031,13.2649116" id="Hair" fill="#191847" />
                        </g>
                        <g id=".People/Side/Parts/Legs/Sitting/Wheelchair" transform="translate(27.225000, 98.957507)">
                            <g id="Parts/Objects/Seat/Cube" transform="translate(0.000000, 25.342776)">
                                <polygon id="SeatStuff" fill="#607AA4" points="16.7116981 0 63.4507018 0 69.575 74.8215297 0 74.8215297" />
                                <polygon id="SeatStuff" fill="#C6CBD4" points="16.7116981 0 31.0865947 0 39.690283 74.8215297 0 74.8215297" />
                            </g>
                            <path d="M116.736659,12.5241443 L116.911343,12.4232109 C121.912673,9.62876669 130.080675,13.4236427 130.075003,17.6424433 C130.067273,23.3892333 127.696701,38.738038 125.035813,54.2300318 L124.67949,56.2956491 C121.519984,74.5347601 118.085537,92.3893457 117.762175,94.4058905 C117.152058,98.2106922 110.616174,99.2156839 110.235568,94.4183596 C109.911638,90.3354033 109.439068,80.8761234 109.241819,71.0883264 L109.217688,69.810209 C109.075183,61.7089217 109.133142,53.5332183 109.630568,48.1287391 C110.0953,43.0794675 110.595796,38.2707333 111.088519,33.9807468 C104.957473,45.0244939 95.4739968,60.8373502 82.6388424,81.4189652 L75.6713265,78.2441168 C81.1427002,60.2651814 85.6291443,47.5725313 89.130659,40.1661667 C95.1261023,27.4846725 100.74781,16.6246633 103.113806,12.7993131 C106.835487,6.78208511 113.313646,8.88151737 116.736659,12.5241443 Z" id="Skin" fill="#D4A181" />
                            <path d="M86.9841344,74.4429183 L90.1315126,13.1700968 C92.3713569,2.57372314 111.248386,7.47456275 111.235789,13.1521469 C111.20717,26.0420206 103.410595,70.576045 103.402071,74.416369 L86.9841344,74.4429183 Z" id="LegLower" fill="#174EB6"
                                  transform="translate(99.109962, 40.684805) rotate(20.000000) translate(-99.109962, -40.684805) " />
                            <g id=".People/Side/Parts/Shoe/FlatSneaker" transform="translate(87.924380, 85.065187) rotate(30.000000) translate(-87.924380, -85.065187) translate(70.379380, 78.729493)" fill="#DCE0E5">
                                <path d="M0.713397316,4.70173512 C0.237799105,6.08927433 -9.09494702e-13,7.15801407 -9.09494702e-13,7.90795435 C-9.09494702e-13,8.99605623 0.181750594,10.5838675 0.545251781,12.6713881 C1.81087461,12.6713881 13.1852401,12.6713881 34.6683482,12.6713881 C35.5550865,9.74762052 35.0432097,8.16917249 33.1327178,7.936044 C31.222226,7.70291551 29.6351479,7.49241915 28.3714837,7.30455492 L12.8811514,0.417156967 C12.3765012,0.192776557 11.7855051,0.419980154 11.5611247,0.924630405 C11.557546,0.932679171 11.5540738,0.940774869 11.550709,0.948915381 L10.6862439,3.04034573 L10.6862439,3.04034573 C8.91762814,3.86335668 7.48044419,4.27486216 6.37469209,4.27486216 C5.61673718,4.27486216 4.61513985,4.01728516 3.3699001,3.50213116 L3.36990098,3.50212903 C2.34922493,3.07987673 1.1795004,3.56499503 0.757248098,4.58567108 C0.74143438,4.62389629 0.726810418,4.66260292 0.713397316,4.70173512 Z" id="Shoe" />
                            </g>
                            <g id=".People/Side/Parts/Shoe/FlatSneaker" transform="translate(107.690000, 87.492918)" fill="#DCE0E5">
                                <path d="M0.713397316,4.70173512 C0.237799105,6.08927433 0,7.15801407 0,7.90795435 C0,8.99605623 0.181750594,10.5838675 0.545251781,12.6713881 C1.81087461,12.6713881 13.1852401,12.6713881 34.6683482,12.6713881 C35.5550865,9.74762052 35.0432097,8.16917249 33.1327178,7.936044 C31.222226,7.70291551 29.6351479,7.49241915 28.3714837,7.30455492 L12.8811514,0.417156967 C12.3765012,0.192776557 11.7855051,0.419980154 11.5611247,0.924630405 C11.557546,0.932679171 11.5540738,0.940774869 11.550709,0.948915381 L10.6862439,3.04034573 L10.6862439,3.04034573 C8.91762814,3.86335668 7.48044419,4.27486216 6.37469209,4.27486216 C5.61673718,4.27486216 4.61513985,4.01728516 3.3699001,3.50213116 L3.36990098,3.50212903 C2.34922493,3.07987673 1.1795004,3.56499503 0.757248098,4.58567108 C0.74143438,4.62389629 0.726810418,4.66260292 0.713397316,4.70173512 Z" id="Shoe" />
                            </g>
                            <path d="M131.751076,21.9836683 C131.751076,38.0141643 124.117928,75.4070042 124.113098,78.9367812 L107.69,78.9493627 C110.093833,45.5841005 110.946214,28.7217484 110.247143,28.3623064 C109.198537,27.8231434 67.2613818,32.5383329 54.6837465,32.5383329 C36.5467342,32.5383329 29.0438155,21.1312878 28.435,0 L64.3637465,0 C71.6791619,0.780718575 109.837039,8.45679799 124.008118,11.0955579 C130.075,12.2252562 131.751076,17.5676794 131.751076,21.9836683 Z" id="LegAndButt" fill="#4585FF"/>
                        </g>
                        <g id=".People/Side/Parts/Body/Jacket2" transform="translate(10.988469, 35.600567)">
                            <path d="M30.1332554,44.9228968 L43.3811774,44.972484 C28.8544713,77.5764522 21.2800215,94.6473732 20.6578278,96.1852468 C19.2578919,99.6454626 22.2203444,104.915311 23.4872066,107.747289 C21.6116939,108.584304 20.6795223,107.631853 19.7317875,106.570603 L19.5035414,106.314674 C18.432416,105.118624 17.2455402,103.954755 14.5957222,105.184283 C13.6788853,105.6097 12.804389,106.101774 11.9505867,106.594659 L11.4867985,106.863189 C8.09882722,108.827197 4.97898799,110.612601 0.741897588,108.005102 C0.0670624527,107.58981 -0.672446911,106.026159 1.1143012,104.804249 C5.56574235,101.760024 11.9805387,96.4320828 12.8472787,94.6783497 C14.0292336,92.2868212 19.7912258,75.7016703 30.1332554,44.9228968 L30.1332554,44.9228968 Z M142.495889,33.3771584 C139.819344,35.6025819 137.103611,38.0643651 137.58049,39.2520348 C138.057369,40.4397044 140.546523,39.9978118 140.958877,41.8245487 C141.23378,43.0423734 137.194035,43.2402577 128.839643,42.4182018 L109.457275,50.082153 L105.171531,39.4084936 L129.058671,36.1588105 C133.837068,33.5079933 138.232962,31.7134364 142.246352,30.7751398 C143.375761,30.7422517 145.172435,31.1517349 142.495889,33.3771584 Z" id="Skin" fill="#D4A181" />
                            <path d="M71.0033517,3.81287242 C73.4434924,5.07129079 74.8344116,5.99572547 75.1761093,6.58617646 C75.6886559,7.47185295 83.6981555,31.768371 87.3898378,34.658151 C91.0815201,37.547931 108.26116,38.1432901 124.988493,33.9756532 L126.067938,45.0019954 C83.2961902,56.7925112 76.5653257,60.105797 68.6079434,29.2015608 C66.5480285,21.2014303 71.4420429,10.8720259 71.0033517,3.81287242 Z" id="ClothesBack" fill="#B28207"
                                  transform="translate(97.083734, 28.639184) rotate(5.000000) translate(-97.083734, -28.639184) " />
                            <path d="M61.2952096,0 L61.2995209,0.005 L73.2663511,1.63428891 C79.261595,28.9319372 85.4426976,47.2076051 89.8475413,66.6941165 L90.0465313,67.5807365 L39.4770603,67.5807365 C39.4808348,67.53224 39.4846264,67.4837643 39.488435,67.4353094 C36.8236584,75.9932074 34.2840253,84.6768598 31.8652454,93.3149686 L31.8652454,93.3149686 L14.6645209,88.6997167 C20.5258449,57.5959431 28.4677766,24.9885863 44.9256585,5.34465391 C46.2424647,3.77292965 51.3558901,1.99137835 60.2659347,0 L60.2659347,0 L61.2952096,0 Z" id="Clothes" fill="#F6B816"/>
                            <path d="M39.4770603,67.5807365 L53.0780676,67.5807365 C49.7524837,55.9150142 49.7524837,40.901515 53.0780676,22.540239 C50.0729213,29.2329224 47.6383667,36.3495803 45.7744038,43.8902125 C44.3277616,49.7425804 42.2286471,57.6394217 39.4770603,67.5807365 Z" id="Shade" fill-opacity="0.1" fill="#000000" />
                        </g>
                    </g>
                </g>
            </g>
        </g>
    </g>
</svg>
