<?xml version="1.0" encoding="UTF-8"?>
<svg width="288px" height="229px" viewBox="0 0 288 229" version="1.1" xmlns="http://www.w3.org/2000/svg"
     xmlns:xlink="http://www.w3.org/1999/xlink">
    <title>63350C1E-F062-4862-A8C8-AF5DDC2CAF25</title>
    <defs>
        <path d="M35.5207156,0 L50.6833526,0 C55.3185402,0 59.5,4.43138111 59.5,9.34360878 L59.2820065,25.4125 L35.5207156,0 Z"
              id="path-1" />
        <filter x="-8.3%" y="-11.8%" width="116.7%" height="115.7%" filterUnits="objectBoundingBox" id="filter-2">
            <feOffset dx="0" dy="-1" in="SourceAlpha" result="shadowOffsetOuter1" />
            <feGaussianBlur stdDeviation="0.5" in="shadowOffsetOuter1" result="shadowBlurOuter1" />
            <feColorMatrix values="0 0 0 0 0   0 0 0 0 0   0 0 0 0 0  0 0 0 0.0967221467 0"
                           in="shadowBlurOuter1" />
        </filter>
    </defs>
    <g id="Navigation" stroke="none" stroke-width="1" fill="none" fill-rule="evenodd">
        <g id="new-nav---loading-content" transform="translate(-596.000000, -170.000000)">
            <g id="content" transform="translate(200.000000, 55.000000)">
                <g id="Illustration/Loading" transform="translate(396.000000, 115.127451)">
                    <g id="Cloud" transform="translate(176.000000, 0.000000)" fill="#DEEEFF">
                        <path d="M95.2687026,15.6862745 L108.8,15.6862745 C110.567311,15.6862745 112,17.0908714 112,18.8235294 L112,43.9215686 C112,45.6542267 110.567311,47.0588235 108.8,47.0588235 L95.2687026,47.0588235 L95.2687026,59.6078431 C95.2687026,61.3405012 93.8360138,62.745098 92.0687026,62.745098 L66.4687026,62.745098 C64.7013914,62.745098 63.2687026,61.3405012 63.2687026,59.6078431 L63.2687026,47.0588235 L56.3706913,47.0588235 L56.3706913,53.0750977 C56.3706913,54.8077557 54.9380025,56.2123526 53.1706913,56.2123526 L27.5706913,56.2123526 C25.8033801,56.2123526 24.3706913,54.8077557 24.3706913,53.0750977 L24.3706913,47.0588235 L3.2,47.0588235 C1.4326888,47.0588235 0,45.6542267 0,43.9215686 L0,18.8235294 C0,17.0908714 1.4326888,15.6862745 3.2,15.6862745 L28.8,15.6862745 C30.5673112,15.6862745 32,17.0908714 32,18.8235294 L32,24.8398036 L48,24.8398036 L48,18.8235294 C48,17.0908714 49.4326888,15.6862745 51.2,15.6862745 L63.2687026,15.6862745 L63.2687026,3.1372549 C63.2687026,1.40459686 64.7013914,0 66.4687026,0 L92.0687026,0 C93.8360138,0 95.2687026,1.40459686 95.2687026,3.1372549 L95.2687026,15.6862745 Z" />
                    </g>
                    <ellipse id="Shadow" fill="#DEEEFF" cx="143.910237" cy="224.278632"
                             rx="79.9102369" ry="4.40608251" />
                    <g id="Human" transform="translate(64.230040, 27.872549)">
                        <g id="People-/-Side-/-Standing" transform="translate(0.000000, 10.462128)">
                            <g id=".People/Side/Parts/Legs/Standing/SuitPants"
                               transform="translate(0.000000, 66.674145)">
                                <path d="M83.8806581,12.4548495 C76.314014,19.1138363 79.4057241,77.7402274 78.9016884,78.4764364 C78.6776725,78.8036404 66.6591715,81.5525261 42.8461853,86.7230935 L43.8906476,91.2634325 C71.761986,89.8661016 86.5061246,88.0525317 88.1230634,85.8227229 C90.4380567,82.6302753 93.2506686,64.7406104 96.5608991,32.1537284 L83.8806581,12.4548495 Z"
                                      id="Leg" fill="#B28B67"
                                      transform="translate(69.703542, 51.859141) rotate(-55.000000) translate(-69.703542, -51.859141) " />
                                <path d="M42.4230855,79.2474333 L46.8490464,90.985255 C72.8462259,87.8210326 83.715081,86.5091204 88.9205463,81.3430674 C92.3908566,77.8990321 95.9405895,59.9895581 99.5697452,27.6146454 L83.7996174,5.09256889 C64.2805153,20.4308477 74.2968673,69.957867 73.8007005,71.1101308 C73.3045338,72.2623946 62.9867749,74.3683434 42.4230855,79.2474333 Z"
                                      id="Pant" fill="#001E4A"
                                      transform="translate(70.996415, 48.038912) rotate(-55.000000) translate(-70.996415, -48.038912) " />
                                <g id=".People/Side/Parts/Shoe/FlatSneaker"
                                   transform="translate(92.185705, 98.871099) rotate(20.000000) translate(-92.185705, -98.871099) translate(78.524301, 93.961329)"
                                   fill="#DCE0E5">
                                    <path d="M0.392142926,4.140089 C0.130714309,4.97718764 -4.54747351e-13,5.63988266 -4.54747351e-13,6.12817408 C-4.54747351e-13,6.97138554 0.141519996,8.20184077 0.424559989,9.81953976 C1.41003648,9.81953976 10.2666797,9.81953976 26.9944896,9.81953976 C27.6849479,7.55380125 27.2863753,6.33060194 25.7987719,6.14994182 C24.3111685,5.9692817 23.0753911,5.80616008 22.0914396,5.66057695 L10.2350696,0.414059057 C9.73002279,0.190572682 9.13942995,0.418822517 8.91594357,0.923869332 C8.91284593,0.930869551 8.90982877,0.937905107 8.90689269,0.944974609 L8.32083775,2.35607935 L8.32083775,2.35607935 C6.94370607,2.99386178 5.82464361,3.312753 4.96365037,3.312753 C4.45292844,3.312753 3.80013951,3.1632767 3.00528359,2.86432409 L3.00528612,2.86431734 C1.97141924,2.47547052 0.818081908,2.99836259 0.429235089,4.03222947 C0.415848146,4.06782271 0.403479063,4.10379051 0.392142926,4.140089 Z"
                                          id="Shoe" />
                                </g>
                                <polygon id="Leg" fill="#B28B67"
                                         points="49.934788 14.8047906 25.5581497 68.7753884 1.59970834 114.40298 7.25228009 114.40298 69.095467 14.8047906" />
                                <g id=".People/Side/Parts/Shoe/FlatSneaker" transform="translate(0.471083, 109.142376)"
                                   fill="#DCE0E5">
                                    <path d="M0.392142926,4.140089 C0.130714309,4.97718764 0,5.63988266 0,6.12817408 C0,6.97138554 0.141519996,8.20184077 0.424559989,9.81953976 C1.41003648,9.81953976 10.2666797,9.81953976 26.9944896,9.81953976 C27.6849479,7.55380125 27.2863753,6.33060194 25.7987719,6.14994182 C24.3111685,5.9692817 23.0753911,5.80616008 22.0914396,5.66057695 L10.2350696,0.414059057 C9.73002279,0.190572682 9.13942995,0.418822517 8.91594357,0.923869332 C8.91284593,0.930869551 8.90982877,0.937905107 8.90689269,0.944974609 L8.32083775,2.35607935 L8.32083775,2.35607935 C6.94370607,2.99386178 5.82464361,3.312753 4.96365037,3.312753 C4.45292844,3.312753 3.80013951,3.1632767 3.00528359,2.86432409 L3.00528612,2.86431734 C1.97141924,2.47547052 0.818081908,2.99836259 0.429235089,4.03222947 C0.415848146,4.06782271 0.403479063,4.10379051 0.392142926,4.140089 Z"
                                          id="Shoe" />
                                </g>
                                <path d="M1.80795161,106.241974 L14.3680286,108.443126 C24.0794449,95.1006151 66.6774359,38.4879261 71.1335188,13.019785 L43.1719563,13.019785 C39.6864413,22.4781165 34.3768537,38.0333555 27.2431935,59.6855018 C13.9512459,83.1412465 5.47283195,98.6600705 1.80795161,106.241974 Z"
                                      id="Pant" fill="#26426E"/>
                            </g>
                            <g id=".People/Side/Parts/Head/Curly" transform="translate(31.091472, 0.000000)">
                                <path d="M40.1095727,9.41456928 C42.8394089,14.4651428 42.5150334,27.2763415 38.9869633,28.1790199 C37.5800122,28.5389969 34.5828316,27.6572313 31.5323597,25.8322287 L33.4468863,39.278159 L22.1408966,39.278159 L26.0326405,21.2705028 C23.8621922,18.741487 22.3932428,15.6422176 22.6387258,12.1694276 C23.3460822,2.16262711 37.3797364,4.36399572 40.1095727,9.41456928 Z"
                                      id="Head" fill="#B28B67" />
                                <path d="M36.7444667,0 C39.3461857,0 41.4552957,2.09350367 41.4552957,4.67597131 C41.4552957,7.17323235 39.4830667,9.21326311 37.0003252,9.34516316 C35.5801411,9.78010806 33.7543675,10.0997012 31.7295446,10.2344067 C31.9267926,10.9674028 32.0336376,11.800868 32.0336376,12.7427523 C32.0336376,13.5738549 31.941261,14.4552632 31.771158,15.3502226 C31.3312157,14.8330267 30.7446502,14.4955111 30.149306,14.4955111 C28.482819,14.4955111 27.3228085,15.8562885 27.3228085,17.3010939 C27.3228085,19.1344748 28.388935,20.4608757 29.9453656,20.5673607 C28.5438951,23.2388956 26.6049909,25.2502451 24.6679446,25.2502451 C20.98845,25.2502451 18.3722333,20.3672589 18.3722333,15.1172136 C18.3722333,14.9325573 18.3759233,14.7491307 18.3832039,14.5670758 C14.4909088,17.2188859 11.4912036,22.4446623 6.34112711,22.4446623 C-0.665532193,22.4446623 -3.4481687,8.41674836 6.34112711,8.41674836 C12.9985108,8.41674836 16.2732794,9.38019988 19.0954655,10.8049237 C19.6526668,9.24599576 20.5025053,7.93539953 21.5417144,7.02074081 C21.790493,6.74308474 22.1715631,6.47748074 22.6626566,6.23114946 C22.9652226,6.06680074 23.2775231,5.9331672 23.5984963,5.83255539 C25.2998356,5.21153931 27.7663795,4.77318742 30.5217455,4.67767932 C31.0360081,4.65985387 31.5410736,4.65463878 32.0337843,4.6612119 C32.0413047,2.08590179 34.1474755,0 36.7444667,0 Z"
                                      id="Hair" fill="#191847" />
                            </g>
                            <g id=".People/Side/Parts/Body/LabCoat" transform="translate(0.942166, 28.055828)">
                                <path d="M23.3225058,38.3429648 L32.9758034,40.244142 C23.2677657,58.20231 18.0615194,67.7201495 17.3570647,68.7976605 C15.7720415,71.2220601 17.2509002,75.6652764 17.7971844,78.0051047 C14.3701035,78.7969528 15.7216389,73.6769444 11.3847342,74.7459556 C7.42620864,75.7216994 4.06985631,78.2258058 0.378693374,74.8486187 C-0.0751134193,74.4334134 -0.407321449,73.1355992 1.13993579,72.4699565 C4.99471782,70.8115978 10.6898336,67.7063546 11.6132971,66.5007739 C12.8726046,64.8567493 16.7756741,55.4708129 23.3225058,38.3429648 Z M118.801535,23.9667697 C117.283737,26.1672676 115.786944,28.5496171 116.393416,29.3208167 C116.999888,30.0920163 118.756706,29.2408219 119.45077,30.4949438 C119.91348,31.3310251 116.952119,32.3311529 110.566687,33.4953272 L97.7826506,43.2243453 L92.3322495,36.2935275 L109.401735,28.8526947 C112.39191,25.8950719 115.279351,23.6471417 118.064057,22.1089043 C118.896737,21.8457683 120.319332,21.7662718 118.801535,23.9667697 Z"
                                      id="Skin" fill="#B28B67" />
                                <path d="M57.1592583,4.66632049 L61.1568245,3.62040444 C70.7401368,11.3576538 76.1358845,31.4884601 82.2630508,33.6795359 C88.0560386,35.7511093 96.9508928,31.7201772 106.042416,27.5557715 L108.984446,33.481517 C101.259203,43.3835811 78.1522248,53.0569141 75.2951172,49.9966639 C66.1524249,40.203919 57.9821379,18.9863978 57.1592583,4.66632049 Z"
                                      id="CoatBack" fill="#869EC8"
                                      transform="translate(83.071852, 27.096275) rotate(5.000000) translate(-83.071852, -27.096275) " />
                                <path d="M41.4552957,53.306073 C53.6238347,53.306073 63.5558807,53.306073 71.2514335,53.306073 C72.8984256,53.306073 76.0378167,52.2445418 75.9041938,51.0150458 C74.0441988,33.900792 68.6760559,20.8191898 65.1231153,1.61822756 L54.7265492,0 C46.1272533,13.7279068 43.1534678,30.6297396 41.4552957,53.306073 Z"
                                      id="Shirt" fill="#DDE3E9" />
                                <path d="M58.1723312,0 C67.0588084,33.1334935 69.4084132,54.9520696 65.2211457,65.4557284 L65.2211457,65.4557284 L33.4468863,63.1256127 C33.9602797,55.438609 35.6066114,47.3092459 37.861509,39.3831028 C30.5136886,52.5413452 24.3369923,62.0138735 19.3320389,67.801584 L11.7770726,66.3327773 C16.0247907,40.1842579 25.4497038,17.4324576 43.7555188,3.24056002 C46.4224825,1.17295065 51.090494,1.81382519 54.0558464,-4.97379915e-14 Z"
                                      id="CoatFront" fill="#ACC3EC"/>
                            </g>
                        </g>
                        <g id="Document/-Access-Granted" transform="translate(113.634316, 0.000000)">
                            <g id="Parts/Icon/Locked/AttachmentChip-Copy"
                               transform="translate(34.500000, 41.500000) rotate(7.000000) translate(-34.500000, -41.500000) translate(4.500000, 3.500000)">
                                <path d="M35.0799068,0.5 L58,25.5276879 L58,67.1333333 C58,69.4490805 57.143256,71.5471974 55.7529689,73.0653269 C54.3779063,74.5668321 52.4795502,75.5 50.38,75.5 L50.38,75.5 L8.62,75.5 C6.52044984,75.5 4.62209374,74.5668321 3.24703108,73.0653269 C1.85674402,71.5471974 1,69.4490805 1,67.1333333 L1,67.1333333 L1,8.86666667 C1,6.55091952 1.85674402,4.45280261 3.24703108,2.93467305 C4.62209374,1.43316785 6.52044984,0.5 8.62,0.5 L8.62,0.5 L35.0799068,0.5 Z"
                                      id="Page" stroke="#B1B8C4" fill="#FFFFFF" />
                                <g id="Curl"
                                   transform="translate(47.510358, 12.706250) scale(-1, -1) translate(-47.510358, -12.706250) ">
                                    <use fill="black" fill-opacity="1" filter="url(#filter-2)"
                                         xlink:href="#path-1" />
                                    <use fill="#767D92" fill-rule="evenodd" xlink:href="#path-1" />
                                </g>
                            </g>

                        </g>
                        <path d="M114.808426,67.6887125 C115.647662,66.4379522 116.422642,65.384569 117.133365,64.5285628 C118.19945,63.2445535 118.099864,62.5 117.133365,62.5 C116.166867,62.5 114.389203,63.9815587 114.250042,64.0947069 C114.157267,64.1701391 114.343395,65.3681409 114.808426,67.6887125 Z"
                              id="ThumbInFront" fill="#B28B67" />
                    </g>
                    <path d="M71.3318724,146.677427 C73.8520691,146.677427 75.8026338,139.677978 79.0184004,140.271373 C82.2341671,140.864769 76.0254801,135.372549 73.5052834,135.372549 C70.9850867,135.372549 69.0033407,140.361535 69.0033407,142.881732 C69.0033407,145.401928 68.8116757,146.677427 71.3318724,146.677427 Z"
                          id="HandOverlay" fill="#B28B67" />
                    <g id="Cloud" transform="translate(0.000000, 5.392157)" fill="#DEEEFF">
                        <path d="M74.4286739,12.9901961 L85,12.9901961 C86.3807119,12.9901961 87.5,14.1533779 87.5,15.5882353 L87.5,36.372549 C87.5,37.8074065 86.3807119,38.9705882 85,38.9705882 L74.4286739,38.9705882 L74.4286739,49.3627451 C74.4286739,50.7976025 73.3093858,51.9607843 71.9286739,51.9607843 L51.9286739,51.9607843 C50.547962,51.9607843 49.4286739,50.7976025 49.4286739,49.3627451 L49.4286739,38.9705882 L44.0396026,38.9705882 L44.0396026,43.9528153 C44.0396026,45.3876727 42.9203145,46.5508545 41.5396026,46.5508545 L21.5396026,46.5508545 C20.1588907,46.5508545 19.0396026,45.3876727 19.0396026,43.9528153 L19.0396026,38.9705882 L2.5,38.9705882 C1.11928813,38.9705882 0,37.8074065 0,36.372549 L0,15.5882353 C0,14.1533779 1.11928813,12.9901961 2.5,12.9901961 L22.5,12.9901961 C23.8807119,12.9901961 25,14.1533779 25,15.5882353 L25,20.5704623 L37.5,20.5704623 L37.5,15.5882353 C37.5,14.1533779 38.6192881,12.9901961 40,12.9901961 L49.4286739,12.9901961 L49.4286739,2.59803922 C49.4286739,1.16318178 50.547962,0 51.9286739,0 L71.9286739,0 C73.3093858,0 74.4286739,1.16318178 74.4286739,2.59803922 L74.4286739,12.9901961 Z" />
                    </g>
                </g>
            </g>
        </g>
    </g>
</svg>
