<?xml version="1.0" encoding="UTF-8"?>
<svg width="18px" height="18px" viewBox="0 0 18 18" version="1.1" xmlns="http://www.w3.org/2000/svg" xmlns:xlink="http://www.w3.org/1999/xlink">
    <title>Virtru icons/24/Inbox-24</title>
    <g id="3rd-tab-history-mocks" stroke="none" stroke-width="1" fill="none" fill-rule="evenodd">
        <g id="Virtru-icons/24/Inbox-24" fill="#2D323B" fill-rule="nonzero">
            <path d="M16,0 C17.1,0 18,0.89 18,2 L18,2 L18,16 C18,17.1 17.1,18 16,18 L16,18 L1.99,18 C0.88,18 0,17.1 0,16 L0,16 L0.01,2 C0.01,0.89 0.88,0 1.99,0 L1.99,0 Z M16,2 L1.99,2 L1.99,12 L6,12 C6,13.66 7.35,15 9,15 C10.65,15 12,13.66 12,12 L12,12 L16,12 L16,2 Z" id="Inbox"></path>
        </g>
    </g>
</svg>