<svg xmlns="http://www.w3.org/2000/svg" viewBox="0 0 188 70">
  <path fill="#FFF" d="M24.347592,29.3602612 L24.347592,12.361099 C24.347592,10.7184651 25.6230652,9.38730605 27.1969836,9.38730605 C28.7704914,9.38730605 30.0459646,10.7184651 30.0459646,12.361099 L30.0459646,29.3602612 C30.0459646,31.0024667 28.7704914,32.3340542 27.1969836,32.3340542 C25.6230652,32.3340542 24.347592,31.0024667 24.347592,29.3602612 Z M27.4560191,6.25820403 C25.7388169,6.25820403 24.347592,4.85797483 24.347592,3.12910202 C24.347592,1.40113083 25.7388169,0 27.4560191,0 C29.1732214,0 30.5639985,1.40113083 30.5639985,3.12910202 C30.5639985,4.85797483 29.1732214,6.25820403 27.4560191,6.25820403 Z M36.2623711,29.356288 L36.2623711,11.0040508 L38.0838122,10.2292567 C38.6847447,9.97356606 44.0948713,7.78089028 48.8212529,9.54884506 C50.3756129,10.1301551 51.1599468,11.8487736 50.5720215,13.3867785 C49.9849634,14.9256413 48.2463348,15.7000064 46.6932756,15.1199833 C45.3717444,14.6261916 43.6383187,14.8196756 42.2812345,15.1362858 L42.2812345,29.356288 C42.2812345,31.0006876 40.9336889,32.3340542 39.2718028,32.3340542 C37.6099167,32.3340542 36.2623711,31.0006876 36.2623711,29.356288 Z M59.7428858,9.57788588 L59.7428858,7.71076857 C59.7428858,6.0444446 58.4292592,4.69365302 56.8087816,4.69365302 C55.1887267,4.69365302 53.8755228,6.0444446 53.8755228,7.71076857 L53.8755228,29.8388902 C53.8755228,31.5047796 55.1887267,32.8555712 56.8087816,32.8555712 C58.4292592,32.8555712 59.7428858,31.5047796 59.7428858,29.8388902 L59.7428858,15.6112477 L62.8566204,15.6112477 C64.4766753,15.6112477 65.7903019,14.2604562 65.7903019,12.5945668 C65.7903019,10.9282428 64.4766753,9.57788588 62.8566204,9.57788588 L59.7428858,9.57788588 Z M72.9434339,32.3340542 C71.2816235,32.3340542 69.9345728,30.988105 69.9345728,29.3277546 L69.9358735,10.8027651 L71.8478443,10.0548712 C72.445281,9.82101901 77.8204769,7.82288213 82.4933162,9.58673378 C84.0480389,10.1739626 84.8323371,11.9083662 84.2440051,13.4613178 C83.6565401,15.0138364 81.9197249,15.7963751 80.3650022,15.2100124 C79.0396292,14.7089625 77.3171213,14.8505729 75.9544628,15.1229674 L75.9531621,29.3286207 C75.9531621,30.988105 74.6061115,32.3340542 72.9438675,32.3340542 L72.9434339,32.3340542 Z M88.0657584,23.396823 L88.0657584,12.361099 C88.0657584,10.7184651 89.4161658,9.38730605 91.0825519,9.38730605 C92.7485035,9.38730605 94.0989108,10.7184651 94.0989108,12.361099 L94.0989108,23.396823 C94.0989108,25.0450266 95.4597494,26.3864682 97.1322204,26.3864682 C98.8038222,26.3864682 100.163792,25.0450266 100.163792,23.396823 L100.163792,12.361099 C100.163792,10.7184651 101.514199,9.38730605 103.180585,9.38730605 C104.846537,9.38730605 106.196944,10.7184651 106.196944,12.361099 L106.196944,23.396823 C106.196944,28.3247248 102.13051,32.3340542 97.1322204,32.3340542 C92.1326273,32.3340542 88.0657584,28.3247248 88.0657584,23.396823 Z M-1.42108547e-14,10.2381646 L5.89319105,10.2381646 L5.89319105,24.6929013 L5.89319105,24.8879344 C9.26321509,23.1604986 13.7925206,19.5093081 13.7925206,12.3620962 C13.7925206,10.7191033 15.1118347,9.38730605 16.7389039,9.38730605 C18.3663975,9.38730605 19.6852872,10.7191033 19.6852872,12.3620962 C19.6852872,25.1524078 9.12822735,30.654055 3.57293014,32.1118736 C3.57293014,32.1118736 1.28153452,32.6909718 -1.42108547e-14,32.8555712 L-1.42108547e-14,10.2381646 Z" transform="translate(81.331 14.081)"/>
  <path fill="#FFF" d="M34.2905191,0 C35.4090375,0 36.613908,0.0441051136 37.8186161,0.152897727 C39.4964749,0.369012784 40.831198,0.607017045 41.9922432,0.909708807 C43.9065962,1.34324574 45.8006597,1.94862926 47.5647082,2.70707386 C49.0059105,3.29203835 50.4797383,4.64116477 50.1401736,6.97971591 C50.1401736,6.97971591 49.5918707,10.6061364 45.0832237,9.0271733 C41.7917832,7.62348722 38.17214,6.84740057 34.3720016,6.84740057 C19.1961201,6.84740057 6.89485212,19.2270526 6.89485212,34.5 C6.89485212,49.7729474 19.1961201,62.1525994 34.3720016,62.1525994 C49.5480454,62.1525994 61.8491511,49.7729474 61.8491511,34.5 C61.8491511,27.9206605 59.5666658,21.8790767 55.755003,17.1333665 C58.1817871,16.6823509 60.0961401,14.7510369 60.4722259,12.2757599 C61.095681,12.9915696 61.6972235,13.7483807 62.2565639,14.5491335 C66.3876642,20.4175639 68.5826613,27.3010653 68.5826613,34.4890554 C68.5826613,53.5189418 53.1998271,69 34.2905191,69 C15.381211,69 0,53.5189418 0,34.4890554 C0,15.4590057 15.381211,0 34.2905191,0 Z M43.4944908,23.6108274 C45.1479442,23.6108274 46.4884503,24.9590052 46.4884503,26.6220846 C46.4884503,39.5665522 35.7605016,45.1347716 30.1155896,46.6097598 C30.1155896,46.6097598 29.1200868,46.8604265 28.0669922,47.0805124 L27.6944476,47.1564619 C27.2605858,47.2425198 26.835668,47.3177825 26.4851741,47.3626149 L26.4851741,24.4723538 L32.4732556,24.4723538 L32.4732556,39.2988777 C35.8981269,37.5504953 40.5003688,33.8553443 40.5003688,26.6220846 C40.5003688,24.9590052 41.8408749,23.6108274 43.4944908,23.6108274 Z" transform="translate(.209)"/>
  <path fill="#FFF" d="M0.00930126777,0.862679546 L0,0.862679546 L0,23.7364766 C1.30915344,23.5690563 3.64842228,22.9830853 3.64842228,22.9830853 C9.32219562,21.5088566 20.102365,15.9444573 20.102365,3.00891464 C20.102365,1.34633816 18.7560064,0 17.0934048,0 C15.4308032,0 14.0844447,1.34633816 14.0844447,3.00891464 C14.0844447,10.2358905 9.45938932,13.928438 6.01792024,15.6770499 L6.01792024,15.4794009 L6.01792024,0.860354264 L6.00861898,0.860354264 L0.00930126777,0.862679546 L0.00930126777,0.862679546 Z" transform="translate(26.644 23.619)"/>
  <path fill="#FFF" d="M63.8564852,16.3988439 C63.7844004,17.6335685 63.1821433,18.8287633 62.1055215,19.6170339 C60.9149593,20.4890145 59.4244311,20.6564348 58.1315549,20.1983543 C58.0757473,20.1076683 58.0176144,20.0216329 57.9618067,19.9309469 C60.9521643,24.7396297 62.5031507,30.501678 62.0450633,36.5822898 C60.9010074,51.8059098 47.6304236,63.2207181 32.4065736,62.0743542 C17.1827235,60.9303155 5.76774268,47.6599323 6.91412393,32.4363124 C8.05817987,17.2126925 21.3287637,5.79788417 36.5526137,6.94424809 C39.9568777,7.20002909 43.165815,8.07200976 46.0910638,9.42997433 C46.0003764,9.38811926 45.909689,9.34161362 45.8190017,9.30208383 C47.0304918,9.87177787 48.5163693,9.70435758 49.5790392,8.75796789 C50.9974825,7.49301459 51.1230496,5.31655083 49.8580772,3.89812894 C49.6092683,3.61909512 49.3232543,3.40051864 49.0186378,3.22147194 C45.3632396,1.51704038 41.3497425,0.419507374 37.0874366,0.0986184865 C18.0872718,-1.32910454 1.5286899,12.9132465 0.0986199771,31.913124 C-1.32912462,50.9130015 12.9134416,67.4713332 31.9136064,68.9013815 C50.9137711,70.3291045 67.472353,56.0867535 68.902423,37.086876 C69.467475,29.5390113 67.5514138,22.3817939 63.8564852,16.3988439 Z"/>
  <path fill="#004987" d="M17.784024,12.7611465 C17.6677581,12.5797745 17.5561429,12.3984025 17.4352264,12.2216811 C17.3538403,12.0984412 17.2678036,11.9775265 17.1840922,11.8566119 C17.0259706,11.6287343 16.8701744,11.3985314 16.7097275,11.172979 C16.2400135,10.5242254 15.7493716,9.89174876 15.2378019,9.27554908 C15.2378019,9.27089852 15.2378019,9.26392267 15.2378019,9.25927211 C15.1378133,9.13835745 15.033174,9.02441865 14.9308601,8.90350399 C14.8913297,8.85699836 14.8541246,8.81049272 14.8145942,8.76398708 C14.7611119,8.70120448 14.702979,8.64074715 14.6471714,8.57796454 C14.4797486,8.38729143 14.3100005,8.19661833 14.137927,8.0082705 C13.9798055,7.83619965 13.8193586,7.66645408 13.6565864,7.49670851 C13.5379952,7.37346857 13.4217294,7.24790335 13.3008129,7.12466342 C13.0357268,6.85493073 12.76599,6.58984861 12.4916026,6.32709176 C12.4660241,6.30383895 12.442771,6.27826085 12.4171925,6.25500803 C10.8638807,4.77845409 9.17105002,3.44141706 7.35032685,2.26947503 C7.36195344,2.27877616 7.3712547,2.29040257 7.38288129,2.2997037 C6.68761152,1.85092431 5.97606454,1.42539774 5.24824034,1.02544927 C5.0924441,0.939413845 4.93664787,0.860354264 4.77852631,0.776644119 C4.73899593,0.760367147 4.70411617,0.739439611 4.66458578,0.723162638 C4.18324518,0.469706923 3.69492862,0.230202898 3.19963611,0 C3.50425263,0.176721416 3.79259193,0.397623187 4.03907553,0.676657002 C5.30404794,2.0950789 5.17848083,4.27154266 3.76003749,5.53649595 C2.69736765,6.48288564 1.21149013,6.65030593 0,6.08061189 C0.0906873607,6.12246697 0.181374721,6.16664732 0.272062082,6.20850239 C0.399954514,6.26663444 0.525521629,6.32709176 0.651088744,6.38754909 C0.967331848,6.54101769 1.28124963,6.69913685 1.5928421,6.86423186 C3.43681844,7.84085021 5.15522766,9.0174428 6.72016596,10.3707568 C7.02013185,10.6288631 7.31312178,10.8939452 7.60146108,11.1636779 C7.62006362,11.1822802 7.63866615,11.1985571 7.65726869,11.2171594 C7.88980038,11.4357359 8.11768144,11.6612882 8.34323719,11.8891658 C8.43857518,11.9868277 8.53391317,12.0844895 8.62925117,12.1821513 C8.7571436,12.3146924 8.88271072,12.451884 9.00595251,12.5867504 C9.15709811,12.7495201 9.30824372,12.9146151 9.45473868,13.0820354 C9.45938932,13.0890112 9.46636527,13.0936618 9.4710159,13.1006376 C10.2104667,13.9470402 10.8941099,14.8352979 11.5265961,15.7630853 C11.6056569,15.8770241 11.6823923,15.9932882 11.7591278,16.1095523 C11.8893455,16.3095265 12.017238,16.511826 12.1451304,16.7141255 C12.200938,16.8048115 12.2613962,16.890847 12.3148785,16.9815329 C13.6077547,17.4396135 15.0982829,17.2721932 16.2888452,16.4002125 C17.3654669,15.611942 17.967724,14.4167471 18.0398088,13.1820225 C17.9607481,13.0401803 17.872386,12.9006634 17.784024,12.7611465 Z" transform="translate(45.81 3.221)"/>
</svg>
