<?xml version="1.0" encoding="UTF-8"?>
<svg viewBox="0 0 100 100" version="1.1" xmlns="http://www.w3.org/2000/svg">
    <g stroke="none" stroke-width="1" fill="none" fill-rule="evenodd">
        <path d="M76.7368229,27.4783353 C77.1863781,28.1842526 77.6687133,28.8058532 78.0901712,29.3993484 C82.4639679,35.357721 84.8100838,42.502147 84.8100838,49.985713 C84.8100838,59.3045703 81.1668141,68.0308692 74.6154847,74.6108425 C68.0407409,81.2189213 59.2884645,84.8618665 50.0023414,84.8618665 C30.8025912,84.8618665 15.161819,69.2169227 15.161819,49.985713 C15.161819,30.7826089 30.8025912,15.1943445 50.0023414,15.1943445 L50.7047713,15.1943445 C52.9338155,15.2224501 55.0551538,15.4486996 57.2280035,15.9569413 C59.204173,16.351824 61.2084396,16.9453191 63.2408034,17.7641269 C63.9760133,18.1309041 64.6784432,18.3004742 65.4698475,18.3004742 C68.2655185,18.3004742 70.5226599,16.0131523 70.5226599,13.2175889 C70.5226599,11.1560482 69.3097976,9.29218302 67.4179198,8.52958628 C65.104584,7.54120843 62.6179822,6.75050616 60.1079661,6.18558499 C58.5813518,5.79023385 56.8299599,5.47966773 54.629013,5.19767557 C53.0508871,5.05621106 51.4680785,5 50.0023414,5 C25.1831521,5 5,25.162908 5,49.985713 C5,74.8085181 25.1831521,95 50.0023414,95 C74.8168479,95 95,74.8085181 95,49.985713 C95,40.6101763 92.1200375,31.6299907 86.7019616,23.9768546 C85.9667517,22.9317972 85.1753473,21.9438878 84.3558458,21.011721 C83.7939019,24.7113458 80.576773,27.4783353 76.7368229,27.4783353 Z" id="Fill-31" fill="#4585FF" />
    </g>
</svg>
