<?xml version="1.0" encoding="UTF-8"?>
<svg width="22px" height="22px" viewBox="0 0 22 22" version="1.1" xmlns="http://www.w3.org/2000/svg" xmlns:xlink="http://www.w3.org/1999/xlink">
    <g id="Round-2" stroke="none" stroke-width="1" fill="none" fill-rule="evenodd">
        <g id="Sender-Click-on-Link" transform="translate(-825.000000, -393.000000)">
            <g id="Group" transform="translate(139.000000, 115.000000)">
                <g id="Security-settings" transform="translate(673.000000, 199.000000)">
                    <g id="Option-2" transform="translate(0.000000, 78.000000)">
                        <g id="Feature-Icon-Copy-3" transform="translate(13.000000, 1.000000)">
                            <path fill="#2D323B"  d="M22,11 C22,4.92486775 17.0751322,0 11,0 C4.92486775,0 0,4.92486775 0,11 C0,17.0751322 4.92486775,22 11,22 C11.506261,22 11.9166667,21.5895944 11.9166667,21.0833333 C11.9166667,20.5770723 11.506261,20.1666667 11,20.1666667 C5.93738979,20.1666667 1.83333333,16.0626102 1.83333333,11 C1.83333333,5.93738979 5.93738979,1.83333333 11,1.83333333 C16.0626102,1.83333333 20.1666667,5.93738979 20.1666667,11 C20.1666667,11.506261 20.5770723,11.9166667 21.0833333,11.9166667 C21.5895944,11.9166667 22,11.506261 22,11 Z M20.4351521,14.9351521 C20.7931327,14.5771715 21.3735339,14.5771715 21.7315145,14.9351521 C22.0894952,15.2931327 22.0894952,15.8735339 21.7315145,16.2315145 L21.7315145,16.2315145 L19.6286667,18.3326667 L21.7315145,20.4351521 C22.0596634,20.763301 22.0870092,21.278345 21.8135518,21.6376431 L21.7315145,21.7315145 C21.3735339,22.0894952 20.7931327,22.0894952 20.4351521,21.7315145 L20.4351521,21.7315145 L18.3326667,19.6286667 L16.2315145,21.7315145 C15.9033657,22.0596634 15.3883217,22.0870092 15.0290236,21.8135518 L14.9351521,21.7315145 C14.5771715,21.3735339 14.5771715,20.7931327 14.9351521,20.4351521 L14.9351521,20.4351521 L17.0366667,18.3326667 L14.9351521,16.2315145 C14.6070032,15.9033657 14.5796575,15.3883217 14.8531149,15.0290236 L14.9351521,14.9351521 C15.2931327,14.5771715 15.8735339,14.5771715 16.2315145,14.9351521 L16.2315145,14.9351521 L18.3326667,17.0366667 Z M9.53326787,5.67043323 C9.89477512,5.31601436 10.4751479,5.32176063 10.8295668,5.68326787 L10.8295668,5.68326787 L15.4129001,10.3582679 C15.7623666,10.7147237 15.7623666,11.2852763 15.4129001,11.6417321 L15.4129001,11.6417321 L10.8295668,16.3167321 C10.4751479,16.6782394 9.89477512,16.6839856 9.53326787,16.3295668 C9.17176063,15.9751479 9.16601436,15.3947751 9.52043323,15.0332679 L9.52043323,15.0332679 L12.5746667,11.9163331 L7.05833333,11.9166667 C6.58823381,11.9166667 6.2007851,11.5627965 6.14783375,11.1069027 L6.14166667,11 C6.14166667,10.493739 6.55207231,10.0833333 7.05833333,10.0833333 L7.05833333,10.0833333 L12.5756667,10.0833331 L9.52043323,6.96673213 C9.19554927,6.63535049 9.17330406,6.120061 9.4503053,5.7634879 Z" />
                        </g>
                    </g>
                </g>
            </g>
        </g>
    </g>
</svg>
