<svg xmlns="http://www.w3.org/2000/svg" width="20" height="23"
     viewBox="0 0 20 23">
    <path id="a" fill="#2D323B" transform="translate(-2 -1)"
          d="M17.9779551,13.0271329 C19.294539,13.0271329 20.3630709,14.0956648 20.3630709,15.4122487 L20.3630709,15.4122487 L20.3630709,16.366295 L20.8400941,16.366295 C21.3648196,16.366295 21.7941404,16.7956159 21.7941404,17.3203414 L21.7941404,17.3203414 L21.7941404,22.0905731 C21.7941404,22.6152986 21.3648196,23.0446194 20.8400941,23.0446194 L20.8400941,23.0446194 L15.115816,23.0446194 C14.5910906,23.0446194 14.1617697,22.6152986 14.1617697,22.0905731 L14.1617697,22.0905731 L14.1617697,17.3203414 C14.1617697,16.7956159 14.5910906,16.366295 15.115816,16.366295 L15.115816,16.366295 L15.5978389,16.3656194 L15.5928392,15.4122487 C15.5928392,14.1505224 16.5741819,13.1166078 17.8147334,13.0326388 Z M12.6496417,1.04461943 L18.9201234,7.31510114 L18.921181,11.0991253 C18.6593392,11.0497041 18.3510474,11.0238299 17.9902817,11.0238299 C17.6460816,11.0245707 17.3225098,11.0478267 17.0195664,11.0935978 L17.0198389,8.13461943 L11.8511447,8.13539154 L11.8508389,2.94461943 L4.28899945,2.9447654 C4.19376973,2.9447654 4.10943565,3.02968514 4.10943528,3.13596759 L4.09898485,19.8560646 C4.09898485,19.9611594 4.18331893,20.0460792 4.27854864,20.0460792 L12.2328389,20.0456194 L12.2328389,21.9456194 L4.27854864,21.9462251 C3.12896033,21.9462251 2.19883888,21.0056529 2.19883888,19.8560646 L2.20928968,3.13478 C2.20928968,1.98519169 3.13941113,1.04461943 4.28899945,1.04461943 L12.6496417,1.04461943 Z M19.2659176,17.7539988 C18.9797037,17.7539988 18.7498653,17.9834036 18.7498653,18.2696175 C18.7498653,19.3320782 18.1340717,19.9305254 17.6136828,20.247529 L17.6136828,20.247529 L17.448893,20.3425 L17.448893,17.8971058 L16.4167883,17.8971058 L16.4167883,21.7215306 L16.4384712,21.717194 C16.6249439,21.6955112 16.9198309,21.6217894 17.0152356,21.6001065 C17.0282453,21.59577 17.0369184,21.5914334 17.0455916,21.5914334 C17.3318055,21.5177116 19.78197,20.81085 19.78197,18.2696175 C19.78197,17.9834036 19.5477949,17.7539988 19.2659176,17.7539988 Z M17.9779551,13.9334769 C17.1622454,13.9334769 16.4991832,14.5965391 16.4991832,15.4122487 C16.4982164,15.5278907 16.4975564,15.6330198 16.4972031,15.7276359 L16.4976847,16.0824465 C16.4993864,16.2716789 16.5038495,16.366295 16.5110739,16.366295 L16.5110739,16.366295 L19.4567269,16.366295 L19.4567269,15.4122487 C19.4567269,14.5965391 18.7936647,13.9334769 17.9779551,13.9334769 Z"/>
</svg>
