<?xml version="1.0" encoding="UTF-8"?>
<svg width="25px" height="16px" viewBox="0 0 25 16" version="1.1" xmlns="http://www.w3.org/2000/svg" xmlns:xlink="http://www.w3.org/1999/xlink">
    <!-- Generator: Sketch 55.2 (78181) - https://sketchapp.com -->
    <title>reply all</title>
    <desc>Created with Sketch.</desc>
    <g id="reply-all" stroke="none" stroke-width="1" fill="none" fill-rule="evenodd">
        <path d="M24.2411364,13.0089254 L25,16 L22.8964735,13.6784956 C20.7419441,11.3007031 17.7617795,10.1258241 13.4691115,10.0015061 L13.4691115,13.9959748 L4.59183673,6.99798739 L13.4691115,0 L13.4691115,4.02247489 C19.4814471,4.90587564 23.0303366,8.23653662 24.2411364,13.0089254 Z M12.5991847,5.42137041 L11.910588,5.34382423 L11.910588,3.16618488 L7.04976707,6.99798739 L11.910588,10.8297899 L11.910588,8.492161 L12.6898497,8.492161 C16.3994666,8.492161 19.32957,9.18443104 21.652903,10.6531563 C20.0323843,7.80232397 17.0701968,5.92487253 12.5991847,5.42137041 Z M8.87727472,2 L2.45793034,6.99798739 L8.87727472,12 L8.87727472,13.9959748 L0,6.99798739 L8.87727472,0 L8.87727472,2 Z" id="path-2" fill="#2D323B" fill-rule="nonzero"></path>
    </g>
</svg>