<?xml version="1.0" encoding="UTF-8"?>
<svg width="28px" height="27px" viewBox="0 0 28 27" version="1.1" xmlns="http://www.w3.org/2000/svg">
    <g id="audit-stream-widget-for-home-page" stroke="none" stroke-width="1" fill="none" fill-rule="evenodd">
        <g id="2.0.0---user-page" transform="translate(-1019.000000, -14.000000)">
            <g id="Group" transform="translate(880.000000, 0.000000)">
                <g id="Group" transform="translate(115.500000, 14.000000)">
                    <g transform="translate(24.000000, 0.000000)" id="Avatar">
                        <path d="M13.5,25.9151786 C20.3567138,25.9151786 25.9151786,20.3567138 25.9151786,13.5 C25.9151786,6.64328621 20.3567138,1.08482143 13.5,1.08482143 C6.64328621,1.08482143 1.08482143,6.64328621 1.08482143,13.5 C1.08482143,20.3567138 6.64328621,25.9151786 13.5,25.9151786 Z M13.5,27 C6.04415588,27 0,20.9558441 0,13.5 C0,6.04415588 6.04415588,0 13.5,0 C20.9558441,0 27,6.04415588 27,13.5 C27,20.9558441 20.9558441,27 13.5,27 Z M13.5,15.0902714 C17.5585155,15.0902714 20.0379587,16.8648977 20.7031155,20.3267484 C20.7809116,20.7316434 20.5157456,21.1229418 20.1108507,21.2007379 C19.7059557,21.2785341 19.3146573,21.0133681 19.2368611,20.6084731 C18.7156738,17.8959209 16.8817915,16.5833456 13.5,16.5833456 C10.1182085,16.5833456 8.28432616,17.8959209 7.76313889,20.6084731 C7.68534275,21.0133681 7.2940443,21.2785341 6.88914934,21.2007379 C6.48425439,21.1229418 6.21908841,20.7316434 6.29688455,20.3267484 C6.96204133,16.8648977 9.44148451,15.0902714 13.5,15.0902714 Z M13.6105981,5.78571429 C16.0729937,5.78571429 17.4538817,7.56410052 17.4538817,10.2667595 C17.4538817,12.6888002 15.5697921,14.7478048 13.6105981,14.7478048 C11.6514041,14.7478048 9.76731445,12.6888002 9.76731445,10.2667595 C9.76731445,7.56410052 11.1482024,5.78571429 13.6105981,5.78571429 Z M13.6105981,7.2787885 C12.067228,7.2787885 11.2603887,8.31788212 11.2603887,10.2667595 C11.2603887,11.8923307 12.507051,13.2547306 13.6105981,13.2547306 C14.7141452,13.2547306 15.9608075,11.8923307 15.9608075,10.2667595 C15.9608075,8.31788212 15.1539682,7.2787885 13.6105981,7.2787885 Z" id="path-1"></path>
                    </g>
                </g>
            </g>
        </g>
    </g>
</svg>
