<?xml version="1.0" encoding="UTF-8"?>
<svg width="19px" height="22px" viewBox="0 0 19 22" version="1.1" xmlns="http://www.w3.org/2000/svg" xmlns:xlink="http://www.w3.org/1999/xlink">
    <title>5023CB60-0963-496B-9D7A-B8077179F4AD</title>
    <defs>
    </defs>
    <g id="Round-2" stroke="none" stroke-width="1" fill="none" fill-rule="evenodd">
        <g id="Sender-Click-on-Link" transform="translate(-827.000000, -465.000000)">
            <g id="Group" transform="translate(139.000000, 115.000000)">
                <g id="Security-settings" transform="translate(673.000000, 199.000000)">
                    <g id="Option-4" transform="translate(0.000000, 150.000000)">
                        <g id="Feature-Icon-Copy" transform="translate(15.000000, 1.000000)">
                            <path fill="#2D323B" d="M16.7803603,18.3319559 C17.333209,18.388141 17.7947814,18.7893394 17.9402285,19.3401124 L17.9402285,19.3401124 L18.297111,20.9898231 C18.3904546,21.2248512 18.3588179,21.4927547 18.2134776,21.6980404 C18.0681373,21.9033261 17.829772,22.0167867 17.5833459,21.9979796 L13.6419891,21.9980597 C13.4342271,21.9824954 13.2413047,21.8739996 13.1167274,21.6980404 C12.9713871,21.4927547 12.9397504,21.2248512 13.033094,20.9898231 L13.033094,20.9898231 L13.4791971,19.3401124 C13.6246442,18.7893394 14.0862165,18.388141 14.6390653,18.3319559 L14.6390653,18.3319559 Z M2.00368853,0.0191720473 L10.4853971,0.0446194284 L16.7558789,6.31510114 L16.7573486,11.4335875 C16.4901682,11.3816302 16.1824993,11.3543073 15.8342867,11.3543073 C15.4809584,11.3550677 15.1545327,11.3827207 14.8550094,11.4372662 L14.8555943,7.13517205 L9.68690017,7.13539154 L9.6865943,1.94417205 L2.12475487,1.9447654 C2.02952515,1.9447654 1.94519107,2.02968514 1.9451907,2.13596759 L1.93474027,18.8560646 C1.93474027,18.9611594 2.01907435,19.0460792 2.11430406,19.0460792 L11.5725943,19.045172 L11.0045943,20.946172 L2.11430406,20.9462251 C0.96471575,20.9462251 0.0345942958,20.0056529 0.0345942958,18.8560646 L0.0450450987,2.13478 C0.0450450987,0.985191685 0.854100214,0.0191720473 2.00368853,0.0191720473 Z M15.7097128,13.7494263 C16.6952166,13.7494263 17.4941253,14.5700936 17.4941253,15.5824381 C17.4941253,16.5947826 16.6952166,17.41545 15.7097128,17.41545 C14.724209,17.41545 13.9253003,16.5947826 13.9253003,15.5824381 C13.9253003,14.5700936 14.724209,13.7494263 15.7097128,13.7494263 Z" />
                        </g>
                    </g>
                </g>
            </g>
        </g>
    </g>
</svg>
